<mxfile host="Electron" agent="Mozilla/5.0 (X11; Linux x86_64) AppleWebKit/537.36 (KHTML, like Gecko) draw.io/27.0.9 Chrome/134.0.6998.205 Electron/35.4.0 Safari/537.36" version="27.0.9">
  <diagram name="Page-1" id="halI5JZFzTkfXnPReaKt">
    <mxGraphModel dx="700" dy="1394" grid="1" gridSize="10" guides="1" tooltips="1" connect="1" arrows="1" fold="1" page="1" pageScale="1" pageWidth="850" pageHeight="1100" math="0" shadow="0">
      <root>
        <mxCell id="0" />
        <mxCell id="1" parent="0" />
        <mxCell id="RBqscLzgSMPgarrKhITt-102" value="" style="rounded=0;whiteSpace=wrap;html=1;fillColor=none;glass=0;shadow=0;sketchStyle=rough;fillStyle=cross-hatch;gradientColor=none;strokeWidth=0.5;" parent="1" vertex="1">
          <mxGeometry x="180" y="1120" width="640" height="360" as="geometry" />
        </mxCell>
        <mxCell id="DrOKHovd3dyKM4xMpCVP-67" value="" style="rounded=0;whiteSpace=wrap;html=1;fillStyle=hatch;fillColor=none;gradientColor=none;strokeColor=default;comic=0;treeMoving=0;fixDash=0;dropTarget=0;strokeWidth=0.5;shadow=1;" parent="1" vertex="1">
          <mxGeometry x="461" y="1130" width="90" height="20" as="geometry" />
        </mxCell>
        <mxCell id="DrOKHovd3dyKM4xMpCVP-51" value="" style="rounded=0;whiteSpace=wrap;html=1;fillStyle=hatch;fillColor=none;gradientColor=none;strokeColor=default;comic=0;treeMoving=0;fixDash=0;dropTarget=0;strokeWidth=0.5;shadow=1;" parent="1" vertex="1">
          <mxGeometry x="680" y="1450" width="20" height="20" as="geometry" />
        </mxCell>
        <mxCell id="DrOKHovd3dyKM4xMpCVP-49" value="" style="rounded=0;whiteSpace=wrap;html=1;fillStyle=hatch;fillColor=none;gradientColor=none;strokeColor=default;comic=0;treeMoving=0;fixDash=0;dropTarget=0;strokeWidth=0.5;shadow=1;" parent="1" vertex="1">
          <mxGeometry x="270" y="1450" width="40" height="20" as="geometry" />
        </mxCell>
        <mxCell id="DrOKHovd3dyKM4xMpCVP-48" value="" style="rounded=0;whiteSpace=wrap;html=1;fillStyle=hatch;fillColor=none;gradientColor=none;strokeColor=default;comic=0;treeMoving=0;fixDash=0;dropTarget=0;strokeWidth=0.5;shadow=1;" parent="1" vertex="1">
          <mxGeometry x="190" y="1450" width="70" height="20" as="geometry" />
        </mxCell>
        <mxCell id="DrOKHovd3dyKM4xMpCVP-30" value="" style="rounded=0;whiteSpace=wrap;html=1;fillColor=none;strokeColor=#9673a6;" parent="1" vertex="1">
          <mxGeometry x="367" y="1177" width="166" height="106" as="geometry" />
        </mxCell>
        <mxCell id="2gesUs9yHsMbc-UvOtqr-20" value="{disjoint, complete}" style="text;html=1;align=center;verticalAlign=middle;resizable=1;points=[];autosize=1;strokeColor=none;fillColor=none;fontFamily=CaskaydiaCove NFM Light;fontSize=8;fontStyle=2;spacing=0;fillOpacity=50;" parent="1" vertex="1">
          <mxGeometry x="1120" y="680.0000000000001" width="110" height="20" as="geometry" />
        </mxCell>
        <mxCell id="2gesUs9yHsMbc-UvOtqr-21" value="&lt;span style=&quot;font-weight: normal;&quot;&gt;class_like_generalization&lt;/span&gt;" style="swimlane;fontStyle=1;align=center;verticalAlign=middle;childLayout=stackLayout;horizontal=1;startSize=20;horizontalStack=0;resizeParent=1;resizeLast=0;collapsible=0;marginBottom=0;rounded=0;shadow=0;strokeWidth=1;fontFamily=CaskaydiaCove NFM Light;fontSize=10;swimlaneLine=1;fillColor=#dae8fc;glass=0;html=1;noLabel=0;snapToPoint=0;fixDash=0;fillOpacity=50;strokeColor=#6c8ebf;" parent="1" vertex="1">
          <mxGeometry x="580" y="600" width="180" height="40" as="geometry">
            <mxRectangle x="220" y="130" width="160" height="26" as="alternateBounds" />
          </mxGeometry>
        </mxCell>
        <mxCell id="2gesUs9yHsMbc-UvOtqr-23" value="" style="endArrow=none;dashed=1;html=1;rounded=0;fillOpacity=50;fillColor=#dae8fc;strokeColor=#6c8ebf;fontFamily=CaskaydiaCove NFM Light;exitX=0;exitY=0.5;exitDx=0;exitDy=0;strokeWidth=1;" parent="1" source="2gesUs9yHsMbc-UvOtqr-21" edge="1">
          <mxGeometry width="50" height="50" relative="1" as="geometry">
            <mxPoint x="550" y="750" as="sourcePoint" />
            <mxPoint x="430" y="620" as="targetPoint" />
          </mxGeometry>
        </mxCell>
        <mxCell id="2gesUs9yHsMbc-UvOtqr-34" value="" style="endArrow=none;html=1;rounded=1;flowAnimation=0;shadow=0;anchorPointDirection=1;curved=0;fillOpacity=50;fillColor=#dae8fc;strokeColor=#6c8ebf;fontFamily=CaskaydiaCove NFM Light;exitX=1;exitY=0.5;exitDx=0;exitDy=0;entryX=1;entryY=0;entryDx=0;entryDy=0;entryPerimeter=0;" parent="1" source="2gesUs9yHsMbc-UvOtqr-1" target="2gesUs9yHsMbc-UvOtqr-36" edge="1">
          <mxGeometry width="50" height="50" relative="1" as="geometry">
            <mxPoint x="805" y="460.67" as="sourcePoint" />
            <mxPoint x="805" y="380.67" as="targetPoint" />
            <Array as="points" />
          </mxGeometry>
        </mxCell>
        <mxCell id="2gesUs9yHsMbc-UvOtqr-35" value="named_type_definition" style="text;html=1;align=center;verticalAlign=middle;resizable=1;points=[];autosize=1;strokeColor=none;fillColor=none;fontFamily=CaskaydiaCove NFM Light;fontSize=10;fontStyle=0;labelBackgroundColor=default;spacing=0;fillOpacity=50;strokeWidth=0;" parent="1" vertex="1">
          <mxGeometry x="1050" y="800" width="140" height="20" as="geometry" />
        </mxCell>
        <mxCell id="2gesUs9yHsMbc-UvOtqr-36" value="0..*" style="text;html=1;align=center;verticalAlign=middle;resizable=1;points=[];autosize=1;strokeColor=none;fillColor=none;fontFamily=CaskaydiaCove NFM Light;fontSize=8;spacing=0;fillOpacity=50;" parent="1" vertex="1">
          <mxGeometry x="910" y="260" width="40" height="20" as="geometry" />
        </mxCell>
        <mxCell id="2gesUs9yHsMbc-UvOtqr-37" value="1..1 &lt;i&gt;{id}&lt;/i&gt;" style="text;html=1;align=center;verticalAlign=middle;resizable=1;points=[];autosize=1;strokeColor=none;fillColor=none;fontFamily=CaskaydiaCove NFM Light;fontSize=8;spacing=0;fillOpacity=50;" parent="1" vertex="1">
          <mxGeometry x="810" y="259.99999999999994" width="60" height="20" as="geometry" />
        </mxCell>
        <mxCell id="2gesUs9yHsMbc-UvOtqr-38" value="class_identifier" style="text;html=1;align=center;verticalAlign=middle;resizable=1;points=[];autosize=1;strokeColor=none;fillColor=none;fontFamily=CaskaydiaCove NFM Light;fontSize=10;fontStyle=0;labelBackgroundColor=default;spacing=0;fillOpacity=50;strokeWidth=0;" parent="1" vertex="1">
          <mxGeometry x="820" y="240" width="120" height="20" as="geometry" />
        </mxCell>
        <mxCell id="2gesUs9yHsMbc-UvOtqr-42" value="" style="endArrow=block;html=1;rounded=1;curved=0;endFill=0;strokeWidth=1;fontFamily=CaskaydiaCove NFM Light;fontSize=10;startSize=6;endSize=10;fillOpacity=50;fillColor=#fff2cc;strokeColor=#d6b656;entryX=0.5;entryY=1;entryDx=0;entryDy=0;" parent="1" target="2gesUs9yHsMbc-UvOtqr-39" edge="1">
          <mxGeometry width="50" height="50" relative="1" as="geometry">
            <mxPoint x="1140" y="710" as="sourcePoint" />
            <mxPoint x="1140" y="740" as="targetPoint" />
            <Array as="points">
              <mxPoint x="1140" y="700" />
              <mxPoint x="1120" y="700" />
            </Array>
          </mxGeometry>
        </mxCell>
        <mxCell id="2gesUs9yHsMbc-UvOtqr-43" value="" style="endArrow=block;html=1;rounded=1;curved=0;endFill=0;strokeWidth=1;fontFamily=CaskaydiaCove NFM Light;fontSize=10;startSize=6;endSize=10;fillOpacity=50;fillColor=#fff2cc;strokeColor=#d6b656;" parent="1" edge="1">
          <mxGeometry width="50" height="50" relative="1" as="geometry">
            <mxPoint x="1100" y="710" as="sourcePoint" />
            <mxPoint x="1120" y="680" as="targetPoint" />
            <Array as="points">
              <mxPoint x="1100" y="700" />
              <mxPoint x="1120" y="700" />
            </Array>
          </mxGeometry>
        </mxCell>
        <mxCell id="2gesUs9yHsMbc-UvOtqr-47" value="&lt;div&gt;TypeDescription&lt;/div&gt;" style="swimlane;fontStyle=1;align=center;verticalAlign=middle;childLayout=stackLayout;horizontal=1;startSize=20;horizontalStack=0;resizeParent=1;resizeLast=0;collapsible=0;marginBottom=0;rounded=0;shadow=0;strokeWidth=2;fontFamily=CaskaydiaCove NFM Light;fontSize=10;swimlaneLine=1;fillColor=#fff2cc;glass=0;html=1;noLabel=0;snapToPoint=0;fixDash=0;fillOpacity=50;strokeColor=#d6b656;" parent="1" vertex="1">
          <mxGeometry x="1260" y="770" width="140" height="40" as="geometry">
            <mxRectangle x="220" y="130" width="160" height="26" as="alternateBounds" />
          </mxGeometry>
        </mxCell>
        <mxCell id="2gesUs9yHsMbc-UvOtqr-48" value="description: &lt;b&gt;String1&lt;/b&gt;" style="text;align=left;verticalAlign=middle;spacingLeft=4;spacingRight=4;overflow=hidden;rotatable=0;points=[[0,0.5],[1,0.5]];portConstraint=eastwest;fontFamily=CaskaydiaCove NFM Light;fontStyle=0;fontSize=10;html=1;glass=0;fillOpacity=50;" parent="2gesUs9yHsMbc-UvOtqr-47" vertex="1">
          <mxGeometry y="20" width="140" height="20" as="geometry" />
        </mxCell>
        <mxCell id="2gesUs9yHsMbc-UvOtqr-49" value="&lt;div&gt;StructDefinition&lt;/div&gt;" style="swimlane;fontStyle=1;align=center;verticalAlign=middle;childLayout=stackLayout;horizontal=1;startSize=20;horizontalStack=0;resizeParent=1;resizeLast=0;collapsible=0;marginBottom=0;rounded=0;shadow=0;strokeWidth=2;fontFamily=CaskaydiaCove NFM Light;fontSize=10;swimlaneLine=1;fillColor=#fff2cc;glass=0;html=1;noLabel=0;snapToPoint=0;fixDash=0;fillOpacity=50;strokeColor=#d6b656;" parent="1" vertex="1">
          <mxGeometry x="1260" y="650" width="120" height="40" as="geometry">
            <mxRectangle x="220" y="130" width="160" height="26" as="alternateBounds" />
          </mxGeometry>
        </mxCell>
        <mxCell id="2gesUs9yHsMbc-UvOtqr-50" value="" style="endArrow=block;html=1;rounded=1;curved=0;endFill=0;strokeWidth=1;fontFamily=CaskaydiaCove NFM Light;fontSize=10;startSize=6;endSize=10;fillOpacity=50;fillColor=#fff2cc;strokeColor=#d6b656;entryX=1;entryY=0.5;entryDx=0;entryDy=0;exitX=0;exitY=0.75;exitDx=0;exitDy=0;" parent="1" source="2gesUs9yHsMbc-UvOtqr-49" target="2gesUs9yHsMbc-UvOtqr-44" edge="1">
          <mxGeometry width="50" height="50" relative="1" as="geometry">
            <mxPoint x="1260" y="700" as="sourcePoint" />
            <mxPoint x="1200" y="850" as="targetPoint" />
            <Array as="points">
              <mxPoint x="1250" y="680" />
              <mxPoint x="1250" y="730" />
            </Array>
          </mxGeometry>
        </mxCell>
        <mxCell id="2gesUs9yHsMbc-UvOtqr-51" value="" style="endArrow=block;html=1;rounded=1;curved=0;endFill=0;strokeWidth=1;fontFamily=CaskaydiaCove NFM Light;fontSize=10;startSize=6;endSize=10;fillOpacity=50;fillColor=#fff2cc;strokeColor=#d6b656;exitX=0;exitY=0.25;exitDx=0;exitDy=0;" parent="1" source="2gesUs9yHsMbc-UvOtqr-47" edge="1">
          <mxGeometry width="50" height="50" relative="1" as="geometry">
            <mxPoint x="1270" y="790" as="sourcePoint" />
            <mxPoint x="1230" y="730" as="targetPoint" />
            <Array as="points">
              <mxPoint x="1250" y="780" />
              <mxPoint x="1250" y="730" />
            </Array>
          </mxGeometry>
        </mxCell>
        <mxCell id="2gesUs9yHsMbc-UvOtqr-52" value="" style="endArrow=block;html=1;rounded=1;curved=0;endFill=0;strokeWidth=1;fontFamily=CaskaydiaCove NFM Light;fontSize=10;startSize=6;endSize=10;fillOpacity=50;fillColor=#fff2cc;strokeColor=#d6b656;exitX=0;exitY=0.5;exitDx=0;exitDy=0;" parent="1" source="2gesUs9yHsMbc-UvOtqr-46" edge="1">
          <mxGeometry width="50" height="50" relative="1" as="geometry">
            <mxPoint x="1310" y="780" as="sourcePoint" />
            <mxPoint x="1230" y="730" as="targetPoint" />
            <Array as="points" />
          </mxGeometry>
        </mxCell>
        <mxCell id="2gesUs9yHsMbc-UvOtqr-53" value="* {disjoint, complete}" style="text;html=1;align=center;verticalAlign=middle;resizable=1;points=[];autosize=1;strokeColor=none;fillColor=none;fontFamily=CaskaydiaCove NFM Light;fontSize=8;fontStyle=2;spacing=0;fillOpacity=50;" parent="1" vertex="1">
          <mxGeometry x="1230" y="820" width="120" height="20" as="geometry" />
        </mxCell>
        <mxCell id="2gesUs9yHsMbc-UvOtqr-54" value="*" style="text;html=1;align=center;verticalAlign=middle;resizable=1;points=[];autosize=1;strokeColor=none;fillColor=none;fontFamily=CaskaydiaCove NFM Light;fontSize=8;fontStyle=2;spacing=0;fillOpacity=50;" parent="1" vertex="1">
          <mxGeometry x="1230" y="730" width="20" height="20" as="geometry" />
        </mxCell>
        <mxCell id="2gesUs9yHsMbc-UvOtqr-56" value="" style="endArrow=none;html=1;rounded=1;flowAnimation=0;shadow=0;anchorPointDirection=1;curved=0;fillOpacity=50;fillColor=#fff2cc;strokeColor=#d6b656;fontFamily=CaskaydiaCove NFM Light;exitX=0;exitY=0.5;exitDx=0;exitDy=0;entryX=1;entryY=0.5;entryDx=0;entryDy=0;" parent="1" source="2gesUs9yHsMbc-UvOtqr-55" target="2gesUs9yHsMbc-UvOtqr-46" edge="1">
          <mxGeometry width="50" height="50" relative="1" as="geometry">
            <mxPoint x="1385" y="940.0000000000001" as="sourcePoint" />
            <mxPoint x="1385" y="860" as="targetPoint" />
            <Array as="points" />
          </mxGeometry>
        </mxCell>
        <mxCell id="2gesUs9yHsMbc-UvOtqr-57" value="enum_variant" style="text;html=1;align=center;verticalAlign=middle;resizable=1;points=[];autosize=1;strokeColor=none;fillColor=none;fontFamily=CaskaydiaCove NFM Light;fontSize=10;fontStyle=0;labelBackgroundColor=default;spacing=0;fillOpacity=50;strokeWidth=0;" parent="1" vertex="1">
          <mxGeometry x="1370" y="710" width="100" height="20" as="geometry" />
        </mxCell>
        <mxCell id="2gesUs9yHsMbc-UvOtqr-58" value="0..*" style="text;html=1;align=center;verticalAlign=middle;resizable=1;points=[];autosize=1;strokeColor=none;fillColor=none;fontFamily=CaskaydiaCove NFM Light;fontSize=8;spacing=0;fillOpacity=50;" parent="1" vertex="1">
          <mxGeometry x="1440" y="730" width="40" height="20" as="geometry" />
        </mxCell>
        <mxCell id="2gesUs9yHsMbc-UvOtqr-59" value="1..1 &lt;i&gt;{id}&lt;/i&gt;" style="text;html=1;align=center;verticalAlign=middle;resizable=1;points=[];autosize=1;strokeColor=none;fillColor=none;fontFamily=CaskaydiaCove NFM Light;fontSize=8;spacing=0;fillOpacity=50;" parent="1" vertex="1">
          <mxGeometry x="1360" y="730" width="60" height="20" as="geometry" />
        </mxCell>
        <mxCell id="2gesUs9yHsMbc-UvOtqr-46" value="&lt;div&gt;EnumDefinition&lt;/div&gt;" style="swimlane;fontStyle=1;align=center;verticalAlign=middle;childLayout=stackLayout;horizontal=1;startSize=20;horizontalStack=0;resizeParent=1;resizeLast=0;collapsible=0;marginBottom=0;rounded=0;shadow=0;strokeWidth=2;fontFamily=CaskaydiaCove NFM Light;fontSize=10;swimlaneLine=1;fillColor=#fff2cc;glass=0;html=1;noLabel=0;snapToPoint=0;fixDash=0;fillOpacity=50;strokeColor=#d6b656;" parent="1" vertex="1">
          <mxGeometry x="1260" y="710" width="100" height="40" as="geometry">
            <mxRectangle x="220" y="130" width="160" height="26" as="alternateBounds" />
          </mxGeometry>
        </mxCell>
        <mxCell id="2gesUs9yHsMbc-UvOtqr-55" value="&lt;div&gt;EnumVariant&lt;/div&gt;" style="swimlane;fontStyle=1;align=center;verticalAlign=middle;childLayout=stackLayout;horizontal=1;startSize=20;horizontalStack=0;resizeParent=1;resizeLast=0;collapsible=0;marginBottom=0;rounded=0;shadow=0;strokeWidth=2;fontFamily=CaskaydiaCove NFM Light;fontSize=10;swimlaneLine=1;fillColor=#fff2cc;glass=0;html=1;noLabel=0;snapToPoint=0;fixDash=0;fillOpacity=50;strokeColor=#d6b656;" parent="1" vertex="1">
          <mxGeometry x="1480" y="710" width="100" height="40" as="geometry">
            <mxRectangle x="220" y="130" width="160" height="26" as="alternateBounds" />
          </mxGeometry>
        </mxCell>
        <mxCell id="2gesUs9yHsMbc-UvOtqr-60" value="name: &lt;b&gt;Name &lt;/b&gt;&lt;i&gt;{id}&lt;/i&gt;" style="text;align=left;verticalAlign=middle;spacingLeft=4;spacingRight=4;overflow=hidden;rotatable=0;points=[[0,0.5],[1,0.5]];portConstraint=eastwest;fontFamily=CaskaydiaCove NFM Light;fontStyle=0;fontSize=10;html=1;glass=0;fillOpacity=50;" parent="2gesUs9yHsMbc-UvOtqr-55" vertex="1">
          <mxGeometry y="20" width="100" height="20" as="geometry" />
        </mxCell>
        <mxCell id="2gesUs9yHsMbc-UvOtqr-61" value="" style="endArrow=none;html=1;rounded=1;flowAnimation=0;shadow=0;anchorPointDirection=1;curved=0;fillOpacity=50;fillColor=#fff2cc;strokeColor=#d6b656;fontFamily=CaskaydiaCove NFM Light;exitX=0.5;exitY=1;exitDx=0;exitDy=0;entryX=0.5;entryY=1;entryDx=0;entryDy=0;exitPerimeter=0;" parent="1" source="2gesUs9yHsMbc-UvOtqr-40" target="2gesUs9yHsMbc-UvOtqr-44" edge="1">
          <mxGeometry width="50" height="50" relative="1" as="geometry">
            <mxPoint x="1160" y="910.0000000000001" as="sourcePoint" />
            <mxPoint x="1160" y="830" as="targetPoint" />
            <Array as="points">
              <mxPoint x="1060" y="800" />
              <mxPoint x="1180" y="800" />
            </Array>
          </mxGeometry>
        </mxCell>
        <mxCell id="2gesUs9yHsMbc-UvOtqr-63" value="1..1" style="text;html=1;align=center;verticalAlign=middle;resizable=1;points=[];autosize=1;strokeColor=none;fillColor=none;fontFamily=CaskaydiaCove NFM Light;fontSize=8;spacing=0;fillOpacity=50;" parent="1" vertex="1">
          <mxGeometry x="1180" y="750" width="40" height="20" as="geometry" />
        </mxCell>
        <mxCell id="2gesUs9yHsMbc-UvOtqr-41" value="NamedType" style="swimlane;fontStyle=1;align=center;verticalAlign=middle;childLayout=stackLayout;horizontal=1;startSize=20;horizontalStack=0;resizeParent=1;resizeLast=0;collapsible=0;marginBottom=0;rounded=0;shadow=0;strokeWidth=2;fontFamily=CaskaydiaCove NFM Light;fontSize=10;swimlaneLine=1;fillColor=#fff2cc;glass=0;html=1;noLabel=0;snapToPoint=0;fixDash=0;fillOpacity=50;strokeColor=#d6b656;" parent="1" vertex="1">
          <mxGeometry x="1010" y="710" width="100" height="40" as="geometry">
            <mxRectangle x="220" y="130" width="160" height="26" as="alternateBounds" />
          </mxGeometry>
        </mxCell>
        <mxCell id="2gesUs9yHsMbc-UvOtqr-40" value="name: &lt;b&gt;Name &lt;/b&gt;&lt;i&gt;{id}&lt;/i&gt;" style="text;align=left;verticalAlign=middle;spacingLeft=4;spacingRight=4;overflow=hidden;rotatable=0;points=[[0,0.5],[1,0.5]];portConstraint=eastwest;fontFamily=CaskaydiaCove NFM Light;fontStyle=0;fontSize=10;html=1;glass=0;fillOpacity=50;" parent="2gesUs9yHsMbc-UvOtqr-41" vertex="1">
          <mxGeometry y="20" width="100" height="20" as="geometry" />
        </mxCell>
        <mxCell id="2gesUs9yHsMbc-UvOtqr-44" value="TypeDefinition" style="swimlane;fontStyle=1;align=center;verticalAlign=middle;childLayout=stackLayout;horizontal=1;startSize=20;horizontalStack=0;resizeParent=1;resizeLast=0;collapsible=0;marginBottom=0;rounded=0;shadow=0;strokeWidth=2;fontFamily=CaskaydiaCove NFM Light;fontSize=10;swimlaneLine=1;fillColor=#fff2cc;glass=0;html=1;noLabel=0;snapToPoint=0;fixDash=0;fillOpacity=50;strokeColor=#d6b656;" parent="1" vertex="1">
          <mxGeometry x="1130" y="710" width="100" height="40" as="geometry">
            <mxRectangle x="220" y="130" width="160" height="26" as="alternateBounds" />
          </mxGeometry>
        </mxCell>
        <mxCell id="2gesUs9yHsMbc-UvOtqr-65" value="?..?" style="text;html=1;align=center;verticalAlign=middle;resizable=1;points=[];autosize=1;strokeColor=none;fillColor=none;fontFamily=CaskaydiaCove NFM Light;fontSize=8;spacing=0;fillOpacity=50;" parent="1" vertex="1">
          <mxGeometry x="1060" y="750" width="40" height="20" as="geometry" />
        </mxCell>
        <mxCell id="2gesUs9yHsMbc-UvOtqr-67" value="" style="endArrow=none;html=1;rounded=1;flowAnimation=0;shadow=0;anchorPointDirection=1;curved=0;fillOpacity=50;fillColor=#fff2cc;strokeColor=#d6b656;fontFamily=CaskaydiaCove NFM Light;entryX=0.5;entryY=0;entryDx=0;entryDy=0;" parent="1" target="2gesUs9yHsMbc-UvOtqr-49" edge="1">
          <mxGeometry width="50" height="50" relative="1" as="geometry">
            <mxPoint x="1319.76" y="470" as="sourcePoint" />
            <mxPoint x="1319.76" y="550" as="targetPoint" />
            <Array as="points" />
          </mxGeometry>
        </mxCell>
        <mxCell id="2gesUs9yHsMbc-UvOtqr-68" value="field_struct" style="text;html=1;align=center;verticalAlign=middle;resizable=1;points=[];autosize=1;strokeColor=none;fillColor=none;fontFamily=CaskaydiaCove NFM Light;fontSize=10;fontStyle=0;labelBackgroundColor=default;spacing=0;fillOpacity=50;strokeWidth=0;" parent="1" vertex="1">
          <mxGeometry x="1275" y="550" width="90" height="20" as="geometry" />
        </mxCell>
        <mxCell id="2gesUs9yHsMbc-UvOtqr-69" value="0..*" style="text;html=1;align=center;verticalAlign=middle;resizable=1;points=[];autosize=1;strokeColor=none;fillColor=none;fontFamily=CaskaydiaCove NFM Light;fontSize=8;spacing=0;fillOpacity=50;" parent="1" vertex="1">
          <mxGeometry x="1320" y="470" width="40" height="20" as="geometry" />
        </mxCell>
        <mxCell id="2gesUs9yHsMbc-UvOtqr-70" value="1..1 &lt;i&gt;{id}&lt;/i&gt;" style="text;html=1;align=center;verticalAlign=middle;resizable=1;points=[];autosize=1;strokeColor=none;fillColor=none;fontFamily=CaskaydiaCove NFM Light;fontSize=8;spacing=0;fillOpacity=50;" parent="1" vertex="1">
          <mxGeometry x="1320" y="630" width="60" height="20" as="geometry" />
        </mxCell>
        <mxCell id="2gesUs9yHsMbc-UvOtqr-76" value="" style="endArrow=none;html=1;rounded=1;flowAnimation=0;shadow=0;anchorPointDirection=1;curved=0;fillOpacity=50;fillColor=#dae8fc;strokeColor=#6c8ebf;fontFamily=CaskaydiaCove NFM Light;exitX=1;exitY=0.5;exitDx=0;exitDy=0;entryX=1;entryY=0;entryDx=0;entryDy=0;entryPerimeter=0;" parent="1" target="2gesUs9yHsMbc-UvOtqr-77" edge="1">
          <mxGeometry width="50" height="50" relative="1" as="geometry">
            <mxPoint x="270" y="260" as="sourcePoint" />
            <mxPoint x="265" y="380.67" as="targetPoint" />
            <Array as="points" />
          </mxGeometry>
        </mxCell>
        <mxCell id="2gesUs9yHsMbc-UvOtqr-77" value="2..2" style="text;html=1;align=center;verticalAlign=middle;resizable=1;points=[];autosize=1;strokeColor=none;fillColor=none;fontFamily=CaskaydiaCove NFM Light;fontSize=8;spacing=0;fillOpacity=50;" parent="1" vertex="1">
          <mxGeometry x="370" y="260" width="40" height="20" as="geometry" />
        </mxCell>
        <mxCell id="2gesUs9yHsMbc-UvOtqr-78" value="1..1 &lt;i&gt;{id}&lt;/i&gt;" style="text;html=1;align=center;verticalAlign=middle;resizable=1;points=[];autosize=1;strokeColor=none;fillColor=none;fontFamily=CaskaydiaCove NFM Light;fontSize=8;spacing=0;fillOpacity=50;" parent="1" vertex="1">
          <mxGeometry x="270" y="259.99999999999994" width="60" height="20" as="geometry" />
        </mxCell>
        <mxCell id="2gesUs9yHsMbc-UvOtqr-79" value="association_role" style="text;html=1;align=center;verticalAlign=middle;resizable=1;points=[];autosize=1;strokeColor=none;fillColor=none;fontFamily=CaskaydiaCove NFM Light;fontSize=10;fontStyle=0;labelBackgroundColor=default;spacing=0;fillOpacity=50;strokeWidth=0;" parent="1" vertex="1">
          <mxGeometry x="285" y="240" width="110" height="20" as="geometry" />
        </mxCell>
        <mxCell id="2gesUs9yHsMbc-UvOtqr-80" value="" style="endArrow=none;html=1;rounded=1;flowAnimation=0;shadow=0;anchorPointDirection=1;curved=0;fillOpacity=50;fillColor=#dae8fc;strokeColor=#6c8ebf;fontFamily=CaskaydiaCove NFM Light;exitX=1;exitY=0.5;exitDx=0;exitDy=0;entryX=1;entryY=0;entryDx=0;entryDy=0;entryPerimeter=0;" parent="1" target="2gesUs9yHsMbc-UvOtqr-81" edge="1">
          <mxGeometry width="50" height="50" relative="1" as="geometry">
            <mxPoint x="570" y="260" as="sourcePoint" />
            <mxPoint x="565" y="380.67" as="targetPoint" />
            <Array as="points" />
          </mxGeometry>
        </mxCell>
        <mxCell id="2gesUs9yHsMbc-UvOtqr-81" value="1..1" style="text;html=1;align=center;verticalAlign=middle;resizable=1;points=[];autosize=1;strokeColor=none;fillColor=none;fontFamily=CaskaydiaCove NFM Light;fontSize=8;spacing=0;fillOpacity=50;" parent="1" vertex="1">
          <mxGeometry x="670" y="260" width="40" height="20" as="geometry" />
        </mxCell>
        <mxCell id="2gesUs9yHsMbc-UvOtqr-82" value="0..*" style="text;html=1;align=center;verticalAlign=middle;resizable=1;points=[];autosize=1;strokeColor=none;fillColor=none;fontFamily=CaskaydiaCove NFM Light;fontSize=8;spacing=0;fillOpacity=50;" parent="1" vertex="1">
          <mxGeometry x="570" y="259.99999999999994" width="40" height="20" as="geometry" />
        </mxCell>
        <mxCell id="2gesUs9yHsMbc-UvOtqr-83" value="class_role" style="text;html=1;align=center;verticalAlign=middle;resizable=1;points=[];autosize=1;strokeColor=none;fillColor=none;fontFamily=CaskaydiaCove NFM Light;fontSize=10;fontStyle=0;labelBackgroundColor=default;spacing=0;fillOpacity=50;strokeWidth=0;" parent="1" vertex="1">
          <mxGeometry x="600" y="240" width="80" height="20" as="geometry" />
        </mxCell>
        <mxCell id="2gesUs9yHsMbc-UvOtqr-84" value="" style="endArrow=none;html=1;rounded=0;flowAnimation=0;shadow=0;anchorPointDirection=1;curved=0;fillOpacity=50;fillColor=#dae8fc;strokeColor=#6c8ebf;fontFamily=CaskaydiaCove NFM Light;exitX=0.5;exitY=0;exitDx=0;exitDy=0;entryX=0.5;entryY=0;entryDx=0;entryDy=0;" parent="1" source="2gesUs9yHsMbc-UvOtqr-73" target="2gesUs9yHsMbc-UvOtqr-32" edge="1">
          <mxGeometry width="50" height="50" relative="1" as="geometry">
            <mxPoint x="540" y="110" as="sourcePoint" />
            <mxPoint x="535" y="230.67000000000002" as="targetPoint" />
            <Array as="points">
              <mxPoint x="490" y="210" />
              <mxPoint x="1000" y="210" />
            </Array>
          </mxGeometry>
        </mxCell>
        <mxCell id="2gesUs9yHsMbc-UvOtqr-85" value="0..*" style="text;html=1;align=center;verticalAlign=middle;resizable=1;points=[];autosize=1;strokeColor=none;fillColor=none;fontFamily=CaskaydiaCove NFM Light;fontSize=8;spacing=0;fillOpacity=50;" parent="1" vertex="1">
          <mxGeometry x="490" y="210" width="40" height="20" as="geometry" />
        </mxCell>
        <mxCell id="2gesUs9yHsMbc-UvOtqr-86" value="0..1" style="text;html=1;align=center;verticalAlign=middle;resizable=1;points=[];autosize=1;strokeColor=none;fillColor=none;fontFamily=CaskaydiaCove NFM Light;fontSize=8;spacing=0;fillOpacity=50;" parent="1" vertex="1">
          <mxGeometry x="960" y="219.99999999999994" width="40" height="20" as="geometry" />
        </mxCell>
        <mxCell id="2gesUs9yHsMbc-UvOtqr-87" value="identifier_role" style="text;html=1;align=center;verticalAlign=middle;resizable=1;points=[];autosize=1;strokeColor=none;fillColor=none;fontFamily=CaskaydiaCove NFM Light;fontSize=10;fontStyle=0;labelBackgroundColor=default;spacing=0;fillOpacity=50;strokeWidth=0;" parent="1" vertex="1">
          <mxGeometry x="690" y="190" width="110" height="20" as="geometry" />
        </mxCell>
        <mxCell id="2gesUs9yHsMbc-UvOtqr-73" value="Role" style="swimlane;fontStyle=1;align=center;verticalAlign=middle;childLayout=stackLayout;horizontal=1;startSize=20;horizontalStack=0;resizeParent=1;resizeLast=0;collapsible=0;marginBottom=0;rounded=0;shadow=0;strokeWidth=2;fontFamily=CaskaydiaCove NFM Light;fontSize=10;swimlaneLine=1;fillColor=#dae8fc;glass=0;html=1;noLabel=0;snapToPoint=0;fixDash=0;fillOpacity=50;strokeColor=#6c8ebf;" parent="1" vertex="1">
          <mxGeometry x="410" y="230" width="160" height="60" as="geometry">
            <mxRectangle x="220" y="130" width="160" height="26" as="alternateBounds" />
          </mxGeometry>
        </mxCell>
        <mxCell id="2gesUs9yHsMbc-UvOtqr-74" value="name: &lt;b&gt;Name &lt;/b&gt;&lt;i style=&quot;&quot;&gt;{id} &lt;/i&gt;[0..1]" style="text;align=left;verticalAlign=middle;spacingLeft=4;spacingRight=4;overflow=hidden;rotatable=0;points=[[0,0.5],[1,0.5]];portConstraint=eastwest;fontFamily=CaskaydiaCove NFM Light;fontStyle=0;fontSize=10;html=1;glass=0;fillOpacity=50;" parent="2gesUs9yHsMbc-UvOtqr-73" vertex="1">
          <mxGeometry y="20" width="160" height="20" as="geometry" />
        </mxCell>
        <mxCell id="2gesUs9yHsMbc-UvOtqr-75" value="multiplicty: &lt;b&gt;Multiplicity&lt;/b&gt;" style="text;align=left;verticalAlign=middle;spacingLeft=4;spacingRight=4;overflow=hidden;rotatable=0;points=[[0,0.5],[1,0.5]];portConstraint=eastwest;fontFamily=CaskaydiaCove NFM Light;fontStyle=0;fontSize=10;html=1;glass=0;fillOpacity=50;" parent="2gesUs9yHsMbc-UvOtqr-73" vertex="1">
          <mxGeometry y="40" width="160" height="20" as="geometry" />
        </mxCell>
        <mxCell id="2gesUs9yHsMbc-UvOtqr-92" value="" style="endArrow=none;html=1;rounded=1;flowAnimation=0;shadow=0;anchorPointDirection=1;curved=0;fillOpacity=50;fillColor=#dae8fc;strokeColor=#6c8ebf;fontFamily=CaskaydiaCove NFM Light;entryX=0;entryY=0;entryDx=0;entryDy=0;entryPerimeter=0;exitX=1;exitY=0.5;exitDx=0;exitDy=0;" parent="1" source="2gesUs9yHsMbc-UvOtqr-127" target="2gesUs9yHsMbc-UvOtqr-91" edge="1">
          <mxGeometry width="50" height="50" relative="1" as="geometry">
            <mxPoint x="730" y="450" as="sourcePoint" />
            <mxPoint x="675" y="590.6700000000001" as="targetPoint" />
            <Array as="points" />
          </mxGeometry>
        </mxCell>
        <mxCell id="2gesUs9yHsMbc-UvOtqr-93" value="0..*" style="text;html=1;align=center;verticalAlign=middle;resizable=1;points=[];autosize=1;strokeColor=none;fillColor=none;fontFamily=CaskaydiaCove NFM Light;fontSize=8;spacing=0;fillOpacity=50;" parent="1" vertex="1">
          <mxGeometry x="970" y="450" width="40" height="20" as="geometry" />
        </mxCell>
        <mxCell id="2gesUs9yHsMbc-UvOtqr-94" value="1..1 &lt;i&gt;{id}&lt;/i&gt;" style="text;html=1;align=center;verticalAlign=middle;resizable=1;points=[];autosize=1;strokeColor=none;fillColor=none;fontFamily=CaskaydiaCove NFM Light;fontSize=8;spacing=0;fillOpacity=50;" parent="1" vertex="1">
          <mxGeometry x="580" y="449.99999999999994" width="60" height="20" as="geometry" />
        </mxCell>
        <mxCell id="2gesUs9yHsMbc-UvOtqr-95" value="class_like_field" style="text;html=1;align=center;verticalAlign=middle;resizable=1;points=[];autosize=1;strokeColor=none;fillColor=none;fontFamily=CaskaydiaCove NFM Light;fontSize=10;fontStyle=0;labelBackgroundColor=default;spacing=0;fillOpacity=50;strokeWidth=0;" parent="1" vertex="1">
          <mxGeometry x="725" y="430" width="110" height="20" as="geometry" />
        </mxCell>
        <mxCell id="2gesUs9yHsMbc-UvOtqr-1" value="Class" style="swimlane;fontStyle=1;align=center;verticalAlign=middle;childLayout=stackLayout;horizontal=1;startSize=20;horizontalStack=0;resizeParent=1;resizeLast=0;collapsible=0;marginBottom=0;rounded=0;shadow=0;strokeWidth=2;fontFamily=CaskaydiaCove NFM Light;fontSize=10;swimlaneLine=1;fillColor=#e1d5e7;glass=0;html=1;noLabel=0;snapToPoint=0;fixDash=0;fillOpacity=50;strokeColor=#9673a6;" parent="1" vertex="1">
          <mxGeometry x="710" y="240" width="100" height="40" as="geometry">
            <mxRectangle x="220" y="130" width="160" height="26" as="alternateBounds" />
          </mxGeometry>
        </mxCell>
        <mxCell id="2gesUs9yHsMbc-UvOtqr-2" value="name: &lt;b&gt;Name &lt;/b&gt;&lt;i&gt;{id}&lt;/i&gt;" style="text;align=left;verticalAlign=middle;spacingLeft=4;spacingRight=4;overflow=hidden;rotatable=0;points=[[0,0.5],[1,0.5]];portConstraint=eastwest;fontFamily=CaskaydiaCove NFM Light;fontStyle=0;fontSize=10;html=1;glass=0;fillOpacity=50;" parent="2gesUs9yHsMbc-UvOtqr-1" vertex="1">
          <mxGeometry y="20" width="100" height="20" as="geometry" />
        </mxCell>
        <mxCell id="2gesUs9yHsMbc-UvOtqr-90" value="ClassField" style="swimlane;fontStyle=1;align=center;verticalAlign=middle;childLayout=stackLayout;horizontal=1;startSize=20;horizontalStack=0;resizeParent=1;resizeLast=0;collapsible=0;marginBottom=0;rounded=0;shadow=0;strokeWidth=2;fontFamily=CaskaydiaCove NFM Light;fontSize=10;swimlaneLine=1;fillColor=#d5e8d4;glass=0;html=1;noLabel=0;snapToPoint=0;fixDash=0;fillOpacity=50;strokeColor=#82b366;" parent="1" vertex="1">
          <mxGeometry x="1010" y="430" width="100" height="40" as="geometry">
            <mxRectangle x="220" y="130" width="160" height="26" as="alternateBounds" />
          </mxGeometry>
        </mxCell>
        <mxCell id="2gesUs9yHsMbc-UvOtqr-91" value="name: &lt;b&gt;Name &lt;/b&gt;&lt;i&gt;{id}&lt;/i&gt;" style="text;align=left;verticalAlign=middle;spacingLeft=4;spacingRight=4;overflow=hidden;rotatable=0;points=[[0,0.5],[1,0.5]];portConstraint=eastwest;fontFamily=CaskaydiaCove NFM Light;fontStyle=0;fontSize=10;html=1;glass=0;fillOpacity=50;" parent="2gesUs9yHsMbc-UvOtqr-90" vertex="1">
          <mxGeometry y="20" width="100" height="20" as="geometry" />
        </mxCell>
        <mxCell id="2gesUs9yHsMbc-UvOtqr-96" value="" style="endArrow=none;html=1;rounded=1;flowAnimation=0;shadow=0;anchorPointDirection=1;curved=0;fillOpacity=50;fillColor=#dae8fc;strokeColor=#6c8ebf;fontFamily=CaskaydiaCove NFM Light;exitX=0.5;exitY=0;exitDx=0;exitDy=0;entryX=0.5;entryY=1;entryDx=0;entryDy=0;entryPerimeter=0;" parent="1" edge="1">
          <mxGeometry width="50" height="50" relative="1" as="geometry">
            <mxPoint x="1000" y="360.0000000000001" as="sourcePoint" />
            <mxPoint x="1000" y="280" as="targetPoint" />
            <Array as="points" />
          </mxGeometry>
        </mxCell>
        <mxCell id="2gesUs9yHsMbc-UvOtqr-97" value="attribute_identifier" style="text;html=1;align=center;verticalAlign=middle;resizable=1;points=[];autosize=1;strokeColor=none;fillColor=none;fontFamily=CaskaydiaCove NFM Light;fontSize=10;fontStyle=0;labelBackgroundColor=default;spacing=0;fillOpacity=50;strokeWidth=0;" parent="1" vertex="1">
          <mxGeometry x="930" y="310" width="140" height="20" as="geometry" />
        </mxCell>
        <mxCell id="2gesUs9yHsMbc-UvOtqr-98" value="0..*" style="text;html=1;align=center;verticalAlign=middle;resizable=1;points=[];autosize=1;strokeColor=none;fillColor=none;fontFamily=CaskaydiaCove NFM Light;fontSize=8;spacing=0;fillOpacity=50;" parent="1" vertex="1">
          <mxGeometry x="1000" y="340" width="40" height="20" as="geometry" />
        </mxCell>
        <mxCell id="2gesUs9yHsMbc-UvOtqr-99" value="0..*" style="text;html=1;align=center;verticalAlign=middle;resizable=1;points=[];autosize=1;strokeColor=none;fillColor=none;fontFamily=CaskaydiaCove NFM Light;fontSize=8;spacing=0;fillOpacity=50;" parent="1" vertex="1">
          <mxGeometry x="1000" y="280.3299999999999" width="40" height="20" as="geometry" />
        </mxCell>
        <mxCell id="2gesUs9yHsMbc-UvOtqr-32" value="Identifier" style="swimlane;fontStyle=1;align=center;verticalAlign=middle;childLayout=stackLayout;horizontal=1;startSize=20;horizontalStack=0;resizeParent=1;resizeLast=0;collapsible=0;marginBottom=0;rounded=0;shadow=0;strokeWidth=2;fontFamily=CaskaydiaCove NFM Light;fontSize=10;swimlaneLine=1;fillColor=#dae8fc;glass=0;html=1;noLabel=0;snapToPoint=0;fixDash=0;fillOpacity=50;strokeColor=#6c8ebf;" parent="1" vertex="1">
          <mxGeometry x="950" y="240" width="100" height="40" as="geometry">
            <mxRectangle x="220" y="130" width="160" height="26" as="alternateBounds" />
          </mxGeometry>
        </mxCell>
        <mxCell id="2gesUs9yHsMbc-UvOtqr-33" value="name: &lt;b&gt;Name &lt;/b&gt;&lt;i&gt;{id}&lt;/i&gt;" style="text;align=left;verticalAlign=middle;spacingLeft=4;spacingRight=4;overflow=hidden;rotatable=0;points=[[0,0.5],[1,0.5]];portConstraint=eastwest;fontFamily=CaskaydiaCove NFM Light;fontStyle=0;fontSize=10;html=1;glass=0;fillOpacity=50;" parent="2gesUs9yHsMbc-UvOtqr-32" vertex="1">
          <mxGeometry y="20" width="100" height="20" as="geometry" />
        </mxCell>
        <mxCell id="2gesUs9yHsMbc-UvOtqr-88" value="Attribute" style="swimlane;fontStyle=1;align=center;verticalAlign=middle;childLayout=stackLayout;horizontal=1;startSize=20;horizontalStack=0;resizeParent=1;resizeLast=0;collapsible=0;marginBottom=0;rounded=0;shadow=0;strokeWidth=2;fontFamily=CaskaydiaCove NFM Light;fontSize=10;swimlaneLine=1;fillColor=#d5e8d4;glass=0;html=1;noLabel=0;snapToPoint=0;fixDash=0;fillOpacity=50;strokeColor=#82b366;" parent="1" vertex="1">
          <mxGeometry x="950" y="360" width="100" height="40" as="geometry">
            <mxRectangle x="220" y="130" width="160" height="26" as="alternateBounds" />
          </mxGeometry>
        </mxCell>
        <mxCell id="2gesUs9yHsMbc-UvOtqr-100" value="" style="endArrow=block;html=1;rounded=1;curved=0;endFill=0;strokeWidth=1;fontFamily=CaskaydiaCove NFM Light;fontSize=10;startSize=6;endSize=10;fillOpacity=50;fillColor=#d5e8d4;strokeColor=#82b366;entryX=0.5;entryY=1;entryDx=0;entryDy=0;" parent="1" edge="1">
          <mxGeometry width="50" height="50" relative="1" as="geometry">
            <mxPoint x="1080" y="400" as="sourcePoint" />
            <mxPoint x="1060" y="430" as="targetPoint" />
            <Array as="points">
              <mxPoint x="1080" y="410" />
              <mxPoint x="1060" y="410" />
            </Array>
          </mxGeometry>
        </mxCell>
        <mxCell id="2gesUs9yHsMbc-UvOtqr-101" value="" style="endArrow=block;html=1;rounded=1;curved=0;endFill=0;strokeWidth=1;fontFamily=CaskaydiaCove NFM Light;fontSize=10;startSize=6;endSize=10;fillOpacity=50;fillColor=#d5e8d4;strokeColor=#82b366;" parent="1" edge="1">
          <mxGeometry width="50" height="50" relative="1" as="geometry">
            <mxPoint x="1040" y="400" as="sourcePoint" />
            <mxPoint x="1060" y="430" as="targetPoint" />
            <Array as="points">
              <mxPoint x="1040" y="410" />
              <mxPoint x="1060" y="410" />
            </Array>
          </mxGeometry>
        </mxCell>
        <mxCell id="2gesUs9yHsMbc-UvOtqr-102" value="{disjoint, complete}" style="text;html=1;align=center;verticalAlign=middle;resizable=1;points=[];autosize=1;strokeColor=none;fillColor=none;fontFamily=CaskaydiaCove NFM Light;fontSize=8;fontStyle=2;spacing=0;fillOpacity=50;" parent="1" vertex="1">
          <mxGeometry x="1060" y="410" width="110" height="20" as="geometry" />
        </mxCell>
        <mxCell id="2gesUs9yHsMbc-UvOtqr-105" value="" style="endArrow=block;html=1;rounded=1;curved=0;endFill=0;strokeWidth=1;fontFamily=CaskaydiaCove NFM Light;fontSize=10;startSize=6;endSize=10;fillOpacity=50;fillColor=#d5e8d4;strokeColor=#82b366;entryX=0.5;entryY=1;entryDx=0;entryDy=0;" parent="1" edge="1">
          <mxGeometry width="50" height="50" relative="1" as="geometry">
            <mxPoint x="1140" y="470" as="sourcePoint" />
            <mxPoint x="1120" y="500" as="targetPoint" />
            <Array as="points">
              <mxPoint x="1140" y="480" />
              <mxPoint x="1120" y="480" />
            </Array>
          </mxGeometry>
        </mxCell>
        <mxCell id="2gesUs9yHsMbc-UvOtqr-106" value="" style="endArrow=block;html=1;rounded=1;curved=0;endFill=0;strokeWidth=1;fontFamily=CaskaydiaCove NFM Light;fontSize=10;startSize=6;endSize=10;fillOpacity=50;fillColor=#d5e8d4;strokeColor=#82b366;" parent="1" edge="1">
          <mxGeometry width="50" height="50" relative="1" as="geometry">
            <mxPoint x="1100" y="470" as="sourcePoint" />
            <mxPoint x="1120" y="500" as="targetPoint" />
            <Array as="points">
              <mxPoint x="1100" y="480" />
              <mxPoint x="1120" y="480" />
            </Array>
          </mxGeometry>
        </mxCell>
        <mxCell id="2gesUs9yHsMbc-UvOtqr-107" value="{disjoint, complete}" style="text;html=1;align=center;verticalAlign=middle;resizable=1;points=[];autosize=1;strokeColor=none;fillColor=none;fontFamily=CaskaydiaCove NFM Light;fontSize=8;fontStyle=2;spacing=0;fillOpacity=50;" parent="1" vertex="1">
          <mxGeometry x="1120" y="480" width="110" height="20" as="geometry" />
        </mxCell>
        <mxCell id="2gesUs9yHsMbc-UvOtqr-108" value="" style="endArrow=none;html=1;rounded=1;flowAnimation=0;shadow=0;anchorPointDirection=1;curved=0;fillOpacity=50;fillColor=#d5e8d4;strokeColor=#82b366;fontFamily=CaskaydiaCove NFM Light;exitX=0.857;exitY=0;exitDx=0;exitDy=0;entryX=1;entryY=0.5;entryDx=0;entryDy=0;exitPerimeter=0;" parent="1" source="2gesUs9yHsMbc-UvOtqr-103" target="2gesUs9yHsMbc-UvOtqr-89" edge="1">
          <mxGeometry width="50" height="50" relative="1" as="geometry">
            <mxPoint x="1300" y="370.0000000000001" as="sourcePoint" />
            <mxPoint x="1300" y="290" as="targetPoint" />
            <Array as="points">
              <mxPoint x="1250" y="380" />
            </Array>
          </mxGeometry>
        </mxCell>
        <mxCell id="2gesUs9yHsMbc-UvOtqr-109" value="operation_parameter" style="text;html=1;align=center;verticalAlign=middle;resizable=1;points=[];autosize=1;strokeColor=none;fillColor=none;fontFamily=CaskaydiaCove NFM Light;fontSize=10;fontStyle=0;labelBackgroundColor=default;spacing=0;fillOpacity=50;strokeWidth=0;" parent="1" vertex="1">
          <mxGeometry x="1170" y="360" width="130" height="20" as="geometry" />
        </mxCell>
        <mxCell id="2gesUs9yHsMbc-UvOtqr-110" value="0..*" style="text;html=1;align=center;verticalAlign=middle;resizable=1;points=[];autosize=1;strokeColor=none;fillColor=none;fontFamily=CaskaydiaCove NFM Light;fontSize=8;spacing=0;fillOpacity=50;" parent="1" vertex="1">
          <mxGeometry x="1210" y="410" width="40" height="20" as="geometry" />
        </mxCell>
        <mxCell id="2gesUs9yHsMbc-UvOtqr-111" value="1..1 &lt;i&gt;{id}&lt;/i&gt;" style="text;html=1;align=center;verticalAlign=middle;resizable=1;points=[];autosize=1;strokeColor=none;fillColor=none;fontFamily=CaskaydiaCove NFM Light;fontSize=8;spacing=0;fillOpacity=50;" parent="1" vertex="1">
          <mxGeometry x="1170" y="379.99999999999994" width="60" height="20" as="geometry" />
        </mxCell>
        <mxCell id="2gesUs9yHsMbc-UvOtqr-89" value="Operation" style="swimlane;fontStyle=1;align=center;verticalAlign=middle;childLayout=stackLayout;horizontal=1;startSize=20;horizontalStack=0;resizeParent=1;resizeLast=0;collapsible=0;marginBottom=0;rounded=0;shadow=0;strokeWidth=2;fontFamily=CaskaydiaCove NFM Light;fontSize=10;swimlaneLine=1;fillColor=#d5e8d4;glass=0;html=1;noLabel=0;snapToPoint=0;fixDash=0;fillOpacity=50;strokeColor=#82b366;" parent="1" vertex="1">
          <mxGeometry x="1070" y="360" width="100" height="40" as="geometry">
            <mxRectangle x="220" y="130" width="160" height="26" as="alternateBounds" />
          </mxGeometry>
        </mxCell>
        <mxCell id="2gesUs9yHsMbc-UvOtqr-103" value="OperationParameter" style="swimlane;fontStyle=1;align=center;verticalAlign=middle;childLayout=stackLayout;horizontal=1;startSize=20;horizontalStack=0;resizeParent=1;resizeLast=0;collapsible=0;marginBottom=0;rounded=0;shadow=0;strokeWidth=2;fontFamily=CaskaydiaCove NFM Light;fontSize=10;swimlaneLine=1;fillColor=#d5e8d4;glass=0;html=1;noLabel=0;snapToPoint=0;fixDash=0;fillOpacity=50;strokeColor=#82b366;" parent="1" vertex="1">
          <mxGeometry x="1130" y="430" width="140" height="40" as="geometry">
            <mxRectangle x="220" y="130" width="160" height="26" as="alternateBounds" />
          </mxGeometry>
        </mxCell>
        <mxCell id="2gesUs9yHsMbc-UvOtqr-104" value="name: &lt;b&gt;Name &lt;/b&gt;&lt;i&gt;{id}&lt;/i&gt;" style="text;align=left;verticalAlign=middle;spacingLeft=4;spacingRight=4;overflow=hidden;rotatable=0;points=[[0,0.5],[1,0.5]];portConstraint=eastwest;fontFamily=CaskaydiaCove NFM Light;fontStyle=0;fontSize=10;html=1;glass=0;fillOpacity=50;" parent="2gesUs9yHsMbc-UvOtqr-103" vertex="1">
          <mxGeometry y="20" width="140" height="20" as="geometry" />
        </mxCell>
        <mxCell id="2gesUs9yHsMbc-UvOtqr-114" value="" style="endArrow=none;html=1;rounded=1;flowAnimation=0;shadow=0;anchorPointDirection=1;curved=0;fillOpacity=50;fillColor=#fff2cc;strokeColor=#d6b656;fontFamily=CaskaydiaCove NFM Light;exitX=0.5;exitY=0;exitDx=0;exitDy=0;entryX=0.5;entryY=1;entryDx=0;entryDy=0;entryPerimeter=0;" parent="1" source="2gesUs9yHsMbc-UvOtqr-39" target="2gesUs9yHsMbc-UvOtqr-188" edge="1">
          <mxGeometry width="50" height="50" relative="1" as="geometry">
            <mxPoint x="1120" y="620" as="sourcePoint" />
            <mxPoint x="1120" y="540" as="targetPoint" />
            <Array as="points" />
          </mxGeometry>
        </mxCell>
        <mxCell id="2gesUs9yHsMbc-UvOtqr-115" value="object_type" style="text;html=1;align=center;verticalAlign=middle;resizable=1;points=[];autosize=1;strokeColor=none;fillColor=none;fontFamily=CaskaydiaCove NFM Light;fontSize=10;fontStyle=0;labelBackgroundColor=default;spacing=0;fillOpacity=50;strokeWidth=0;" parent="1" vertex="1">
          <mxGeometry x="1080" y="590" width="80" height="20" as="geometry" />
        </mxCell>
        <mxCell id="2gesUs9yHsMbc-UvOtqr-116" value="1..1" style="text;html=1;align=center;verticalAlign=middle;resizable=1;points=[];autosize=1;strokeColor=none;fillColor=none;fontFamily=CaskaydiaCove NFM Light;fontSize=8;spacing=0;fillOpacity=50;" parent="1" vertex="1">
          <mxGeometry x="1120" y="620" width="40" height="20" as="geometry" />
        </mxCell>
        <mxCell id="2gesUs9yHsMbc-UvOtqr-117" value="0..*" style="text;html=1;align=center;verticalAlign=middle;resizable=1;points=[];autosize=1;strokeColor=none;fillColor=none;fontFamily=CaskaydiaCove NFM Light;fontSize=8;spacing=0;fillOpacity=50;" parent="1" vertex="1">
          <mxGeometry x="1120" y="559.9999999999999" width="40" height="20" as="geometry" />
        </mxCell>
        <mxCell id="2gesUs9yHsMbc-UvOtqr-39" value="Type" style="swimlane;fontStyle=1;align=center;verticalAlign=middle;childLayout=stackLayout;horizontal=1;startSize=20;horizontalStack=0;resizeParent=1;resizeLast=0;collapsible=0;marginBottom=0;rounded=0;shadow=0;strokeWidth=3;fontFamily=CaskaydiaCove NFM Light;fontSize=10;swimlaneLine=1;fillColor=#fff2cc;glass=0;html=1;noLabel=0;snapToPoint=0;fixDash=0;fillOpacity=50;strokeColor=#d6b656;" parent="1" vertex="1">
          <mxGeometry x="1090" y="640" width="60" height="40" as="geometry">
            <mxRectangle x="220" y="130" width="160" height="26" as="alternateBounds" />
          </mxGeometry>
        </mxCell>
        <mxCell id="2gesUs9yHsMbc-UvOtqr-112" value="TypedObject" style="swimlane;fontStyle=1;align=center;verticalAlign=middle;childLayout=stackLayout;horizontal=1;startSize=20;horizontalStack=0;resizeParent=1;resizeLast=0;collapsible=0;marginBottom=0;rounded=0;shadow=0;strokeWidth=3;fontFamily=CaskaydiaCove NFM Light;fontSize=10;swimlaneLine=1;fillColor=#d5e8d4;glass=0;html=1;noLabel=0;snapToPoint=0;fixDash=0;fillOpacity=50;strokeColor=#82b366;" parent="1" vertex="1">
          <mxGeometry x="1040" y="500" width="160" height="60" as="geometry">
            <mxRectangle x="220" y="130" width="160" height="26" as="alternateBounds" />
          </mxGeometry>
        </mxCell>
        <mxCell id="2gesUs9yHsMbc-UvOtqr-113" value="name: &lt;b&gt;Name&lt;/b&gt;" style="text;align=left;verticalAlign=middle;spacingLeft=4;spacingRight=4;overflow=hidden;rotatable=0;points=[[0,0.5],[1,0.5]];portConstraint=eastwest;fontFamily=CaskaydiaCove NFM Light;fontStyle=0;fontSize=10;html=1;glass=0;fillOpacity=50;" parent="2gesUs9yHsMbc-UvOtqr-112" vertex="1">
          <mxGeometry y="20" width="160" height="20" as="geometry" />
        </mxCell>
        <mxCell id="2gesUs9yHsMbc-UvOtqr-188" value="multiplicty: &lt;b&gt;Multiplicity&lt;/b&gt;" style="text;align=left;verticalAlign=middle;spacingLeft=4;spacingRight=4;overflow=hidden;rotatable=0;points=[[0,0.5],[1,0.5]];portConstraint=eastwest;fontFamily=CaskaydiaCove NFM Light;fontStyle=0;fontSize=10;html=1;glass=0;fillOpacity=50;" parent="2gesUs9yHsMbc-UvOtqr-112" vertex="1">
          <mxGeometry y="40" width="160" height="20" as="geometry" />
        </mxCell>
        <mxCell id="2gesUs9yHsMbc-UvOtqr-118" value="StructField" style="swimlane;fontStyle=1;align=center;verticalAlign=middle;childLayout=stackLayout;horizontal=1;startSize=20;horizontalStack=0;resizeParent=1;resizeLast=0;collapsible=0;marginBottom=0;rounded=0;shadow=0;strokeWidth=2;fontFamily=CaskaydiaCove NFM Light;fontSize=10;swimlaneLine=1;fillColor=#d5e8d4;glass=0;html=1;noLabel=0;snapToPoint=0;fixDash=0;fillOpacity=50;strokeColor=#82b366;" parent="1" vertex="1">
          <mxGeometry x="1290" y="410" width="180" height="60" as="geometry">
            <mxRectangle x="220" y="130" width="160" height="26" as="alternateBounds" />
          </mxGeometry>
        </mxCell>
        <mxCell id="2gesUs9yHsMbc-UvOtqr-119" value="&lt;span style=&quot;background-color: transparent; color: light-dark(rgb(0, 0, 0), rgb(255, 255, 255));&quot;&gt;position: &lt;/span&gt;&lt;b style=&quot;background-color: transparent; color: light-dark(rgb(0, 0, 0), rgb(255, 255, 255));&quot;&gt;Integer&lt;/b&gt;&lt;span style=&quot;background-color: transparent; color: light-dark(rgb(0, 0, 0), rgb(255, 255, 255));&quot;&gt; &amp;gt;= 0&lt;/span&gt;&lt;b style=&quot;background-color: transparent; color: light-dark(rgb(0, 0, 0), rgb(255, 255, 255));&quot;&gt;&amp;nbsp;&lt;/b&gt;&lt;i style=&quot;background-color: transparent; color: light-dark(rgb(0, 0, 0), rgb(255, 255, 255));&quot;&gt;{id1}&lt;/i&gt;" style="text;align=left;verticalAlign=middle;spacingLeft=4;spacingRight=4;overflow=hidden;rotatable=0;points=[[0,0.5],[1,0.5]];portConstraint=eastwest;fontFamily=CaskaydiaCove NFM Light;fontStyle=0;fontSize=10;html=1;glass=0;fillOpacity=50;" parent="2gesUs9yHsMbc-UvOtqr-118" vertex="1">
          <mxGeometry y="20" width="180" height="20" as="geometry" />
        </mxCell>
        <mxCell id="2gesUs9yHsMbc-UvOtqr-120" value="name: &lt;b&gt;Name &lt;/b&gt;&lt;i&gt;{id2} [0..1]&lt;/i&gt;" style="text;align=left;verticalAlign=middle;spacingLeft=4;spacingRight=4;overflow=hidden;rotatable=0;points=[[0,0.5],[1,0.5]];portConstraint=eastwest;fontFamily=CaskaydiaCove NFM Light;fontStyle=0;fontSize=10;html=1;glass=0;fillOpacity=50;" parent="2gesUs9yHsMbc-UvOtqr-118" vertex="1">
          <mxGeometry y="40" width="180" height="20" as="geometry" />
        </mxCell>
        <mxCell id="2gesUs9yHsMbc-UvOtqr-126" value="" style="endArrow=block;html=1;rounded=1;curved=0;endFill=0;strokeWidth=1;fontFamily=CaskaydiaCove NFM Light;fontSize=10;startSize=6;endSize=10;fillOpacity=50;fillColor=#d5e8d4;strokeColor=#82b366;entryX=0.5;entryY=0;entryDx=0;entryDy=0;exitX=0.056;exitY=1;exitDx=0;exitDy=0;exitPerimeter=0;" parent="1" source="2gesUs9yHsMbc-UvOtqr-120" target="2gesUs9yHsMbc-UvOtqr-112" edge="1">
          <mxGeometry width="50" height="50" relative="1" as="geometry">
            <mxPoint x="1240" y="470" as="sourcePoint" />
            <mxPoint x="1220" y="500" as="targetPoint" />
            <Array as="points">
              <mxPoint x="1300" y="480" />
              <mxPoint x="1120" y="480" />
            </Array>
          </mxGeometry>
        </mxCell>
        <mxCell id="2gesUs9yHsMbc-UvOtqr-130" value="" style="endArrow=block;html=1;rounded=1;curved=0;endFill=0;strokeWidth=1;fontFamily=CaskaydiaCove NFM Light;fontSize=10;startSize=6;endSize=10;fillOpacity=50;fillColor=#e1d5e7;strokeColor=#9673a6;entryX=0.5;entryY=1;entryDx=0;entryDy=0;exitX=0.5;exitY=1;exitDx=0;exitDy=0;exitPerimeter=0;" parent="1" source="2gesUs9yHsMbc-UvOtqr-2" edge="1">
          <mxGeometry width="50" height="50" relative="1" as="geometry">
            <mxPoint x="510" y="400" as="sourcePoint" />
            <mxPoint x="490" y="430" as="targetPoint" />
            <Array as="points">
              <mxPoint x="760" y="410" />
              <mxPoint x="490" y="410" />
            </Array>
          </mxGeometry>
        </mxCell>
        <mxCell id="2gesUs9yHsMbc-UvOtqr-131" value="" style="endArrow=block;html=1;rounded=1;curved=0;endFill=0;strokeWidth=1;fontFamily=CaskaydiaCove NFM Light;fontSize=10;startSize=6;endSize=10;fillOpacity=50;fillColor=#e1d5e7;strokeColor=#9673a6;exitX=0.5;exitY=1;exitDx=0;exitDy=0;exitPerimeter=0;" parent="1" source="2gesUs9yHsMbc-UvOtqr-31" edge="1">
          <mxGeometry width="50" height="50" relative="1" as="geometry">
            <mxPoint x="220" y="290" as="sourcePoint" />
            <mxPoint x="490" y="430" as="targetPoint" />
            <Array as="points">
              <mxPoint x="220" y="410" />
              <mxPoint x="490" y="410" />
            </Array>
          </mxGeometry>
        </mxCell>
        <mxCell id="2gesUs9yHsMbc-UvOtqr-132" value="{disjoint, complete}" style="text;html=1;align=center;verticalAlign=middle;resizable=1;points=[];autosize=1;strokeColor=none;fillColor=none;fontFamily=CaskaydiaCove NFM Light;fontSize=8;fontStyle=2;spacing=0;fillOpacity=50;" parent="1" vertex="1">
          <mxGeometry x="490" y="410" width="110" height="20" as="geometry" />
        </mxCell>
        <mxCell id="2gesUs9yHsMbc-UvOtqr-30" value="Association" style="swimlane;fontStyle=1;align=center;verticalAlign=middle;childLayout=stackLayout;horizontal=1;startSize=20;horizontalStack=0;resizeParent=1;resizeLast=0;collapsible=0;marginBottom=0;rounded=0;shadow=0;strokeWidth=2;fontFamily=CaskaydiaCove NFM Light;fontSize=10;swimlaneLine=1;fillColor=#e1d5e7;glass=0;html=1;noLabel=0;snapToPoint=0;fixDash=0;fillOpacity=50;strokeColor=#9673a6;" parent="1" vertex="1">
          <mxGeometry x="170" y="240" width="100" height="40" as="geometry">
            <mxRectangle x="220" y="130" width="160" height="26" as="alternateBounds" />
          </mxGeometry>
        </mxCell>
        <mxCell id="2gesUs9yHsMbc-UvOtqr-31" value="name: &lt;b&gt;Name &lt;/b&gt;&lt;i style=&quot;&quot;&gt;{id}&lt;/i&gt;" style="text;align=left;verticalAlign=middle;spacingLeft=4;spacingRight=4;overflow=hidden;rotatable=0;points=[[0,0.5],[1,0.5]];portConstraint=eastwest;fontFamily=CaskaydiaCove NFM Light;fontStyle=0;fontSize=10;html=1;glass=0;fillOpacity=50;" parent="2gesUs9yHsMbc-UvOtqr-30" vertex="1">
          <mxGeometry y="20" width="100" height="20" as="geometry" />
        </mxCell>
        <mxCell id="2gesUs9yHsMbc-UvOtqr-136" value="" style="endArrow=none;html=1;rounded=1;flowAnimation=0;shadow=0;anchorPointDirection=1;curved=0;fillOpacity=50;fillColor=#dae8fc;strokeColor=#6c8ebf;fontFamily=CaskaydiaCove NFM Light;entryX=0.5;entryY=1;entryDx=0;entryDy=0;entryPerimeter=0;exitX=0.1;exitY=0;exitDx=0;exitDy=0;exitPerimeter=0;" parent="1" source="2gesUs9yHsMbc-UvOtqr-133" edge="1">
          <mxGeometry width="50" height="50" relative="1" as="geometry">
            <mxPoint x="430" y="660" as="sourcePoint" />
            <mxPoint x="430" y="470" as="targetPoint" />
            <Array as="points" />
          </mxGeometry>
        </mxCell>
        <mxCell id="2gesUs9yHsMbc-UvOtqr-138" value="0..*" style="text;html=1;align=center;verticalAlign=middle;resizable=1;points=[];autosize=1;strokeColor=none;fillColor=none;fontFamily=CaskaydiaCove NFM Light;fontSize=8;spacing=0;fillOpacity=50;" parent="1" vertex="1">
          <mxGeometry x="430" y="760" width="40" height="20" as="geometry" />
        </mxCell>
        <mxCell id="2gesUs9yHsMbc-UvOtqr-139" value="2..*" style="text;html=1;align=center;verticalAlign=middle;resizable=1;points=[];autosize=1;strokeColor=none;fillColor=none;fontFamily=CaskaydiaCove NFM Light;fontSize=8;spacing=0;fillOpacity=50;" parent="1" vertex="1">
          <mxGeometry x="430" y="469.99999999999994" width="40" height="20" as="geometry" />
        </mxCell>
        <mxCell id="2gesUs9yHsMbc-UvOtqr-140" value="&lt;span style=&quot;font-weight: normal;&quot;&gt;superclass&lt;/span&gt;" style="swimlane;fontStyle=1;align=center;verticalAlign=middle;childLayout=stackLayout;horizontal=1;startSize=20;horizontalStack=0;resizeParent=1;resizeLast=0;collapsible=0;marginBottom=0;rounded=0;shadow=0;strokeWidth=1;fontFamily=CaskaydiaCove NFM Light;fontSize=10;swimlaneLine=1;fillColor=#fff2cc;glass=0;html=1;noLabel=0;snapToPoint=0;fixDash=0;fillOpacity=50;strokeColor=#d6b656;" parent="1" vertex="1">
          <mxGeometry x="580" y="530" width="80" height="40" as="geometry">
            <mxRectangle x="220" y="130" width="160" height="26" as="alternateBounds" />
          </mxGeometry>
        </mxCell>
        <mxCell id="2gesUs9yHsMbc-UvOtqr-141" value="&lt;span style=&quot;font-weight: 400;&quot;&gt;subclass&lt;/span&gt;" style="swimlane;fontStyle=1;align=center;verticalAlign=middle;childLayout=stackLayout;horizontal=1;startSize=20;horizontalStack=0;resizeParent=1;resizeLast=0;collapsible=0;marginBottom=0;rounded=0;shadow=0;strokeWidth=1;fontFamily=CaskaydiaCove NFM Light;fontSize=10;swimlaneLine=1;fillColor=#d5e8d4;glass=0;html=1;noLabel=0;snapToPoint=0;fixDash=0;fillOpacity=50;strokeColor=#82b366;" parent="1" vertex="1">
          <mxGeometry x="680" y="530" width="80" height="40" as="geometry">
            <mxRectangle x="220" y="130" width="160" height="26" as="alternateBounds" />
          </mxGeometry>
        </mxCell>
        <mxCell id="2gesUs9yHsMbc-UvOtqr-142" value="" style="endArrow=block;html=1;rounded=1;curved=0;endFill=0;strokeWidth=1;fontFamily=CaskaydiaCove NFM Light;fontSize=10;startSize=6;endSize=10;fillOpacity=50;fillColor=#d5e8d4;strokeColor=#82b366;entryX=0.5;entryY=1;entryDx=0;entryDy=0;" parent="1" edge="1">
          <mxGeometry width="50" height="50" relative="1" as="geometry">
            <mxPoint x="690" y="570" as="sourcePoint" />
            <mxPoint x="670" y="600" as="targetPoint" />
            <Array as="points">
              <mxPoint x="690" y="580" />
              <mxPoint x="670" y="580" />
            </Array>
          </mxGeometry>
        </mxCell>
        <mxCell id="2gesUs9yHsMbc-UvOtqr-143" value="" style="endArrow=block;html=1;rounded=1;curved=0;endFill=0;strokeWidth=1;fontFamily=CaskaydiaCove NFM Light;fontSize=10;startSize=6;endSize=10;fillOpacity=50;fillColor=#fff2cc;strokeColor=#d6b656;" parent="1" edge="1">
          <mxGeometry width="50" height="50" relative="1" as="geometry">
            <mxPoint x="650" y="570" as="sourcePoint" />
            <mxPoint x="670" y="600" as="targetPoint" />
            <Array as="points">
              <mxPoint x="650" y="580" />
              <mxPoint x="670" y="580" />
            </Array>
          </mxGeometry>
        </mxCell>
        <mxCell id="2gesUs9yHsMbc-UvOtqr-144" value="{disjoint, complete}" style="text;html=1;align=center;verticalAlign=middle;resizable=1;points=[];autosize=1;strokeColor=none;fillColor=none;fontFamily=CaskaydiaCove NFM Light;fontSize=8;fontStyle=2;spacing=0;fillOpacity=50;" parent="1" vertex="1">
          <mxGeometry x="670" y="580" width="110" height="20" as="geometry" />
        </mxCell>
        <mxCell id="2gesUs9yHsMbc-UvOtqr-145" value="" style="endArrow=none;html=1;rounded=1;flowAnimation=0;shadow=0;anchorPointDirection=1;curved=0;fillOpacity=50;fillColor=#fff2cc;strokeColor=#d6b656;fontFamily=CaskaydiaCove NFM Light;entryX=0.5;entryY=1;entryDx=0;entryDy=0;entryPerimeter=0;exitX=0.5;exitY=0;exitDx=0;exitDy=0;" parent="1" source="2gesUs9yHsMbc-UvOtqr-133" edge="1">
          <mxGeometry width="50" height="50" relative="1" as="geometry">
            <mxPoint x="470" y="660" as="sourcePoint" />
            <mxPoint x="470" y="470.00000000000006" as="targetPoint" />
            <Array as="points" />
          </mxGeometry>
        </mxCell>
        <mxCell id="2gesUs9yHsMbc-UvOtqr-146" value="0..*" style="text;html=1;align=center;verticalAlign=middle;resizable=1;points=[];autosize=1;strokeColor=none;fillColor=none;fontFamily=CaskaydiaCove NFM Light;fontSize=8;spacing=0;fillOpacity=50;" parent="1" vertex="1">
          <mxGeometry x="470" y="760" width="40" height="20" as="geometry" />
        </mxCell>
        <mxCell id="2gesUs9yHsMbc-UvOtqr-147" value="1..1" style="text;html=1;align=center;verticalAlign=middle;resizable=1;points=[];autosize=1;strokeColor=none;fillColor=none;fontFamily=CaskaydiaCove NFM Light;fontSize=8;spacing=0;fillOpacity=50;" parent="1" vertex="1">
          <mxGeometry x="470" y="470" width="40" height="20" as="geometry" />
        </mxCell>
        <mxCell id="2gesUs9yHsMbc-UvOtqr-148" value="" style="endArrow=none;html=1;rounded=1;flowAnimation=0;shadow=0;anchorPointDirection=1;curved=0;fillOpacity=50;fillColor=#d5e8d4;strokeColor=#82b366;fontFamily=CaskaydiaCove NFM Light;exitX=1;exitY=1;exitDx=0;exitDy=0;entryX=0.5;entryY=1;entryDx=0;entryDy=0;entryPerimeter=0;exitPerimeter=0;" parent="1" source="2gesUs9yHsMbc-UvOtqr-146" edge="1">
          <mxGeometry width="50" height="50" relative="1" as="geometry">
            <mxPoint x="510" y="680" as="sourcePoint" />
            <mxPoint x="510" y="470.00000000000006" as="targetPoint" />
            <Array as="points" />
          </mxGeometry>
        </mxCell>
        <mxCell id="2gesUs9yHsMbc-UvOtqr-149" value="0..*" style="text;html=1;align=center;verticalAlign=middle;resizable=1;points=[];autosize=1;strokeColor=none;fillColor=none;fontFamily=CaskaydiaCove NFM Light;fontSize=8;spacing=0;fillOpacity=50;" parent="1" vertex="1">
          <mxGeometry x="510" y="760" width="40" height="20" as="geometry" />
        </mxCell>
        <mxCell id="2gesUs9yHsMbc-UvOtqr-150" value="1..1" style="text;html=1;align=center;verticalAlign=middle;resizable=1;points=[];autosize=1;strokeColor=none;fillColor=none;fontFamily=CaskaydiaCove NFM Light;fontSize=8;spacing=0;fillOpacity=50;" parent="1" vertex="1">
          <mxGeometry x="510" y="470" width="40" height="20" as="geometry" />
        </mxCell>
        <mxCell id="2gesUs9yHsMbc-UvOtqr-151" value="" style="endArrow=none;dashed=1;html=1;rounded=0;fillOpacity=50;fillColor=#fff2cc;strokeColor=#d6b656;fontFamily=CaskaydiaCove NFM Light;exitX=0;exitY=0.5;exitDx=0;exitDy=0;strokeWidth=1;" parent="1" source="2gesUs9yHsMbc-UvOtqr-140" edge="1">
          <mxGeometry width="50" height="50" relative="1" as="geometry">
            <mxPoint x="540" y="549.74" as="sourcePoint" />
            <mxPoint x="470" y="550" as="targetPoint" />
          </mxGeometry>
        </mxCell>
        <mxCell id="2gesUs9yHsMbc-UvOtqr-152" value="" style="endArrow=none;dashed=1;html=1;rounded=0;fillOpacity=50;fillColor=#d5e8d4;strokeColor=#82b366;fontFamily=CaskaydiaCove NFM Light;exitX=0.5;exitY=0;exitDx=0;exitDy=0;strokeWidth=1;" parent="1" source="2gesUs9yHsMbc-UvOtqr-141" edge="1">
          <mxGeometry width="50" height="50" relative="1" as="geometry">
            <mxPoint x="650" y="509.73" as="sourcePoint" />
            <mxPoint x="510" y="520" as="targetPoint" />
            <Array as="points">
              <mxPoint x="720" y="520" />
            </Array>
          </mxGeometry>
        </mxCell>
        <mxCell id="2gesUs9yHsMbc-UvOtqr-133" value="Generalization" style="swimlane;fontStyle=1;align=center;verticalAlign=middle;childLayout=stackLayout;horizontal=1;startSize=20;horizontalStack=0;resizeParent=1;resizeLast=0;collapsible=0;marginBottom=0;rounded=0;shadow=0;strokeWidth=3;fontFamily=CaskaydiaCove NFM Light;fontSize=10;swimlaneLine=1;fillColor=#e1d5e7;glass=0;html=1;noLabel=0;snapToPoint=0;fixDash=0;fillOpacity=50;strokeColor=#9673a6;" parent="1" vertex="1">
          <mxGeometry x="420" y="780" width="100" height="40" as="geometry">
            <mxRectangle x="220" y="130" width="160" height="26" as="alternateBounds" />
          </mxGeometry>
        </mxCell>
        <mxCell id="2gesUs9yHsMbc-UvOtqr-127" value="ClassLikeObject" style="swimlane;fontStyle=1;align=center;verticalAlign=middle;childLayout=stackLayout;horizontal=1;startSize=20;horizontalStack=0;resizeParent=1;resizeLast=0;collapsible=0;marginBottom=0;rounded=0;shadow=0;strokeWidth=3;fontFamily=CaskaydiaCove NFM Light;fontSize=10;swimlaneLine=1;fillColor=#dae8fc;glass=0;html=1;noLabel=0;snapToPoint=0;fixDash=0;fillOpacity=50;strokeColor=#6c8ebf;" parent="1" vertex="1">
          <mxGeometry x="400" y="430" width="180" height="40" as="geometry">
            <mxRectangle x="220" y="130" width="160" height="26" as="alternateBounds" />
          </mxGeometry>
        </mxCell>
        <mxCell id="2gesUs9yHsMbc-UvOtqr-128" value="name: &lt;b&gt;Name&lt;/b&gt;" style="text;align=left;verticalAlign=middle;spacingLeft=4;spacingRight=4;overflow=hidden;rotatable=0;points=[[0,0.5],[1,0.5]];portConstraint=eastwest;fontFamily=CaskaydiaCove NFM Light;fontStyle=0;fontSize=10;html=1;glass=0;fillOpacity=50;" parent="2gesUs9yHsMbc-UvOtqr-127" vertex="1">
          <mxGeometry y="20" width="180" height="20" as="geometry" />
        </mxCell>
        <mxCell id="2gesUs9yHsMbc-UvOtqr-153" value="MultipleGeneralization" style="swimlane;fontStyle=1;align=center;verticalAlign=middle;childLayout=stackLayout;horizontal=1;startSize=20;horizontalStack=0;resizeParent=1;resizeLast=0;collapsible=0;marginBottom=0;rounded=0;shadow=0;strokeWidth=2;fontFamily=CaskaydiaCove NFM Light;fontSize=10;swimlaneLine=1;fillColor=#e1d5e7;glass=0;html=1;noLabel=0;snapToPoint=0;fixDash=0;fillOpacity=50;strokeColor=#9673a6;" parent="1" vertex="1">
          <mxGeometry x="540" y="780" width="160" height="40" as="geometry">
            <mxRectangle x="220" y="130" width="160" height="26" as="alternateBounds" />
          </mxGeometry>
        </mxCell>
        <mxCell id="2gesUs9yHsMbc-UvOtqr-154" value="" style="endArrow=block;html=1;rounded=1;curved=0;endFill=0;strokeWidth=1;fontFamily=CaskaydiaCove NFM Light;fontSize=10;startSize=6;endSize=10;fillOpacity=50;fillColor=#e1d5e7;strokeColor=#9673a6;entryX=1;entryY=0.5;entryDx=0;entryDy=0;exitX=0;exitY=0.5;exitDx=0;exitDy=0;" parent="1" source="2gesUs9yHsMbc-UvOtqr-153" target="2gesUs9yHsMbc-UvOtqr-133" edge="1">
          <mxGeometry width="50" height="50" relative="1" as="geometry">
            <mxPoint x="720" y="840" as="sourcePoint" />
            <mxPoint x="740" y="870" as="targetPoint" />
            <Array as="points" />
          </mxGeometry>
        </mxCell>
        <mxCell id="2gesUs9yHsMbc-UvOtqr-155" value="" style="endArrow=none;html=1;rounded=1;flowAnimation=0;shadow=0;anchorPointDirection=1;curved=0;fillOpacity=50;fillColor=#d5e8d4;strokeColor=#82b366;fontFamily=CaskaydiaCove NFM Light;entryX=0.5;entryY=1;entryDx=0;entryDy=0;entryPerimeter=0;exitX=0.063;exitY=0;exitDx=0;exitDy=0;exitPerimeter=0;" parent="1" source="2gesUs9yHsMbc-UvOtqr-153" edge="1">
          <mxGeometry width="50" height="50" relative="1" as="geometry">
            <mxPoint x="550" y="650" as="sourcePoint" />
            <mxPoint x="550" y="470" as="targetPoint" />
            <Array as="points" />
          </mxGeometry>
        </mxCell>
        <mxCell id="2gesUs9yHsMbc-UvOtqr-156" value="0..*" style="text;html=1;align=center;verticalAlign=middle;resizable=1;points=[];autosize=1;strokeColor=none;fillColor=none;fontFamily=CaskaydiaCove NFM Light;fontSize=8;spacing=0;fillOpacity=50;" parent="1" vertex="1">
          <mxGeometry x="550" y="760" width="40" height="20" as="geometry" />
        </mxCell>
        <mxCell id="2gesUs9yHsMbc-UvOtqr-157" value="2..*" style="text;html=1;align=center;verticalAlign=middle;resizable=1;points=[];autosize=1;strokeColor=none;fillColor=none;fontFamily=CaskaydiaCove NFM Light;fontSize=8;spacing=0;fillOpacity=50;" parent="1" vertex="1">
          <mxGeometry x="550" y="470" width="40" height="20" as="geometry" />
        </mxCell>
        <mxCell id="2gesUs9yHsMbc-UvOtqr-158" value="&lt;span style=&quot;font-weight: 400;&quot;&gt;multiple_subclass&lt;/span&gt;" style="swimlane;fontStyle=1;align=center;verticalAlign=middle;childLayout=stackLayout;horizontal=1;startSize=20;horizontalStack=0;resizeParent=1;resizeLast=0;collapsible=0;marginBottom=0;rounded=0;shadow=0;strokeWidth=1;fontFamily=CaskaydiaCove NFM Light;fontSize=10;swimlaneLine=1;fillColor=#d5e8d4;glass=0;html=1;noLabel=0;snapToPoint=0;fixDash=0;fillOpacity=50;strokeColor=#82b366;" parent="1" vertex="1">
          <mxGeometry x="780" y="530" width="120" height="40" as="geometry">
            <mxRectangle x="220" y="130" width="160" height="26" as="alternateBounds" />
          </mxGeometry>
        </mxCell>
        <mxCell id="2gesUs9yHsMbc-UvOtqr-159" value="" style="endArrow=block;html=1;rounded=1;curved=0;endFill=0;strokeWidth=1;fontFamily=CaskaydiaCove NFM Light;fontSize=10;startSize=6;endSize=10;fillOpacity=50;fillColor=#d5e8d4;strokeColor=#82b366;entryX=1;entryY=0.5;entryDx=0;entryDy=0;exitX=0;exitY=0.5;exitDx=0;exitDy=0;" parent="1" source="2gesUs9yHsMbc-UvOtqr-158" target="2gesUs9yHsMbc-UvOtqr-141" edge="1">
          <mxGeometry width="50" height="50" relative="1" as="geometry">
            <mxPoint x="790" y="590" as="sourcePoint" />
            <mxPoint x="770" y="590" as="targetPoint" />
            <Array as="points" />
          </mxGeometry>
        </mxCell>
        <mxCell id="2gesUs9yHsMbc-UvOtqr-160" value="" style="endArrow=none;dashed=1;html=1;rounded=0;fillOpacity=50;fillColor=#d5e8d4;strokeColor=#82b366;fontFamily=CaskaydiaCove NFM Light;exitX=0.5;exitY=0;exitDx=0;exitDy=0;strokeWidth=1;" parent="1" source="2gesUs9yHsMbc-UvOtqr-158" edge="1">
          <mxGeometry width="50" height="50" relative="1" as="geometry">
            <mxPoint x="810" y="510" as="sourcePoint" />
            <mxPoint x="550" y="510" as="targetPoint" />
            <Array as="points">
              <mxPoint x="840" y="510" />
            </Array>
          </mxGeometry>
        </mxCell>
        <mxCell id="2gesUs9yHsMbc-UvOtqr-161" value="DisjointGeneralization" style="swimlane;fontStyle=1;align=center;verticalAlign=middle;childLayout=stackLayout;horizontal=1;startSize=20;horizontalStack=0;resizeParent=1;resizeLast=0;collapsible=0;marginBottom=0;rounded=0;shadow=0;strokeWidth=2;fontFamily=CaskaydiaCove NFM Light;fontSize=10;swimlaneLine=1;fillColor=#e1d5e7;glass=0;html=1;noLabel=0;snapToPoint=0;fixDash=0;fillOpacity=50;strokeColor=#9673a6;" parent="1" vertex="1">
          <mxGeometry x="470" y="840" width="140" height="40" as="geometry">
            <mxRectangle x="220" y="130" width="160" height="26" as="alternateBounds" />
          </mxGeometry>
        </mxCell>
        <mxCell id="2gesUs9yHsMbc-UvOtqr-162" value="CompleteGeneralization" style="swimlane;fontStyle=1;align=center;verticalAlign=middle;childLayout=stackLayout;horizontal=1;startSize=20;horizontalStack=0;resizeParent=1;resizeLast=0;collapsible=0;marginBottom=0;rounded=0;shadow=0;strokeWidth=2;fontFamily=CaskaydiaCove NFM Light;fontSize=10;swimlaneLine=1;fillColor=#e1d5e7;glass=0;html=1;noLabel=0;snapToPoint=0;fixDash=0;fillOpacity=50;strokeColor=#9673a6;" parent="1" vertex="1">
          <mxGeometry x="630" y="840" width="140" height="40" as="geometry">
            <mxRectangle x="220" y="130" width="160" height="26" as="alternateBounds" />
          </mxGeometry>
        </mxCell>
        <mxCell id="2gesUs9yHsMbc-UvOtqr-163" value="" style="endArrow=block;html=1;rounded=1;curved=0;endFill=0;strokeWidth=1;fontFamily=CaskaydiaCove NFM Light;fontSize=10;startSize=6;endSize=10;fillOpacity=50;fillColor=#e1d5e7;strokeColor=#9673a6;exitX=0.143;exitY=0;exitDx=0;exitDy=0;exitPerimeter=0;" parent="1" source="2gesUs9yHsMbc-UvOtqr-162" edge="1">
          <mxGeometry width="50" height="50" relative="1" as="geometry">
            <mxPoint x="640" y="850" as="sourcePoint" />
            <mxPoint x="650" y="820" as="targetPoint" />
            <Array as="points" />
          </mxGeometry>
        </mxCell>
        <mxCell id="2gesUs9yHsMbc-UvOtqr-164" value="" style="endArrow=block;html=1;rounded=1;curved=0;endFill=0;strokeWidth=1;fontFamily=CaskaydiaCove NFM Light;fontSize=10;startSize=6;endSize=10;fillOpacity=50;fillColor=#e1d5e7;strokeColor=#9673a6;exitX=0.857;exitY=0;exitDx=0;exitDy=0;exitPerimeter=0;" parent="1" source="2gesUs9yHsMbc-UvOtqr-161" edge="1">
          <mxGeometry width="50" height="50" relative="1" as="geometry">
            <mxPoint x="600" y="850" as="sourcePoint" />
            <mxPoint x="590" y="820" as="targetPoint" />
            <Array as="points" />
          </mxGeometry>
        </mxCell>
        <mxCell id="2gesUs9yHsMbc-UvOtqr-166" value="AssociationGeneralization" style="swimlane;fontStyle=1;align=center;verticalAlign=middle;childLayout=stackLayout;horizontal=1;startSize=20;horizontalStack=0;resizeParent=1;resizeLast=0;collapsible=0;marginBottom=0;rounded=0;shadow=0;strokeWidth=2;fontFamily=CaskaydiaCove NFM Light;fontSize=10;swimlaneLine=1;fillColor=#e1d5e7;glass=0;html=1;noLabel=0;snapToPoint=0;fixDash=0;fillOpacity=50;strokeColor=#9673a6;" parent="1" vertex="1">
          <mxGeometry x="230" y="750" width="160" height="40" as="geometry">
            <mxRectangle x="220" y="130" width="160" height="26" as="alternateBounds" />
          </mxGeometry>
        </mxCell>
        <mxCell id="2gesUs9yHsMbc-UvOtqr-167" value="ClassGeneralization" style="swimlane;fontStyle=1;align=center;verticalAlign=middle;childLayout=stackLayout;horizontal=1;startSize=20;horizontalStack=0;resizeParent=1;resizeLast=0;collapsible=0;marginBottom=0;rounded=0;shadow=0;strokeWidth=2;fontFamily=CaskaydiaCove NFM Light;fontSize=10;swimlaneLine=1;fillColor=#e1d5e7;glass=0;html=1;noLabel=0;snapToPoint=0;fixDash=0;fillOpacity=50;strokeColor=#9673a6;" parent="1" vertex="1">
          <mxGeometry x="260" y="810" width="130" height="40" as="geometry">
            <mxRectangle x="220" y="130" width="160" height="26" as="alternateBounds" />
          </mxGeometry>
        </mxCell>
        <mxCell id="2gesUs9yHsMbc-UvOtqr-168" value="" style="endArrow=block;html=1;rounded=1;curved=0;endFill=0;strokeWidth=1;fontFamily=CaskaydiaCove NFM Light;fontSize=10;startSize=6;endSize=10;fillOpacity=50;fillColor=#e1d5e7;strokeColor=#9673a6;entryX=0;entryY=0.5;entryDx=0;entryDy=0;exitX=1;exitY=0.75;exitDx=0;exitDy=0;" parent="1" source="2gesUs9yHsMbc-UvOtqr-166" target="2gesUs9yHsMbc-UvOtqr-133" edge="1">
          <mxGeometry width="50" height="50" relative="1" as="geometry">
            <mxPoint x="420" y="830" as="sourcePoint" />
            <mxPoint x="400" y="830" as="targetPoint" />
            <Array as="points">
              <mxPoint x="400" y="780" />
              <mxPoint x="400" y="800" />
            </Array>
          </mxGeometry>
        </mxCell>
        <mxCell id="2gesUs9yHsMbc-UvOtqr-169" value="" style="endArrow=block;html=1;rounded=1;curved=0;endFill=0;strokeWidth=1;fontFamily=CaskaydiaCove NFM Light;fontSize=10;startSize=6;endSize=10;fillOpacity=50;fillColor=#e1d5e7;strokeColor=#9673a6;" parent="1" edge="1">
          <mxGeometry width="50" height="50" relative="1" as="geometry">
            <mxPoint x="390" y="820" as="sourcePoint" />
            <mxPoint x="420" y="800" as="targetPoint" />
            <Array as="points">
              <mxPoint x="400" y="820" />
              <mxPoint x="400" y="800" />
            </Array>
          </mxGeometry>
        </mxCell>
        <mxCell id="2gesUs9yHsMbc-UvOtqr-170" value="{disjoint, complete}" style="text;html=1;align=center;verticalAlign=middle;resizable=1;points=[];autosize=1;strokeColor=none;fillColor=none;fontFamily=CaskaydiaCove NFM Light;fontSize=8;fontStyle=2;spacing=0;fillOpacity=50;" parent="1" vertex="1">
          <mxGeometry x="290" y="790" width="110" height="20" as="geometry" />
        </mxCell>
        <mxCell id="2gesUs9yHsMbc-UvOtqr-171" value="Association" style="swimlane;fontStyle=1;align=center;verticalAlign=middle;childLayout=stackLayout;horizontal=1;startSize=20;horizontalStack=0;resizeParent=1;resizeLast=0;collapsible=0;marginBottom=0;rounded=0;shadow=0;strokeWidth=2;fontFamily=CaskaydiaCove NFM Light;fontSize=10;swimlaneLine=1;fillColor=#e1d5e7;glass=0;html=1;noLabel=0;snapToPoint=0;fixDash=0;fillOpacity=50;strokeColor=#9673a6;dashed=1;" parent="1" vertex="1">
          <mxGeometry x="260" y="430" width="100" height="40" as="geometry">
            <mxRectangle x="220" y="130" width="160" height="26" as="alternateBounds" />
          </mxGeometry>
        </mxCell>
        <mxCell id="2gesUs9yHsMbc-UvOtqr-173" value="Class" style="swimlane;fontStyle=1;align=center;verticalAlign=middle;childLayout=stackLayout;horizontal=1;startSize=20;horizontalStack=0;resizeParent=1;resizeLast=0;collapsible=0;marginBottom=0;rounded=0;shadow=0;strokeWidth=2;fontFamily=CaskaydiaCove NFM Light;fontSize=10;swimlaneLine=1;fillColor=#e1d5e7;glass=0;html=1;noLabel=0;snapToPoint=0;fixDash=0;fillOpacity=50;strokeColor=#9673a6;dashed=1;" parent="1" vertex="1">
          <mxGeometry x="150" y="430" width="100" height="40" as="geometry">
            <mxRectangle x="220" y="130" width="160" height="26" as="alternateBounds" />
          </mxGeometry>
        </mxCell>
        <mxCell id="2gesUs9yHsMbc-UvOtqr-175" value="" style="endArrow=none;html=1;rounded=1;flowAnimation=0;shadow=0;anchorPointDirection=1;curved=0;fillOpacity=50;fillColor=#e1d5e7;strokeColor=#9673a6;fontFamily=CaskaydiaCove NFM Light;exitX=0.5;exitY=0;exitDx=0;exitDy=0;entryX=0.5;entryY=1;entryDx=0;entryDy=0;" parent="1" source="2gesUs9yHsMbc-UvOtqr-166" target="2gesUs9yHsMbc-UvOtqr-171" edge="1">
          <mxGeometry width="50" height="50" relative="1" as="geometry">
            <mxPoint x="310" y="720" as="sourcePoint" />
            <mxPoint x="330" y="480" as="targetPoint" />
            <Array as="points" />
          </mxGeometry>
        </mxCell>
        <mxCell id="2gesUs9yHsMbc-UvOtqr-176" value="" style="endArrow=none;html=1;rounded=1;flowAnimation=0;shadow=0;anchorPointDirection=1;curved=0;fillOpacity=50;fillColor=#e1d5e7;strokeColor=#9673a6;fontFamily=CaskaydiaCove NFM Light;exitX=0;exitY=0.5;exitDx=0;exitDy=0;entryX=0.5;entryY=1;entryDx=0;entryDy=0;" parent="1" source="2gesUs9yHsMbc-UvOtqr-167" target="2gesUs9yHsMbc-UvOtqr-173" edge="1">
          <mxGeometry width="50" height="50" relative="1" as="geometry">
            <mxPoint x="180" y="690" as="sourcePoint" />
            <mxPoint x="180" y="510" as="targetPoint" />
            <Array as="points">
              <mxPoint x="200" y="830" />
            </Array>
          </mxGeometry>
        </mxCell>
        <mxCell id="2gesUs9yHsMbc-UvOtqr-177" value="0..*" style="text;html=1;align=center;verticalAlign=middle;resizable=1;points=[];autosize=1;strokeColor=none;fillColor=none;fontFamily=CaskaydiaCove NFM Light;fontSize=8;spacing=0;fillOpacity=50;" parent="1" vertex="1">
          <mxGeometry x="220" y="810" width="40" height="20" as="geometry" />
        </mxCell>
        <mxCell id="2gesUs9yHsMbc-UvOtqr-178" value="0..*" style="text;html=1;align=center;verticalAlign=middle;resizable=1;points=[];autosize=1;strokeColor=none;fillColor=none;fontFamily=CaskaydiaCove NFM Light;fontSize=8;spacing=0;fillOpacity=50;" parent="1" vertex="1">
          <mxGeometry x="310" y="730" width="40" height="20" as="geometry" />
        </mxCell>
        <mxCell id="2gesUs9yHsMbc-UvOtqr-179" value="2..*" style="text;html=1;align=center;verticalAlign=middle;resizable=1;points=[];autosize=1;strokeColor=none;fillColor=none;fontFamily=CaskaydiaCove NFM Light;fontSize=8;spacing=0;fillOpacity=50;" parent="1" vertex="1">
          <mxGeometry x="310" y="470" width="40" height="20" as="geometry" />
        </mxCell>
        <mxCell id="2gesUs9yHsMbc-UvOtqr-180" value="2..*" style="text;html=1;align=center;verticalAlign=middle;resizable=1;points=[];autosize=1;strokeColor=none;fillColor=none;fontFamily=CaskaydiaCove NFM Light;fontSize=8;spacing=0;fillOpacity=50;" parent="1" vertex="1">
          <mxGeometry x="200" y="470" width="40" height="20" as="geometry" />
        </mxCell>
        <mxCell id="2gesUs9yHsMbc-UvOtqr-181" value="&lt;span style=&quot;font-weight: normal;&quot;&gt;class_gener&lt;/span&gt;" style="swimlane;fontStyle=1;align=center;verticalAlign=middle;childLayout=stackLayout;horizontal=1;startSize=20;horizontalStack=0;resizeParent=1;resizeLast=0;collapsible=0;marginBottom=0;rounded=0;shadow=0;strokeWidth=1;fontFamily=CaskaydiaCove NFM Light;fontSize=10;swimlaneLine=1;fillColor=#e1d5e7;glass=0;html=1;noLabel=0;snapToPoint=0;fixDash=0;fillOpacity=50;strokeColor=#9673a6;" parent="1" vertex="1">
          <mxGeometry x="680" y="670" width="80" height="40" as="geometry">
            <mxRectangle x="220" y="130" width="160" height="26" as="alternateBounds" />
          </mxGeometry>
        </mxCell>
        <mxCell id="2gesUs9yHsMbc-UvOtqr-182" value="&lt;span style=&quot;font-weight: normal;&quot;&gt;assoc_gener&lt;/span&gt;" style="swimlane;fontStyle=1;align=center;verticalAlign=middle;childLayout=stackLayout;horizontal=1;startSize=20;horizontalStack=0;resizeParent=1;resizeLast=0;collapsible=0;marginBottom=0;rounded=0;shadow=0;strokeWidth=1;fontFamily=CaskaydiaCove NFM Light;fontSize=10;swimlaneLine=1;fillColor=#e1d5e7;glass=0;html=1;noLabel=0;snapToPoint=0;fixDash=0;fillOpacity=50;strokeColor=#9673a6;" parent="1" vertex="1">
          <mxGeometry x="580" y="670" width="80" height="40" as="geometry">
            <mxRectangle x="220" y="130" width="160" height="26" as="alternateBounds" />
          </mxGeometry>
        </mxCell>
        <mxCell id="2gesUs9yHsMbc-UvOtqr-183" value="" style="endArrow=block;html=1;rounded=1;curved=0;endFill=0;strokeWidth=1;fontFamily=CaskaydiaCove NFM Light;fontSize=10;startSize=6;endSize=10;fillOpacity=50;fillColor=#e1d5e7;strokeColor=#9673a6;entryX=0.5;entryY=1;entryDx=0;entryDy=0;" parent="1" edge="1">
          <mxGeometry width="50" height="50" relative="1" as="geometry">
            <mxPoint x="690" y="670" as="sourcePoint" />
            <mxPoint x="670" y="640" as="targetPoint" />
            <Array as="points">
              <mxPoint x="690" y="660" />
              <mxPoint x="670" y="660" />
            </Array>
          </mxGeometry>
        </mxCell>
        <mxCell id="2gesUs9yHsMbc-UvOtqr-184" value="" style="endArrow=block;html=1;rounded=1;curved=0;endFill=0;strokeWidth=1;fontFamily=CaskaydiaCove NFM Light;fontSize=10;startSize=6;endSize=10;fillOpacity=50;fillColor=#e1d5e7;strokeColor=#9673a6;" parent="1" edge="1">
          <mxGeometry width="50" height="50" relative="1" as="geometry">
            <mxPoint x="650" y="670" as="sourcePoint" />
            <mxPoint x="670" y="640" as="targetPoint" />
            <Array as="points">
              <mxPoint x="650" y="660" />
              <mxPoint x="670" y="660" />
            </Array>
          </mxGeometry>
        </mxCell>
        <mxCell id="2gesUs9yHsMbc-UvOtqr-185" value="{disjoint, complete}" style="text;html=1;align=center;verticalAlign=middle;resizable=1;points=[];autosize=1;strokeColor=none;fillColor=none;fontFamily=CaskaydiaCove NFM Light;fontSize=8;fontStyle=2;spacing=0;fillOpacity=50;" parent="1" vertex="1">
          <mxGeometry x="670" y="640" width="110" height="20" as="geometry" />
        </mxCell>
        <mxCell id="2gesUs9yHsMbc-UvOtqr-186" value="" style="endArrow=none;dashed=1;html=1;rounded=0;fillOpacity=50;fillColor=#e1d5e7;strokeColor=#9673a6;fontFamily=CaskaydiaCove NFM Light;exitX=0;exitY=0.5;exitDx=0;exitDy=0;strokeWidth=1;" parent="1" source="2gesUs9yHsMbc-UvOtqr-182" edge="1">
          <mxGeometry width="50" height="50" relative="1" as="geometry">
            <mxPoint x="595" y="740" as="sourcePoint" />
            <mxPoint x="310" y="690" as="targetPoint" />
            <Array as="points" />
          </mxGeometry>
        </mxCell>
        <mxCell id="2gesUs9yHsMbc-UvOtqr-187" value="" style="endArrow=none;dashed=1;html=1;rounded=0;fillOpacity=50;fillColor=#e1d5e7;strokeColor=#9673a6;fontFamily=CaskaydiaCove NFM Light;exitX=0.5;exitY=1;exitDx=0;exitDy=0;strokeWidth=1;" parent="1" source="2gesUs9yHsMbc-UvOtqr-181" edge="1">
          <mxGeometry width="50" height="50" relative="1" as="geometry">
            <mxPoint x="735" y="715" as="sourcePoint" />
            <mxPoint x="200" y="720" as="targetPoint" />
            <Array as="points">
              <mxPoint x="720" y="720" />
            </Array>
          </mxGeometry>
        </mxCell>
        <mxCell id="RBqscLzgSMPgarrKhITt-30" value="drag-and-drop class from menu" style="text;html=1;align=center;verticalAlign=middle;resizable=1;points=[];autosize=1;strokeColor=none;fillColor=none;fontFamily=CaskaydiaCove NFM Light;fontSize=10;fontStyle=0;labelBackgroundColor=default;spacing=0;fillOpacity=50;strokeWidth=0;" parent="1" vertex="1">
          <mxGeometry x="940" y="1150" width="190" height="20" as="geometry" />
        </mxCell>
        <mxCell id="RBqscLzgSMPgarrKhITt-40" value="double-click to&lt;div&gt;- edit class name&lt;/div&gt;&lt;div&gt;- edit attribute&lt;/div&gt;&lt;div&gt;- edit operation&lt;/div&gt;&lt;div&gt;- edit role in association&lt;/div&gt;&lt;div&gt;- edit association name&lt;/div&gt;&lt;div&gt;- edit generalization&lt;/div&gt;&lt;div&gt;&lt;span style=&quot;white-space: pre;&quot;&gt;&#x9;&lt;/span&gt;- disjoint&lt;br&gt;&lt;/div&gt;&lt;div&gt;&lt;span style=&quot;white-space: pre;&quot;&gt;&#x9;&lt;/span&gt;- complete&lt;br&gt;&lt;/div&gt;" style="text;html=1;align=left;verticalAlign=middle;resizable=1;points=[];autosize=1;strokeColor=none;fillColor=none;fontFamily=CaskaydiaCove NFM Light;fontSize=10;fontStyle=0;labelBackgroundColor=default;spacing=0;fillOpacity=50;strokeWidth=0;" parent="1" vertex="1">
          <mxGeometry x="940" y="1240" width="170" height="120" as="geometry" />
        </mxCell>
        <mxCell id="RBqscLzgSMPgarrKhITt-41" value="use mouse-wheel to&lt;div&gt;- create an association&lt;/div&gt;&lt;div&gt;&lt;br&gt;&lt;/div&gt;" style="text;html=1;align=left;verticalAlign=middle;resizable=1;points=[];autosize=1;strokeColor=none;fillColor=none;fontFamily=CaskaydiaCove NFM Light;fontSize=10;fontStyle=0;labelBackgroundColor=default;spacing=0;fillOpacity=50;strokeWidth=0;" parent="1" vertex="1">
          <mxGeometry x="960" y="1186" width="150" height="50" as="geometry" />
        </mxCell>
        <mxCell id="RBqscLzgSMPgarrKhITt-103" value="" style="rounded=0;whiteSpace=wrap;html=1;fillStyle=hatch;fillColor=none;gradientColor=none;strokeColor=default;comic=0;treeMoving=0;fixDash=0;dropTarget=0;strokeWidth=0.5;shadow=1;" parent="1" vertex="1">
          <mxGeometry x="190" y="1130" width="110" height="300" as="geometry" />
        </mxCell>
        <mxCell id="RBqscLzgSMPgarrKhITt-114" value="" style="endArrow=none;html=1;rounded=1;flowAnimation=0;shadow=0;anchorPointDirection=1;curved=0;fillOpacity=50;fillColor=#e1d5e7;strokeColor=#9673a6;fontFamily=CaskaydiaCove NFM Light;exitX=0.5;exitY=0;exitDx=0;exitDy=0;entryX=0.5;entryY=1;entryDx=0;entryDy=0;entryPerimeter=0;endFillColor=#FF0000;" parent="1" edge="1">
          <mxGeometry width="50" height="50" relative="1" as="geometry">
            <mxPoint x="450" y="1360" as="sourcePoint" />
            <mxPoint x="450" y="1280" as="targetPoint" />
            <Array as="points" />
          </mxGeometry>
        </mxCell>
        <mxCell id="RBqscLzgSMPgarrKhITt-115" value="class1_class2" style="text;html=1;align=center;verticalAlign=middle;resizable=1;points=[];autosize=1;strokeColor=none;fillColor=none;fontFamily=CaskaydiaCove NFM Light;fontSize=10;fontStyle=0;labelBackgroundColor=default;spacing=0;fillOpacity=50;strokeWidth=0;" parent="1" vertex="1">
          <mxGeometry x="400" y="1310" width="100" height="20" as="geometry" />
        </mxCell>
        <mxCell id="RBqscLzgSMPgarrKhITt-116" value="1..1" style="text;html=1;align=center;verticalAlign=middle;resizable=1;points=[];autosize=1;strokeColor=none;fillColor=none;fontFamily=CaskaydiaCove NFM Light;fontSize=8;spacing=0;fillOpacity=50;" parent="1" vertex="1">
          <mxGeometry x="450" y="1340" width="40" height="20" as="geometry" />
        </mxCell>
        <mxCell id="RBqscLzgSMPgarrKhITt-118" value="Class1" style="swimlane;fontStyle=1;align=center;verticalAlign=middle;childLayout=stackLayout;horizontal=1;startSize=20;horizontalStack=0;resizeParent=1;resizeLast=0;collapsible=0;marginBottom=0;rounded=0;shadow=0;strokeWidth=2;fontFamily=CaskaydiaCove NFM Light;fontSize=10;swimlaneLine=1;fillColor=#e1d5e7;glass=0;html=1;noLabel=0;snapToPoint=0;fixDash=0;fillOpacity=50;strokeColor=#9673a6;" parent="1" vertex="1">
          <mxGeometry x="370" y="1180" width="160" height="100" as="geometry">
            <mxRectangle x="220" y="130" width="160" height="26" as="alternateBounds" />
          </mxGeometry>
        </mxCell>
        <mxCell id="RBqscLzgSMPgarrKhITt-119" value="atrr1: &lt;b&gt;Type1&amp;nbsp;&lt;/b&gt;&lt;i style=&quot;&quot;&gt;{idx} [n..m]&lt;/i&gt;" style="text;align=left;verticalAlign=middle;spacingLeft=4;spacingRight=4;overflow=hidden;rotatable=0;points=[[0,0.5],[1,0.5]];portConstraint=eastwest;fontFamily=CaskaydiaCove NFM Light;fontStyle=0;fontSize=10;html=1;glass=0;fillOpacity=50;" parent="RBqscLzgSMPgarrKhITt-118" vertex="1">
          <mxGeometry y="20" width="160" height="20" as="geometry" />
        </mxCell>
        <mxCell id="RBqscLzgSMPgarrKhITt-120" value="atrr2: &lt;b&gt;Type2&amp;nbsp;&lt;/b&gt;&lt;i style=&quot;&quot;&gt;[n..m]&lt;/i&gt;" style="text;align=left;verticalAlign=middle;spacingLeft=4;spacingRight=4;overflow=hidden;rotatable=0;points=[[0,0.5],[1,0.5]];portConstraint=eastwest;fontFamily=CaskaydiaCove NFM Light;fontStyle=0;fontSize=10;html=1;glass=0;fillOpacity=50;fillColor=#f5f5f5;fontColor=#333333;strokeColor=none;" parent="RBqscLzgSMPgarrKhITt-118" vertex="1">
          <mxGeometry y="40" width="160" height="20" as="geometry" />
        </mxCell>
        <mxCell id="RBqscLzgSMPgarrKhITt-121" value="atrr3: &lt;b&gt;Type3&lt;/b&gt;" style="text;align=left;verticalAlign=middle;spacingLeft=4;spacingRight=4;overflow=hidden;rotatable=0;points=[[0,0.5],[1,0.5]];portConstraint=eastwest;fontFamily=CaskaydiaCove NFM Light;fontStyle=0;fontSize=10;html=1;glass=0;fillOpacity=50;" parent="RBqscLzgSMPgarrKhITt-118" vertex="1">
          <mxGeometry y="60" width="160" height="20" as="geometry" />
        </mxCell>
        <mxCell id="DrOKHovd3dyKM4xMpCVP-36" value="" style="endArrow=none;html=1;rounded=1;flowAnimation=0;shadow=0;anchorPointDirection=1;curved=0;fillOpacity=50;fillColor=#e1d5e7;strokeColor=#9673a6;fontFamily=CaskaydiaCove NFM Light;" parent="RBqscLzgSMPgarrKhITt-118" edge="1">
          <mxGeometry width="50" height="50" relative="1" as="geometry">
            <mxPoint y="79.59999999999991" as="sourcePoint" />
            <mxPoint x="160" y="79.59999999999991" as="targetPoint" />
            <Array as="points" />
          </mxGeometry>
        </mxCell>
        <mxCell id="RBqscLzgSMPgarrKhITt-122" value="op(arg: &lt;b&gt;Type1&lt;/b&gt;): &lt;b&gt;Type1&lt;/b&gt;" style="text;align=left;verticalAlign=middle;spacingLeft=4;spacingRight=4;overflow=hidden;rotatable=0;points=[[0,0.5],[1,0.5]];portConstraint=eastwest;fontFamily=CaskaydiaCove NFM Light;fontStyle=0;fontSize=10;html=1;glass=0;fillOpacity=50;" parent="RBqscLzgSMPgarrKhITt-118" vertex="1">
          <mxGeometry y="80" width="160" height="20" as="geometry" />
        </mxCell>
        <mxCell id="RBqscLzgSMPgarrKhITt-123" value="Class2" style="swimlane;fontStyle=1;align=center;verticalAlign=middle;childLayout=stackLayout;horizontal=1;startSize=20;horizontalStack=0;resizeParent=1;resizeLast=0;collapsible=0;marginBottom=0;rounded=0;shadow=0;strokeWidth=2;fontFamily=CaskaydiaCove NFM Light;fontSize=10;swimlaneLine=1;fillColor=#dae8fc;glass=0;html=1;noLabel=0;snapToPoint=0;fixDash=0;fillOpacity=50;strokeColor=#6c8ebf;" parent="1" vertex="1">
          <mxGeometry x="370" y="1360" width="160" height="80" as="geometry">
            <mxRectangle x="220" y="130" width="160" height="26" as="alternateBounds" />
          </mxGeometry>
        </mxCell>
        <mxCell id="RBqscLzgSMPgarrKhITt-124" value="atrr1: &lt;b&gt;TypeX&amp;nbsp;&lt;/b&gt;&lt;i style=&quot;&quot;&gt;{id}&lt;/i&gt;" style="text;align=left;verticalAlign=middle;spacingLeft=4;spacingRight=4;overflow=hidden;rotatable=0;points=[[0,0.5],[1,0.5]];portConstraint=eastwest;fontFamily=CaskaydiaCove NFM Light;fontStyle=0;fontSize=10;html=1;glass=0;fillOpacity=50;" parent="RBqscLzgSMPgarrKhITt-123" vertex="1">
          <mxGeometry y="20" width="160" height="20" as="geometry" />
        </mxCell>
        <mxCell id="RBqscLzgSMPgarrKhITt-125" value="atrr2: &lt;b&gt;TypeY&lt;/b&gt;" style="text;align=left;verticalAlign=middle;spacingLeft=4;spacingRight=4;overflow=hidden;rotatable=0;points=[[0,0.5],[1,0.5]];portConstraint=eastwest;fontFamily=CaskaydiaCove NFM Light;fontStyle=0;fontSize=10;html=1;glass=0;fillOpacity=50;" parent="RBqscLzgSMPgarrKhITt-123" vertex="1">
          <mxGeometry y="40" width="160" height="20" as="geometry" />
        </mxCell>
        <mxCell id="RBqscLzgSMPgarrKhITt-126" value="op(arg: &lt;b&gt;Type&lt;/b&gt;): &lt;b&gt;Type&lt;/b&gt;" style="text;align=left;verticalAlign=middle;spacingLeft=4;spacingRight=4;overflow=hidden;rotatable=0;points=[[0,0.5],[1,0.5]];portConstraint=eastwest;fontFamily=CaskaydiaCove NFM Light;fontStyle=0;fontSize=10;html=1;glass=0;fillOpacity=50;" parent="RBqscLzgSMPgarrKhITt-123" vertex="1">
          <mxGeometry y="60" width="160" height="20" as="geometry" />
        </mxCell>
        <mxCell id="RBqscLzgSMPgarrKhITt-127" value="" style="shape=image;verticalLabelPosition=bottom;labelBackgroundColor=default;verticalAlign=top;aspect=fixed;imageAspect=0;image=data:image/png,iVBORw0KGgoAAAANSUhEUgAAAGAAAABgCAYAAADimHc4AAADsElEQVR4Xu2cz6tNURTH3xsaiegNKC8TZcDoDSg/SkZGlGSMlKTIgKQoSUkpA0UMDSRRMhTCwAwlA8UTUpT4B/iu3FOn7dx79zpW97t3vrtW7+7TOnud/fmcda50752e0qASmKZWV/EpCSDfBBIgAWQC5PLqAAkgEyCXVwdIAJkAubw6QALIBMjl1QESQCZALq8OkAAyAXJ5dYAEkAmQy6sDJIBMgFxeHSABZALk8jV3wE6w2zvgdxV/b5FZ9ipfq4Az2O2JZMd27GQvCsSTahRwHryODmF2GsdPEXm6S9cmYBT8ZvPH8eKcmwTphJoE5MCvTkItAjzwGwmH8eIi6cbOLluDgAvYzZFkR/OYr0iOvcd8Njlm7xV2frGjdAGXQO5gQu8j5hsQ75LjyzF/2iGm6E4oWcAo+Ha3/0oE2F6W1SahVAFd8L8A7jqEwbfRJcCOm4THiJWJoAOYXy7tWVSigGHw7bHztgVwmABLmUE8q0FCaQJy4Y/qgMZRFRJKEtAF/ytork/u/AbwqA5oS3iEyark0bMH8+slPI5KEXAFMPYlQAz+RsSbIaByBNipSxBPEgl2rv1HHl1CCQK6/p0/Dn7OI6jtbSkmDxGrE5km4RqzE9gC1mDzLxIA3zDfhHg9BkxuBzTLLBpIsJrtYW/u1iGUwRawHbu+3dr59wH8Vxk0vAJsycWIB4i1rfX347U9AimDLWABdn0fsRlhd/4WxMtMEn0E2NLWCfcQ9ub+HLEV8TOzZngaW0CzoTm8+IT47NhhXwFNCXsU5cp2XJYvtRQBvqv+k/2vAvrUDD9HAsKR+haUAB+v8GwJCEfqW1ACfLzCsyUgHKlvQQnw8QrPloBwpL4FJcDHKzxbAsKR+haUAB+v8GwJCEfqW1ACfLzCsyUgHKlvQQnw8QrPloBwpL4FJcDHKzxbAsKR+haUAB+v8GwJCEfqW1ACfLzCs2sWYB8t2TYgcgd/7TNG1Y2aBSwE7UMI+3SEfbD3R3X0ccE1C6iR91/XLAFkjRIgAWQC5PLqAAkgEyCXVwdIAJkAubw64D8WsAN7P4tIv0I6aST2LcxjiLuTLmz1mB1gPz1gX6YuYczjImYZF8IUYL96Yr/rUML4gItIf/5mItfFFLAbO7wxkV2OL7ILKTfHp8VnMAXE76bCFSWALE0CJIBMgFxeHSABZALk8uoACSATIJdXB0gAmQC5vDpAAsgEyOXVARJAJkAurw6QADIBcnl1gASQCZDLqwMkgEyAXP43vHJ6YQTvh9sAAAAASUVORK5CYII=;" parent="1" vertex="1">
          <mxGeometry x="500" y="1314" width="12" height="12" as="geometry" />
        </mxCell>
        <mxCell id="RBqscLzgSMPgarrKhITt-129" value="" style="rounded=0;whiteSpace=wrap;html=1;fillColor=none;strokeWidth=0.5;perimeterSpacing=0;glass=0;shadow=1;" parent="1" vertex="1">
          <mxGeometry x="710" y="1120" width="110" height="360" as="geometry" />
        </mxCell>
        <mxCell id="RBqscLzgSMPgarrKhITt-146" value="" style="rounded=0;whiteSpace=wrap;html=1;fillColor=none;glass=0;shadow=0;sketchStyle=rough;fillStyle=cross-hatch;gradientColor=none;strokeWidth=0.5;" parent="1" vertex="1">
          <mxGeometry x="180" y="1100" width="640" height="20" as="geometry" />
        </mxCell>
        <mxCell id="RBqscLzgSMPgarrKhITt-147" value="File" style="text;html=1;align=center;verticalAlign=middle;resizable=1;points=[];autosize=1;strokeColor=none;fillColor=none;fontFamily=CaskaydiaCove NFM Light;fontSize=10;fontStyle=0;labelBackgroundColor=default;spacing=0;fillOpacity=50;strokeWidth=0;" parent="1" vertex="1">
          <mxGeometry x="180" y="1100" width="40" height="20" as="geometry" />
        </mxCell>
        <mxCell id="RBqscLzgSMPgarrKhITt-150" value="200%" style="text;html=1;align=center;verticalAlign=middle;resizable=1;points=[];autosize=1;strokeColor=none;fillColor=none;fontFamily=CaskaydiaCove NFM Light;fontSize=10;fontStyle=0;labelBackgroundColor=default;spacing=0;fillOpacity=50;strokeWidth=0;" parent="1" vertex="1">
          <mxGeometry x="204" y="1450" width="40" height="20" as="geometry" />
        </mxCell>
        <mxCell id="RBqscLzgSMPgarrKhITt-151" value="" style="shape=image;verticalLabelPosition=bottom;labelBackgroundColor=default;verticalAlign=top;aspect=fixed;imageAspect=0;image=data:image/png,iVBORw0KGgoAAAANSUhEUgAAAGAAAABgCAYAAADimHc4AAAH60lEQVR4Xu2dd6gkRRDG7xBzFgOi4AMxYgAVxIBizqKIigkPRcWcxeydOWdFUE4UIyqYczgxI4IBc7ozgTlg9g/9friDbb/dfdPdNdMD2wXFzuzrqq6ubzpV1+ybPKlQVg9Mzlp7qXxSASDzQ1AAKABk9kDm6ksPKABk9kDm6ksPKABk9kDm6ksPKABk9kDm6ksPKABk9kDm6ksPKABk9kDm6rvQA9aSDzYTLyteSrx0j+fU5+fiz3o8S5/Pih/O7DPT6nMBsL1asZN4S/HigS36TeUfE98tvkv8U6B8p4q3CQB17SqeKl7ByAvfS88F4svEvxrpbFVNWwBsrVadJ16lodZ9Lb2ni69sSH9jatsAAMecMqQFz+tvD4kZ378V81TDv4iXEC/c49X0uZV4E/F8A/ShZxfxz415zFhx0wDcLHt372PzN/pumpi/4+xQ2kYCZ4lX7yP4ur6jxzGBd56aAmBBtfxB8bqeBxinLxSfL+YJT6U9pOBM8Zin6EvdbyF+LbWCpuWbAGA2Gf2EeEPP+I90z3KTT0uaR8puF2/rKWVeWFP8qWVl1rqaAOAKGXmIZ+hLumf8jhlu6rSZdlwsPsIr/Jbu2WewdO0kWQNwgFp5jdfSR3XPcNAGHa1KGOJcuk837Ds6SZYAsMR8w2vl+70nsM3N0nWqc1/PjsN1f3kXEbAE4B7vSWMpSPd/t+WGz676XhSv4dTL8nYZscXEb9ocKwBw9MueZTvr/k5Ta+srI6b0tnh+R+RkXbN07RRZAcCqZ2OnZU9596GNZh2/ZA/AH0OFe+WZkC9xZBkG6QU/ROprRMwCALr6K551zAdvRlrMHuHYnuwH+lwuUg9iyBNlreg4XRA76gxZAHCaWjPVadH1ut4noYXsZFd15Md0TSg6hgj+3eYIPqPrDWIUNSVjAQBjP3NARYQJ2AXHEpP28o7wirqOncjnlSwTMGcL0N9iYkuxw1psmwbKpQKwqDSz46zoT10w8fEZS5YAYAP7EHbgFRGbujXWOGu5VABoDAG1iu7XxXaJRr4jefe8gOv3EnSyB7jUkU8dIhNMGS+aCsDxUnmOo5bA2LDQcx3jrXsAMakZTsWs2DatY0gbZVIBIP5ypGOoxY7TGgDmEPYEFbE6a+pgKBizVABuUo2EhCuqO74SL6Ksu1EKNZ4neT/xxxMILqS/u0FAziIWC62sqfKpAPgTHF0bxwwjAnNWmQ0cQR5awzmsflxKbXeNKusVSTUER7qRzs11T8ZCWwAQ+j6sRlM5CJrbKcf17zXkGi+SCsCNsnAvx0quGZYmIs5uSUlJoS8kvJ545gRKFtDf3XU/1wxLnaBUANjWH+O0hHg8E3MKWU/CbOrcjRzXTMydoFQA/AMQACHekkL+PgAHcq4QS/4ydIYUbRSrzFouFQBSQDiPregFXfgH8aE2W2/ETpIB7E8qIonLP7oMtdGsfCoAZD+wxKv0WMRarIcgDmfWdjxGqJs5qBOUCgCN8Bu4p75zwxOhDbUEgFjVV84D8oeueWj47ARZAMBJ0xlOa4iEEhGNJT8czSHKJ5HKWKIy5FTEEpmlcmfIAgCy0171WsTykJTDGCKrgckdIoSwcowSyZAvxDkCvaAidu23ROprRMwCAAzzjySf03frJ1jMiRix/Oni2Kff75mpp2sJzRksagUAkxxzgUs76IZMiRzEoTwhbHpBRVN0cUMOY4bVaQUAdZAA5aYHcghOaiBPXtvkn9IBhtU7CaZtsQSg31xAwwGhzXTxfolZ68gGv4eaOjJWmSUA2HCw2H9JgoDdjuI2gl9HqZ6LPGcwqVdZFrF+akzOGgAMvVp8oGcxQwJLU/f82LpROB4AXCJNfawl8KPa0wQApKez3vbjLaxmOBxPOd/t18i59OUdYj89vSrL0+8n7EY5qwmhJgDATk66OKDvl4Nzlb4n+Sp2eVn5gRXOQWLiOqx6htEJ+uO5TTgwVWdTAFR2+ecFrr2cG7DOJ40xhIiO7i3mHQRi/T6xAVxJTP6PSyfqxk0gCKmzsbJNA4Dh/obIbwwvYpOn84D4O/Ggl/SIsu4mZlU1iMjS4G1MXugD2EW8gp1L0G0DAHxA/IVx2E05tHyqCIVMEbvvhA0C4VSVc2NXlnYE62oLAAyjLs4PpomtNkWs7RlW7h3QcgAnH5QIqEudWZq2CYDrAF4ZIoOOcIUbLKvzBPHS3eNi5pAnawiQvc1w5M8XZ+s7DmuyUi4A3EYP+rGOOVSInJ+ZvU+GFxz5YYTHmDcAzT+M54UN5oVs1AUA2mo8PYEe06nhaJQAAOjOgTBqAHQOhFEEoALhaV34P/pRN9XRbNgcVQBwIIdITMxZQRhlADoBwqgDkB2EAsC/o3m24agA8N90mgWEAsD/1zOAwGbNzaagxLXi/c2WPo6iAsB4r5LP9EhbIBQA+j/WrYFQABg8rrQCQgFg+MDeOAgFgIln1mEg8BNt/huYE2ssk3CQjyhMik2/wx8OdDjYiabSA+q7jh+kItXGfd11lu7H6qsYX7IAEOY9fjaZAF5Fyb8/VAAIA4DSpMeQVfGXmLf0U97gLP9NNdz/thKlB9j6M1hbASDYZbYCBQBbfwZrKwAEu8xWoABg689gbQWAYJfZChQAbP0ZrK0AEOwyW4ECgK0/g7UVAIJdZitQALD1Z7C2AkCwy2wFCgC2/gzWVgAIdpmtQAHA1p/B2v4BewM7cDHAZWMAAAAASUVORK5CYII=;" parent="1" vertex="1">
          <mxGeometry x="244" y="1454" width="12" height="12" as="geometry" />
        </mxCell>
        <mxCell id="RBqscLzgSMPgarrKhITt-152" value="" style="shape=image;verticalLabelPosition=bottom;labelBackgroundColor=default;verticalAlign=top;aspect=fixed;imageAspect=0;image=data:image/png,iVBORw0KGgoAAAANSUhEUgAAAGAAAABgCAYAAADimHc4AAAHfElEQVR4Xu2cZ8gkRRCG7xBzFsMP04eCARMGEAOKOYsiKiY8FBTTeUbM3pkzZgTlRDGigjmHM2BAEAN66Jk+ww8zillQ3+fcwbZvw2xP9XTjdkExM7vT1VX1Tqfqmpk4oVBSD0xMWnupfEIBIPFDUAAoACT2QOLqSwsoACT2QOLqSwsoACT2QOLqSwsoACT2QOLqSwsoACT2QOLqSwsoACT2QOLqc2gBG8gH24hXFi8rXq7D8+r4ufizDo/r+IL40cQ+M60+FQC7yoo9xNuLlx7Sol90/xPie8X3iH8YsnxWt7cJAHXtLZ4qXtXIC99JzsXiK8Q/G8lsVUxbAOwoqy4UrxnJuq8k9yzx1ZHkRxPbBgA45vQ+Fryo/x4R079/I+aphn8SLyNevMNr67iDeCvxQj3kIWcv8Y/RPGYsODYAt0rffbvo/LV+mybmf5w9LO2kAueK1+lS8E39RotjAM+eYgGwqCx/WLyx5wH66UvEF4l5wpvSfhJwjnjME/SFrrcTv9G0gtjlYwAwl5R+Sry5p/yHuma6ydGSFpCwO8U7e0IZF9YXf2pZmbWsGABcJSWP9BR9Rdf03yHdTR2bseMy8RTv5nd0zTqDqWuWZA3AobLyOs/Sx3VNd9AGHadK6OJcekAXrDuyJEsAmGK+5Vk5q/MEtrlYukF1HuzpcbSur8wRAUsA7vOeNKaCNP93WzZ8btX3sng9p16mtyuKLQZ+U3OsAMDRr3qa7anru021rS+MmNJM8cJOkdN0ztQ1K7IC4HlZtalj2XM692dBbRt+jCpkYK7o+04r4JgNWQCwrqx5zbNoDV0zA0lNH0iBlRwlTtQ5saNsyAKAM2XNVMeiG3V+UCYWEvy7w9GFlrpZJrrNVsMCAPp+xoCKCBOwCs6BFpQSDMDsLUB/iYktZdMNNQVgSRnDirOi33XCwMcxF2Idwgq8ImJTt+eiXFMAMIaAWkUP6mSXXIzr6MEa4HJHp5y6yMZd0Eky7HzHOAJj/ULPKbBhNjbDqZg41dYpFOlWZ9MWwDSP6V5FOa44V5NyrAkqelsnsTaGhsa1KQC3qEZCwhXV7V95Ai8Vs8kSQow7bEPWWVgtpvvcICB7EUuFVBqjTFMA/AEOx9LEB9HruqHbZsqgcv7/y+sHsiYGEbMfl5raPai+2v83VYQUETfSua2uyVgYRFYArKCK6sT72Qia31GK818HKdnG/00BuFlKHuAoyjnd0iBircCMqQkxs3HHn16yFtEf7ryfc7qlLKgpACzrj3csIR7vxl9yMHIVKeFGZDlnYM6CmgLgb4AACPGWnMifhs6QclvkomBTAEgBYT+2opd04m/Ep7b1VCnA+qQiZk/+1mUyHZsCQPYDU7xKTnaxFunG5syGjodJWSF/KAtqCgBG+Abur9/c8ERKQ4lVfek8IL/pnIeGYxZkAQA7TWc71hAJZZaTA02WEnQ5FTFFZqqcDVkAwIKKeb1Lm+iClMOURL7QuJhWUBGr9ttSKuXXbQEAMln9bukIz2FL0m+Z70s/srL//D8CwCDHWODSbrogUyIFsSn/nphWUNEkndyUQpl+dVq1AOogAcpNDyQXiNRAnry2yd+lAwyrdxJMbbEEoNtYgOGA0Ga6eLfErI2kg99CTR0ZKswSAHQ4Quy/JEHAbndxG8GvY1UPYW6XSFU8IdRBsctZA4C+14oP8xSnS2Bq6u4fW9uG4wHAJdLUx1oCP8ieGACQns5824+3fKLf2BynW7Kk+STsLrGfnl7VwdPvJ+xa1t9IVgwAUIjMCMLN3XJwrtHvvKABIE2IGc7hYuI6zHr60cn684ImlcUqGwuASl9/v8C1g32D6eJnhjSO8PKBYt5BINbvEwvA1cXk/7h0ii7cBIIhq41ze2wA0NpfEPmWsKVIns5D4m/FvV7SI8q6j5hZVS8iS4O3MdlrBtglvBuzS9BtAwB8QPyFfnitOM/R7FDIJLH7TlgvEM7QfW7sKpJK9cS2BQDaUBf7B9PEVosi5vZ0K/f3MBfAyQclAupSNlPTNgFwHcArQ2TQEa5wg2V1Hhs24Z8UM4Y8XaMAL2rQHfnjxXn6jc2apJQKANfoXh/rmEc3fST+uHOke8GRpJwPS4wbgOZvxpNXxLiQjHIAoC3jaQm0mKy6o1ECAKCzA2HUAMgOhFEEoALhWZ34H/0gkHhUW30i9YwqANjOJhIDc1IQRhmALEAYdQCSg1AA+KfDT9YdFQD+HXGTgFAA+O+UBxBYrLnZFNxxvfiQGLOjAsCcXuWTC4+1BUIBoPtj3RoIBYDe/UorIBQA+nfs0UEoAAweWfuBwCfa/DcwB0t07igA1HMXKTbdNn/Y0GFjJ5gKAPVdR/Y3qTbu667juh6rL2LOOwsAw3mPzyYTwKuo8feHCgDDAcDdpMeQVfGHmNA1X4YMpgJAsOtsChYAbPwYLKUAEOw6m4IFABs/BkspAAS7zqZgAcDGj8FSCgDBrrMpWACw8WOwlAJAsOtsChYAbPwYLKUAEOw6m4IFABs/BkspAAS7zqZgAcDGj8FSCgDBrrMpWACw8WOwlL8BCtsbcGAFkj0AAAAASUVORK5CYII=;" parent="1" vertex="1">
          <mxGeometry x="194" y="1455" width="10" height="10" as="geometry" />
        </mxCell>
        <mxCell id="RBqscLzgSMPgarrKhITt-155" value="" style="endArrow=block;html=1;rounded=1;curved=0;endFill=0;strokeWidth=1;fontFamily=CaskaydiaCove NFM Light;fontSize=10;startSize=6;endSize=10;fillOpacity=50;fillColor=#dae8fc;strokeColor=#6c8ebf;exitX=0;exitY=0.5;exitDx=0;exitDy=0;entryX=1;entryY=0.5;entryDx=0;entryDy=0;" parent="1" source="RBqscLzgSMPgarrKhITt-156" edge="1">
          <mxGeometry width="50" height="50" relative="1" as="geometry">
            <mxPoint x="400" y="1310" as="sourcePoint" />
            <mxPoint x="530" y="1430" as="targetPoint" />
            <Array as="points" />
          </mxGeometry>
        </mxCell>
        <mxCell id="RBqscLzgSMPgarrKhITt-156" value="Class3" style="swimlane;fontStyle=1;align=center;verticalAlign=middle;childLayout=stackLayout;horizontal=1;startSize=20;horizontalStack=0;resizeParent=1;resizeLast=0;collapsible=0;marginBottom=0;rounded=0;shadow=0;strokeWidth=2;fontFamily=CaskaydiaCove NFM Light;fontSize=10;swimlaneLine=1;fillColor=#dae8fc;glass=0;html=1;noLabel=0;snapToPoint=0;fixDash=0;fillOpacity=50;strokeColor=#6c8ebf;" parent="1" vertex="1">
          <mxGeometry x="580" y="1410" width="60" height="40" as="geometry">
            <mxRectangle x="220" y="130" width="160" height="26" as="alternateBounds" />
          </mxGeometry>
        </mxCell>
        <mxCell id="RBqscLzgSMPgarrKhITt-157" value="Class4" style="swimlane;fontStyle=1;align=center;verticalAlign=middle;childLayout=stackLayout;horizontal=1;startSize=20;horizontalStack=0;resizeParent=1;resizeLast=0;collapsible=0;marginBottom=0;rounded=0;shadow=0;strokeWidth=2;fontFamily=CaskaydiaCove NFM Light;fontSize=10;swimlaneLine=1;fillColor=#d5e8d4;glass=0;html=1;noLabel=0;snapToPoint=0;fixDash=0;fillOpacity=50;strokeColor=#82b366;" parent="1" vertex="1">
          <mxGeometry x="580" y="1350" width="60" height="40" as="geometry">
            <mxRectangle x="220" y="130" width="160" height="26" as="alternateBounds" />
          </mxGeometry>
        </mxCell>
        <mxCell id="RBqscLzgSMPgarrKhITt-158" value="" style="shape=image;verticalLabelPosition=bottom;labelBackgroundColor=default;verticalAlign=top;aspect=fixed;imageAspect=0;image=data:image/png,iVBORw0KGgoAAAANSUhEUgAAAGAAAABgCAYAAADimHc4AAADsElEQVR4Xu2cz6tNURTH3xsaiegNKC8TZcDoDSg/SkZGlGSMlKTIgKQoSUkpA0UMDSRRMhTCwAwlA8UTUpT4B/iu3FOn7dx79zpW97t3vrtW7+7TOnud/fmcda50752e0qASmKZWV/EpCSDfBBIgAWQC5PLqAAkgEyCXVwdIAJkAubw6QALIBMjl1QESQCZALq8OkAAyAXJ5dYAEkAmQy6sDJIBMgFxeHSABZALk8jV3wE6w2zvgdxV/b5FZ9ipfq4Az2O2JZMd27GQvCsSTahRwHryODmF2GsdPEXm6S9cmYBT8ZvPH8eKcmwTphJoE5MCvTkItAjzwGwmH8eIi6cbOLluDgAvYzZFkR/OYr0iOvcd8Njlm7xV2frGjdAGXQO5gQu8j5hsQ75LjyzF/2iGm6E4oWcAo+Ha3/0oE2F6W1SahVAFd8L8A7jqEwbfRJcCOm4THiJWJoAOYXy7tWVSigGHw7bHztgVwmABLmUE8q0FCaQJy4Y/qgMZRFRJKEtAF/ytork/u/AbwqA5oS3iEyark0bMH8+slPI5KEXAFMPYlQAz+RsSbIaByBNipSxBPEgl2rv1HHl1CCQK6/p0/Dn7OI6jtbSkmDxGrE5km4RqzE9gC1mDzLxIA3zDfhHg9BkxuBzTLLBpIsJrtYW/u1iGUwRawHbu+3dr59wH8Vxk0vAJsycWIB4i1rfX347U9AimDLWABdn0fsRlhd/4WxMtMEn0E2NLWCfcQ9ub+HLEV8TOzZngaW0CzoTm8+IT47NhhXwFNCXsU5cp2XJYvtRQBvqv+k/2vAvrUDD9HAsKR+haUAB+v8GwJCEfqW1ACfLzCsyUgHKlvQQnw8QrPloBwpL4FJcDHKzxbAsKR+haUAB+v8GwJCEfqW1ACfLzCsyUgHKlvQQnw8QrPloBwpL4FJcDHKzxbAsKR+haUAB+v8GwJCEfqW1ACfLzCs2sWYB8t2TYgcgd/7TNG1Y2aBSwE7UMI+3SEfbD3R3X0ccE1C6iR91/XLAFkjRIgAWQC5PLqAAkgEyCXVwdIAJkAubw64D8WsAN7P4tIv0I6aST2LcxjiLuTLmz1mB1gPz1gX6YuYczjImYZF8IUYL96Yr/rUML4gItIf/5mItfFFLAbO7wxkV2OL7ILKTfHp8VnMAXE76bCFSWALE0CJIBMgFxeHSABZALk8uoACSATIJdXB0gAmQC5vDpAAsgEyOXVARJAJkAurw6QADIBcnl1gASQCZDLqwMkgEyAXP43vHJ6YQTvh9sAAAAASUVORK5CYII=;" parent="1" vertex="1">
          <mxGeometry x="553.5" y="1410" width="12" height="12" as="geometry" />
        </mxCell>
        <mxCell id="RBqscLzgSMPgarrKhITt-161" value="" style="shape=image;verticalLabelPosition=bottom;labelBackgroundColor=default;verticalAlign=top;aspect=fixed;imageAspect=0;image=data:image/png,iVBORw0KGgoAAAANSUhEUgAAAGAAAABgCAYAAADimHc4AAAFN0lEQVR4Xu1cW8gVVRg9vxIpkSKKSORLKARqoKAEIZ68oJk+SIpZJopihgoKiQ+hUvpgCkKmooX3G14D0RRLA18KRI3E3lQwJRHJ8gK9eFlLzti0nTnncGbvvUb8Pvj498zZ+7usdb7ZM3v2+dsqJlIE2qTezXnFCBB/CYwAI0CMgNi9VYARIEZA7N4qwAgQIyB2bxVgBIgRELu3CjACxAiI3VsFGAFiBMTurQKMADECYvdWAUaAGAGxe6sAI+ApBPrgzAUxLtHcl60C9iHz8dCr0CHQS9GQEDkqEwGHgMHYFA6b0J4uwiWa27IQcAQZj3ayXoTjZdGQEDkqAwFZ4J+pXYLuiXCJ5lZJwAvIkuCPcLI9i+Oh0H+ioSB0pCLAwK+RriAgD/zziGnw8/LNT4ouNgH1wK8iqL+EVwOJ65gEGPgZFMciwMDPqa8YBBj4dS5uoQkw8BvMLCEJMPCbmNZDEnAY/t91YriN42miu52H8HsHequmfzeBT/AuoQiYj8hXBY++mAMuc5yAfg/ll+VaMXOtjQ5FwF6EM6G1kGSjvoPnBdCLMSMIRcDXSGJOzEQ8+loHW59Bo1yiQhHwBhL4BdrRAYbXYC62qaQrHHevab0Y/sCH46BclQ0qoQhg0FzR5GpnByeDWTjeEDSr5oxz3Wkk9D3o6zlDZuM8KyKYhCSAQVehx6AvpjLg3cgMKN94lUHaIYhPoEuhXTICWlz7LEisoQlg0MOgP2ZEPxPnvg2SVWtGu2HYZuiYjOFTcG57a2brj4pBACPg5Yi3eu6cwErYGCKxAjY/xdiVGeP5RTpZwG7m0FgE0HkVWvbLUQIS54X9DmKXcdwbet8nCTEJqEfCR/hwp8/EPNjitf9zxw7nivUebD8xEZsAOn47p5Sn4vxWn8l5sPUDbAxP2fkT7deg/3qw/diEgoC8SniADzjZlakS+iGe3xywP8TxrmedgKQS+JzgTsy8HO3wlaAHO7z7mZyyQ/BJghdRVUASfBUNd2IuWyXwYY0xJsLtMnxe4PNMYVETkFRC1u0dr71crSyD3EUQL6UCGYT2aR+BlYGAPBIO4ANu1C2DuLv3JiIorvgWlrIQkEXCxzj5TeEM/RhYDTNzU6bmof2VD9NlIoD5DITyLRpfjpRpmWIh4lmeAnwF2jxXWMpGQOGEAhngA1h6VXQtjr287zACmmOMT8R8Mk5kCRpfNDe0fi8joDkU+f6Cq7eJeFvJNQKaI+AndKumuvKXPFzdLSxGQGMIO6ELNw23T3V9BW2uCxUWI6AxhO+jy+5Ut3NoD2g8rLkeRkBjnH5GlzdT3Tj5chL2IkZAfRi5M+Kg06Uvjr39jtkIyCeAaz+/QnulumxBm1srvYkRkA0ld0pwBTT9A0LuaeLLmJve0IchIyAbzaydfVwLWuMTfNoyAv6PaGcc8o7nHQfoPTjm3ZB3MQL+g7SK5jZoTwdlzgP9vSNfM2gEVCqvAosvoR9kgMx/GvIW9IoR4AeBZHNuD5jj3lC+dePfLOEbL+6Su+HHdbYVZQVwgWsS9OWQCbZom/82hzs0vG0/yYtDRcAoBHS0RXBCDjtVuxzxVzNRREWAu9MgSrI5Tq7jPAHnLSbXeaKKigAmeRzq/qeU0MlzUuV/4aL+DuXON97lyERJgCzpMjk2AsRsGAFGgBgBsXurACNAjIDYvVWAESBGQOzeKsAIECMgdm8VYASIERC7twowAsQIiN1bBRgBYgTE7q0CjAAxAmL3VgFGgBgBsXurACNAjIDYvVWAESBGQOz+Ec9Tr2EGNdFGAAAAAElFTkSuQmCC;" parent="1" vertex="1">
          <mxGeometry x="275" y="1454" width="12" height="12" as="geometry" />
        </mxCell>
        <mxCell id="RBqscLzgSMPgarrKhITt-162" value="" style="shape=image;verticalLabelPosition=bottom;labelBackgroundColor=default;verticalAlign=top;aspect=fixed;imageAspect=0;image=data:image/png,iVBORw0KGgoAAAANSUhEUgAAAGAAAABgCAYAAADimHc4AAAFBElEQVR4Xu1cWahNURh2FTJlnkLdPKDwYAgPSqYyT4mizDKVSIYSrlJIiQdD5oxR5iGza3qRvBgepCgPEkIS8sD3cXZWq30c99y11r/Y/19/d+19z1nf/3/f/tdZe619TkkVNVEGSkTRFbyKCiB8EagAKoAwA8LwWgEqgDADwvBaASqAMAPC8FoBKoAwA8LwWgEqgDADwvBaASqAMAPC8FoBKoAwA8LwWgEqgDADwvBaASpAUAY6AO1RUMQCYFmpgDbg4Q68OfwofFwsImRFgN0gfIpB+hm0h8cgQlYEKAPZKy3Cz+N4iLQIWRGgDoguh3eNTYSsCEDe68GvwbtYIlzOVcI3iWrIkgCJCLfQ6BSLCFkTgLw3zA1HUYiQRQGiEiGrAkQjQpYFiEKErAsgLoIK8Gs6xA9mLlW0Dz07UgF+M94EzZuhRYhJgPpIvkHO6+KvRGwUgetGvHM27RwOhvq4UZNIMsmjdS6pQfjbD17LR4IO+5yPvjY57O9nVxICtAPuevgw18l47u8w+h/vGiOkAI0R/Dr4VNdJBOpvI3AWuMYKJUAPBH4K3qxAAq/w/9fwt64TrUB/XKzjZ5Bpn3HQHf6wAv381UtDCDAPkeQbO5nQCThXJLlIJm2zEMBWK4gvOOa+AVdSnZtvAVYg4lUpUb/BuWXwHfDvzrMqrkMOjTvhJidfcTwQXl5cl4Xf5VMAbgFySmfbcZyYDn9XOLxgr5gBpO0paP1x7qrPKHwJMABBX0oJ3MtUrpIEpZHPMZ/zfi/DjhmvDwGqAeAJvNQiZgyOj1WSLNdvFxl2fAuQ9qG7HKCrXbNXyf7EyWf8riugNvp8BuctfWIX0ODdbkxG8nelBNQX566HDNS1ANMQPGcSiXGG0xb+NGRSBbAm4P/7rYvP+2wnX0yuBeAMZ5QBxquMM55YbBIC2WsFww9czvODXvlJDC4FqI5O38NrGgn2RptLvDEYr/x98KpGMGJXvg8B+qBTc9rGeT43OmIwzud5t21b8DHfDsBlBUxG53sMgJgegrWHRoYpTj6DcCnAYvTH1c7EuOTMczHYHASx2QgkCvJdC7ABHZrLtQtxzHOxGO94W8LPwu/FEpTLCuAVxistsdlobIsl0VjjcCkAH/8uMxJlO20lNFYuROJyKYC9lr4FGc0VyeofAnUpwAjkfdLI/QraXBVV+wMDLgVoBZwXBhZvchrBP6kC+RlwKQBRHsA7GnCj0eaWo1oeBlwLsBY4Swws7ibxLlQtkACdgXPfwuKe6kVVIJ0B1xVAlCPwsQbcY7S7wbnqqGYx4EOAFsDgpkwNA4t3n/xebixPQERzIfgQgMktha+xsvTyZFk0TBYZiC8B2C9XIEdacZ3G8UT4hyLj/e/e5ksAEsWNmbtwc1rK88/h3JmKZaNGVFSfAjCx0hzRfBTdtoM4sQj+UpQBYXDfAjC9pnB+wYEzoTS7gZPcrboNj+Hh3KCShBCACXE4OgDnnXFs9hEBHYJzMTG4hRIgSYxfyuAuWa/gmRYG5MIhFxCDWmgBkuR6ojETPhjOISoGy5QAJuH8CRkmz6+I8pet6Nw6DGliT+9JVUBIcqPGUgGE5VEBVABhBoThtQJUAGEGhOG1AlQAYQaE4bUCVABhBoThtQJUAGEGhOG1AlQAYQaE4bUCVABhBoThtQJUAGEGhOG1AlQAYQaE4bUCVABhBoThtQJUAGEGhOF/AD2vqWHYCkRiAAAAAElFTkSuQmCC;" parent="1" vertex="1">
          <mxGeometry x="293" y="1454" width="12" height="12" as="geometry" />
        </mxCell>
        <mxCell id="RBqscLzgSMPgarrKhITt-163" value="&lt;div&gt;Fill&lt;/div&gt;" style="text;html=1;align=left;verticalAlign=middle;resizable=1;points=[];autosize=1;strokeColor=none;fillColor=none;fontFamily=CaskaydiaCove NFM Light;fontSize=6;fontStyle=0;labelBackgroundColor=default;spacing=0;fillOpacity=50;strokeWidth=0;" parent="1" vertex="1">
          <mxGeometry x="200" y="1140" width="30" height="20" as="geometry" />
        </mxCell>
        <mxCell id="RBqscLzgSMPgarrKhITt-164" value="Stroke" style="text;html=1;align=left;verticalAlign=middle;resizable=1;points=[];autosize=1;strokeColor=none;fillColor=none;fontFamily=CaskaydiaCove NFM Light;fontSize=6;fontStyle=0;labelBackgroundColor=default;spacing=0;fillOpacity=50;strokeWidth=0;" parent="1" vertex="1">
          <mxGeometry x="200" y="1170" width="40" height="20" as="geometry" />
        </mxCell>
        <mxCell id="RBqscLzgSMPgarrKhITt-165" value="" style="rounded=0;whiteSpace=wrap;html=1;strokeWidth=0.5;" parent="1" vertex="1">
          <mxGeometry x="200" y="1160" width="10" height="10" as="geometry" />
        </mxCell>
        <mxCell id="RBqscLzgSMPgarrKhITt-166" value="" style="rounded=0;whiteSpace=wrap;html=1;strokeWidth=2;fillColor=#e1d5e7;strokeColor=#9673a6;" parent="1" vertex="1">
          <mxGeometry x="213" y="1160" width="10" height="10" as="geometry" />
        </mxCell>
        <mxCell id="RBqscLzgSMPgarrKhITt-167" value="" style="rounded=0;whiteSpace=wrap;html=1;strokeWidth=0.5;fillColor=#dae8fc;strokeColor=#6c8ebf;" parent="1" vertex="1">
          <mxGeometry x="227" y="1160" width="10" height="10" as="geometry" />
        </mxCell>
        <mxCell id="RBqscLzgSMPgarrKhITt-168" value="" style="rounded=0;whiteSpace=wrap;html=1;strokeWidth=0.5;fillColor=#d5e8d4;strokeColor=#82b366;" parent="1" vertex="1">
          <mxGeometry x="240" y="1160" width="10" height="10" as="geometry" />
        </mxCell>
        <mxCell id="RBqscLzgSMPgarrKhITt-175" value="&lt;div&gt;Class&lt;/div&gt;" style="text;html=1;align=center;verticalAlign=middle;resizable=1;points=[];autosize=1;strokeColor=none;fillColor=none;fontFamily=CaskaydiaCove NFM Light;fontSize=10;fontStyle=0;labelBackgroundColor=default;spacing=0;fillOpacity=50;strokeWidth=0;" parent="1" vertex="1">
          <mxGeometry x="200" y="1300" width="90" height="20" as="geometry" />
        </mxCell>
        <mxCell id="RBqscLzgSMPgarrKhITt-180" value="&lt;div&gt;&lt;b&gt;Type1&lt;/b&gt;&lt;/div&gt;" style="text;html=1;align=left;verticalAlign=middle;resizable=1;points=[];autosize=1;strokeColor=none;fillColor=none;fontFamily=CaskaydiaCove NFM Light;fontSize=6;fontStyle=0;labelBackgroundColor=default;spacing=0;fillOpacity=50;strokeWidth=0;" parent="1" vertex="1">
          <mxGeometry x="720" y="1180" width="40" height="20" as="geometry" />
        </mxCell>
        <mxCell id="RBqscLzgSMPgarrKhITt-181" value="&lt;div&gt;&lt;b&gt;Type2&lt;/b&gt;&lt;/div&gt;" style="text;html=1;align=left;verticalAlign=middle;resizable=1;points=[];autosize=1;strokeColor=none;fillColor=none;fontFamily=CaskaydiaCove NFM Light;fontSize=6;fontStyle=0;labelBackgroundColor=default;spacing=0;fillOpacity=50;strokeWidth=0;" parent="1" vertex="1">
          <mxGeometry x="720" y="1200" width="40" height="20" as="geometry" />
        </mxCell>
        <mxCell id="RBqscLzgSMPgarrKhITt-182" value="&lt;div&gt;&lt;b&gt;Type3&lt;/b&gt; = ...&lt;/div&gt;" style="text;html=1;align=left;verticalAlign=middle;resizable=1;points=[];autosize=1;strokeColor=none;fillColor=none;fontFamily=CaskaydiaCove NFM Light;fontSize=6;fontStyle=0;labelBackgroundColor=default;spacing=0;fillOpacity=50;strokeWidth=0;" parent="1" vertex="1">
          <mxGeometry x="720" y="1220" width="60" height="20" as="geometry" />
        </mxCell>
        <mxCell id="RBqscLzgSMPgarrKhITt-183" value="&lt;div&gt;&lt;b&gt;TypeX&lt;/b&gt; = ...&lt;/div&gt;" style="text;html=1;align=left;verticalAlign=middle;resizable=1;points=[];autosize=1;strokeColor=none;fillColor=none;fontFamily=CaskaydiaCove NFM Light;fontSize=6;fontStyle=0;labelBackgroundColor=default;spacing=0;fillOpacity=50;strokeWidth=0;" parent="1" vertex="1">
          <mxGeometry x="720" y="1240" width="60" height="20" as="geometry" />
        </mxCell>
        <mxCell id="RBqscLzgSMPgarrKhITt-184" value="&lt;div&gt;&lt;b&gt;TypeY&lt;/b&gt; = ...&lt;/div&gt;" style="text;html=1;align=left;verticalAlign=middle;resizable=1;points=[];autosize=1;strokeColor=none;fillColor=none;fontFamily=CaskaydiaCove NFM Light;fontSize=6;fontStyle=0;labelBackgroundColor=default;spacing=0;fillOpacity=50;strokeWidth=0;" parent="1" vertex="1">
          <mxGeometry x="720" y="1260" width="60" height="20" as="geometry" />
        </mxCell>
        <mxCell id="RBqscLzgSMPgarrKhITt-185" value="&lt;div&gt;&lt;b&gt;Type&lt;/b&gt; = ...&lt;/div&gt;" style="text;html=1;align=left;verticalAlign=middle;resizable=1;points=[];autosize=1;strokeColor=none;fillColor=none;fontFamily=CaskaydiaCove NFM Light;fontSize=6;fontStyle=0;labelBackgroundColor=default;spacing=0;fillOpacity=50;strokeWidth=0;" parent="1" vertex="1">
          <mxGeometry x="720" y="1160" width="50" height="20" as="geometry" />
        </mxCell>
        <mxCell id="RBqscLzgSMPgarrKhITt-99" value="" style="shape=image;verticalLabelPosition=bottom;labelBackgroundColor=default;verticalAlign=top;aspect=fixed;imageAspect=0;image=data:image/png,iVBORw0KGgoAAAANSUhEUgAAAGAAAABgCAYAAADimHc4AAAGiElEQVR4Xu2deeh1QxjH3zcpfyBkXwtlyy7+IF5kCVlCr90rZEuEEH8jQigU4g3Zl7Jm3/8gW7KkLH/Yl+xKSXw/uVNP072/e+c55975nTnz1HTnzJmZ58z3e2bOmWeeOXfhgipZEViYVXtVvqASkPkmqARUAjIjkFl97QGVgMwIZFZfe0AlIDMCmdXXHlAJyIxAZvW1B3ScgEN1/Wco7J65HbnUPy/FNyg86L0Abw9YRQofVtjVq7iwcs+pPYcp/JLaLi8BMN/Xu34Uxs/qxF6zIOAkKbk5VVFP8h+ndt6R0lZPD3hVCnY2Sr4bPAfc42DKBc+jvDz/rldYw1zTM4rvnXKNHgJ+k4IVjJI9FWdI6qMA9lOm4d8qvlYKEB4C/o0UeOpIucb5nrcRHh7wGimc72g6rq8RHpUAB+JRkUpAcwwb1VAJaARf88KVgOYYNqqhtwRgDtlqAN17+v2pEYz+wr0kYEXh9YnCagPcmAxurPCHH0d3yV4SMMwccrIgvMUNo79gLwl4SXjFltiXlbabH0d3yd4RsI6g+kIhnsMAxHoKX7mh9BXsHQEXCadLRmB1sdIv9eHoLtU7Aj4VVBuOgOszpW/khtJXsFcEbC+M3jQ4vTiILzJpOyj+lg9LV6leEXCNIDrLwHT04Flwp0m7LsrjQjWhUG8IWEagfK2w+gCcv/S78iD+s36XG8S/1+/aCv8kgNgka28I2E8oPW6QulvxowbHd+n3SHNuf8WfaIJqQtneEADgRxhgDjCEEH/UnLsnIiQBz+SsvSBgecHygxlmGHIwQ4RhhuGJ82FIYnji/CxME70gYInAvM3cmzcqfnp0r5J2qkk7QfGlyfdzeoFeEIDj0x4Gm10Ufy3CirRXTBqOAjgMTFuKJyA2PXwpRDE5DBNMFOsOTszKNFE8AecL0MsN2pcpjjlimHDuQnPiAsWvmHIXKJ6ADwXgZgbELRQnbZhsqUQWZ4J8pMjmlQA/Atuo6DumOOBuPaa6DyLQt9Xxu/5LGFuy6B5wlZp/TuKQwhDEUBTkakXOHQujP0OxBMSmBxq6vgIP4bmEhzAP4yDTNk0US0Dsd5my4sXrKK+lQfZR5Gn/TT5nyWIJwM37GNP0UxS/aUIQmZAxMQuCtfTYCcumZiuSACyb1sL5t45xAydtEsEkgWmCYQwJllN+25YiCeDOtxsdHtHxQYnIPab8WEWD0APsukFidSOzF0kAPvd2o8NiHd+XiBjmaczUQXgG8CxoW4ojgAUXNjoErwcsmlg2U4ePeBjDcspCDW9FbUpxBPDOfqVB6HbFj3cixpDDsmWQ8xRhbtGmFEcAM19mwEGavELGq2jMiJkZtylFEYDNx9p5mk6i4oUagMc2hI2oLSmKAKyeWD+DvK9I092Xhw9AD3ViHcVK2pYUQwAPXUwI2P+nKbgusp4QA+fVWQwBrHix8jULaXNrbTEEsOa7ZBboS8dSBdaM25AiCOCdnQeu3QDO2P1jGwipjlUV7jd1/a44843UucWwyymCgHjW+rZaih9om4K/6HamQpy68DVqKkUQgMcb7+xBmIyxkNKmxBM8POesrcirq/MEMBTg8xkslzRoTYW2TQaxiaMt00TnCcDbGa/nINP054m/c3S2lF7rvfUH5TpPAP7+drw/Uce3NgRlVPF4cx/PBfYTNJFOE8BOF3a8BGHhhf2/0/LpxMeU/cTLGp3sqGFnjVc6TQB7vayTFWYHvr02TeFbdwcbBewpY2+ZVzpLwDDTA1+hesiLxITlmF/YxZ2mponOErCjgHjdgPar4itNCGLTbPFXv3ZShW84K+0sAQwDDAdB2OXObvdZSGz2OFBK7QaPlGvoLAHc7R8r8H7+pwKLMHz/YRayiZSwOIMJ5BuFTRXoFR7pLAE0Fk+38CZkvdk8QKSWCbohfZy33Vx1d5qAVNDmY/5KQGZWKgGVgMwIZFZfe0AlIDMCmdXXHtA3Alg8sR+obtPDIDOWyer5vwC78WOuLbRDK/d8uhhj2SGmNhxpz1R4IPnyu11g2Ofr71WT7PcsxrbQQ0BswxmrpEcZ9lVb7efsxzbdQwCVvqCwaGzt/crwpJprHQsmar2XALYAsXhS/0fmf5hZa2ZImtmf+AR2cXI9TWGDieguL9PnahJ/Y2X3MyS10tsDkpTUzKMRqARkvjsqAZWAzAhkVl97QCUgMwKZ1dceUAnIjEBm9bUHVAIyI5BZfe0BlYDMCGRW/x85o1lwwDCrNQAAAABJRU5ErkJggg==;" parent="1" vertex="1">
          <mxGeometry x="471" y="1134" width="12" height="12" as="geometry" />
        </mxCell>
        <mxCell id="RBqscLzgSMPgarrKhITt-111" value="" style="shape=image;verticalLabelPosition=bottom;labelBackgroundColor=default;verticalAlign=top;aspect=fixed;imageAspect=0;image=data:image/png,iVBORw0KGgoAAAANSUhEUgAAAGAAAABgCAYAAADimHc4AAAEcklEQVR4Xu2dWciMURjH51OWCxGlLEmfkCSRC+vFl31Jyha5lAsUWZIrkQtJKUood0pZbpAly4UbIlmKIrsLoUSRssX/38w04zPje8+S5yzPqX/ffO885znv+f/mvOu8Z1pKWkQdaBFtXRsvKQDhD4ECUADCDgg3ryNAAQg7INy8jgAFIOyAcPM6AhSAsAPCzesISARAf/RjMTQNGgENhl5BD6HL0HHopXBfg2zedQR0R6/2QCsL9O4IYtZBHwrEZhPiAqAfXLoIjTRw6yliZ0DPDOokHWoLoCtcuQ6NsXCHEEZDny3qJlfFFsBeOLHWwY2jqLvcoX4yVW0AcCf7wIMD45Hjhoc8UaewAbALPd7sodcHkWOVhzxRp7ABcKeyDXftOPcFQ1yTxF7fBsB7dLq3h45/R44uHvJEncIGwC+PPe6BXJ885osulQ2Ad+hlH0897YQ8PoF6Wq3/l8YGwC2s3lgPq/gYOYZ5yBN1ChsAO9HjLR56fQA5VnvIE3UKGwC+zgN4Nnwvavc8rLwNADa73/HTewX1eeU0+2ILwOVaEE3/CS2FTuZOwBYAfePV0AvQKAcTeQ8hawguAOi7yf2AU4if3wBW1hBcAVT9HIAXS6Dp0HCotfLGG/y9Bu2DrkKzoXMKoeaALwAmWyFCOgt1rqvEfcIC6LRJohRiJQDQt0YQfmD5wtwgSAFQCJXhKwlAIcABaQDZQwgBQNYQQgGQLYSQAGQJITQA2UEIEUBWEEIFkA2EkAFkASF0AMlDiAFA0hBiAZAshJgAJAkhNgDJQYgRQFIQYgWQDISYASQBIXYA/4IwD2/yazNBlxQANIPwDW/wazBBQ0gFQLQQUgIQJYTUAEQHIUUAUUFIFUA0EFIGEAWE1AEEDyEHAFUIZ/CCD5ZUSxDnCbkAoOltlZOyoCDkBCBICLkBCA5CjgCCgpArAEKYAvFJnW7tLpfOwf/nK/uMNfg7CeIDiSzPIc6VdAniRIR8BMup5AyAxk2FOKtj+0Iwcws4ewgxG6AvBWIbhuQOgKY0GwlFPb2LwFnQ26IV6uMUQNmNNoj3DeoPUU38vI3gidBXk0qMVQA1x07g5SJTA+viOX/qRtP6CqDsGKfNeWRqXoP4oVj2xCSPAii7xU/vehPjmsRux/JtJnkUQNktTh7lYwJBzgrAw9bCRQGUSpw2jU/q+yivkYTTNhQuCqBU6gm3PhZ2rONAI0+NgjtuO8oIesAR4MMLngv0NXHBR6Mm7YUa+wIrNsjDyt1EjnEmeRRA2a3D0AoT45rE7sDyrSZ5FEDZrQkQj2Bci54HODh4DHU56ZRt2Y2KxpOa6wio2c2jIV7T4e/fmBZu+ydDnA/bqCiAP+3iyRh/lqXVwEVeDZ0JcUpn46IA/rasFxZxXtRlBdzk7L+bIL0fUMAs0xCOAu4TeNOGExEOhPjjQ/ch3hHjdJt6R8zU1dDidRMkTEQBKABhB4Sb1xGgAIQdEG5eR4ACEHZAuHkdAQpA2AHh5nUEKABhB4Sb/w3a6cxhpNoCiQAAAABJRU5ErkJggg==;" parent="1" vertex="1">
          <mxGeometry x="492" y="1134.5" width="11" height="11" as="geometry" />
        </mxCell>
        <mxCell id="RBqscLzgSMPgarrKhITt-112" value="" style="shape=image;verticalLabelPosition=bottom;labelBackgroundColor=default;verticalAlign=top;aspect=fixed;imageAspect=0;image=data:image/png,iVBORw0KGgoAAAANSUhEUgAAAGAAAABgCAYAAADimHc4AAAFE0lEQVR4Xu2cW6hNQRjHz3GLxAtyr+PyIPIgl5JbuZS8ePDAG/FEUm65JYcUck9ePElJHihFIg8uJSFJxJtTJEIplDv/f+1d05y99sycPd+ZNcc39XX2Xmu+/8z8fzNr7cvs09ykJakDzUlb18abFEDiSaAAFEBiBxI3rytAASR2IHHzugIUQGIHEjevK0ABJHYgcfO6AhRAYgcSN68rQAEkdiBx87oCMgGwHP1sRXxCbEbcSNzvsjY/Hx07jOhX8euMq6O+K+ALhPpWxB7j7ySX8H96/gnGPbEy9s/429/lgw+AgRB5bwh9xGMe09LegQ84NMA4PAiPeaywKIC400gBxPUzWE0BBFsWN0EBxPUzWE0BBFsWN0EBxPUzWE0BBFsWN0EBxPUzWE0BBFsWN0EBxPUzWE0BBFsWN0EBxPUzWE0BBFsWN0EBxPUzWE0BBFsWN0EBxPUzWE0BBFsWN0EBxPUzWE0EQC9047vRlT943AfxI7h7XTuhJ4b3DdHNGCaP/ao3bJ+vJJn/GjHcENqGx/u7tp/Bo9uBjL1G1ks8Hu1S8QVwEkJrLLHbeH7HRdjVgTrn/+LcfcTVBjSYuggxFeE71tDmeiBhDmKmlcjtKZtcYr6dGgKhpwjzG3+XdqzzXyF0CXERccFDtDfqLEEsrphf3U7jkRqtyhsoTUBwH1Xd4guAItMQVxApt6S8RfvLELcKRjUXx88iOGFSFW7h4ap76NOBEADUG4bgbq95PuKCdTZC+4ilvwXPU9+XrqEPKxCcKF4lFEBVlDeXyYhxiO5eLYVV4tY+avO6WrS7bAPOHa3I2jdAszVeBu4iXiC4Wy12+Q3BZ4hHiLZQ8Y4CCG2nkfpcztsRM2qIcC8mr/mXa5zjbDyEKPU+1hwAVL3lBmG+GjNvqu/wnCvQvC/xpr0Kcb4R6p2VmxMAesJVwJe/5psd0yu+SWSde51lYKPt5AaA421F7CoY+E4cN98MNeqPeH6OAHjNb0MMttzha+8WxE9x1yI2kCOAolWwFScORPSmU6RyBTAF7jywHBqP5887xbWIjeQKwP7RCC3h+wWJ1/kR7W4vlSsAjoQf1pkly7Fk2emK6wpAdG26xRWA2yPRGgpA1F63uAJweyRaQwGI2usWVwBuj0RrKABRe93iCsDtkWgNBSBqr1tcAbg9Eq2hAETtdYsrALdHHapxCllLEdz7sw7RVqDiC2As8k8gpiPOIVZ3qFdCSWX7MG4hxmluRXyF59z2x32WdvEBQPP5HfJQI5l6PFaKUjYAC+DKdcsZQphdYyW4AIxCDveumpuKKc3/9sX/+lWKUjYANOU4gpces9RaCfUAjEHyTcQIS8fczKUA6jjAa/Za6zy3yM8yVkIRgJbKzLfNX4/jx0rhutGJMq6AavdcEGoBKDK/tL9nKDMAgqgHwb4xV6/59swvrfkcYNkBsI8HEfYPHdpwjLPdvk+MtI5xT+m+sl12zP7kAKBoJbh8LfXMr3Y+FwChELIwP5dLkDnTa12O7JWwGwdaXcujLOdzWgFVz+pB4C9kOPuzKTkCoLl7ENwJbZasZn6O9wB7VvNzo5UI/hD6NML+CCOLVZDrCsjCXJ9OKgAflwTrKABBc32kFYCPS4J1FICguT7SCsDHJcE6CkDQXB9pBeDjkmAdBSBoro+0AvBxSbCOAhA010daAfi4JFhHAQia6yOtAHxcEqyjAATN9ZFWAD4uCdZRAILm+kj/Ax1532FhFFHEAAAAAElFTkSuQmCC;" parent="1" vertex="1">
          <mxGeometry x="511" y="1134.5" width="12" height="12" as="geometry" />
        </mxCell>
        <mxCell id="RBqscLzgSMPgarrKhITt-100" value="" style="shape=image;verticalLabelPosition=bottom;labelBackgroundColor=default;verticalAlign=top;aspect=fixed;imageAspect=0;image=data:image/png,iVBORw0KGgoAAAANSUhEUgAAAGAAAABgCAYAAADimHc4AAADxElEQVR4Xu2cz6tNURTH75syV0ohcyV5+ZWhUkpMKJ5ioPwsykBMUUbKrwED6qUoDCgZCqGMyMBEDJB/wIj4rro35173enufvfb97rfvd9fu3a691vru7+esc987x7lTHQ2qA1PU6ireEQDyQSAAAkB2gFxeHSAAZAfI5dUBAkB2gFxeHSAAZAfI5dUBAkB2gFxeHSAAZAfI5dUBlQHYiv0cxdxM3leu8k+Q+DLmI68CXh1geW5g7vcSVniea9B3yEOjF4BzEHPKQ9A8ynEWWs+k6vUAsAEinqcKmafxa6H7dYp2DwD3IGBHQ8Snbns+ThFWYOwWaLJTz9KGtlm8nknR6gHgOwQsaohYh9evUkQVHLsR2p4NHGzLU/R6APg9IMAjZ8qecse67tfDLFdBud1zyO+6XwGIJyIA8Z65RgiAq53xyQQg3jPXCAFwtTM+mQDEe+YaIQCudsYnE4B4z1wjBMDVzvhkAhDvmWtEdQBuw55tmAtcbZo72Q8seYC5Z+6lfSuqArAbW7NLusyxC8XvRAgQgAizQpbuxKK7IQu7a6oCYHt6iWl3lhjDaq+PLFwdgMj905cLABmBAAhAvwOuRwTZ3JDyrvvVHbEQyzMecAIgAPEOkCN0ChKAjOdEsrkh5dUBIS5lXCMAGc0NSV0lgDXY+cKQ3TfWfMDrb5ExHsurA2D/vXu6pTOxl5JblukLqwrAXmztVoIrXxC7JCG+TWhVAOxZMnvuqu14g0A7fY1zVAXAjDuPac8UxI6fCDiB+TY2MHF9dQAS/Rh7uACM3fL+gk0An/FPy1L0TMrFuGMwyeaKFLOGxN7Ee/tSck4CgCMw6FKKSSNif+H9VZjvUnJPAoCPMCjpQboRBp/G+/Z8dNKYBACDH5pJhnWDr+CndVbyEIB4C68j5EB82PAIAYhz0tV8Ky0A4QDczRcAsvkCEAYgy5HfK61T0P8hZDVfHUA2XwBGA8h+5OsUVID56oB/IYztyFcHFGC+OuAvhLEf+eqAAsxXB3Q6V2HC4bC/x/Ks8vhD7CukLW7Isy+2e5FHbqusoy5Hu11SbqWqG+QB4D5ybW+IsPukBzFL+drKYQDsDpndoqQPDwCbsIun9J2EC6B94A6T6AHA8l7APBnuAW1lUeZ7fQj33DQABqLUcRzCLpYmzqsDevtajRf2W4X9XFnIZh9Ch32x+PtC9PTJ8AZQ4h6L1iQAZDwCIABkB8jl1QECQHaAXF4dIABkB8jl1QECQHaAXF4dIABkB8jl1QECQHaAXF4dIABkB8jl/wC0FLRhZktweQAAAABJRU5ErkJggg==;" parent="1" vertex="1">
          <mxGeometry x="531" y="1134" width="12" height="12" as="geometry" />
        </mxCell>
        <mxCell id="DrOKHovd3dyKM4xMpCVP-2" value="" style="rounded=0;whiteSpace=wrap;html=1;strokeWidth=0.5;fillColor=#ffe6cc;strokeColor=#d79b00;" parent="1" vertex="1">
          <mxGeometry x="253" y="1160" width="10" height="10" as="geometry" />
        </mxCell>
        <mxCell id="DrOKHovd3dyKM4xMpCVP-3" value="" style="rounded=0;whiteSpace=wrap;html=1;strokeWidth=0.5;fillColor=#fff2cc;strokeColor=#d6b656;" parent="1" vertex="1">
          <mxGeometry x="267" y="1160" width="10" height="10" as="geometry" />
        </mxCell>
        <mxCell id="DrOKHovd3dyKM4xMpCVP-4" value="" style="rounded=0;whiteSpace=wrap;html=1;strokeWidth=0.5;fillColor=#f8cecc;strokeColor=#b85450;" parent="1" vertex="1">
          <mxGeometry x="280" y="1160" width="10" height="10" as="geometry" />
        </mxCell>
        <mxCell id="DrOKHovd3dyKM4xMpCVP-6" value="" style="rounded=0;whiteSpace=wrap;html=1;strokeWidth=0.5;" parent="1" vertex="1">
          <mxGeometry x="200" y="1190" width="10" height="10" as="geometry" />
        </mxCell>
        <mxCell id="DrOKHovd3dyKM4xMpCVP-7" value="" style="rounded=0;whiteSpace=wrap;html=1;strokeWidth=2;fillColor=#e1d5e7;strokeColor=#9673a6;" parent="1" vertex="1">
          <mxGeometry x="213" y="1190" width="10" height="10" as="geometry" />
        </mxCell>
        <mxCell id="DrOKHovd3dyKM4xMpCVP-8" value="" style="rounded=0;whiteSpace=wrap;html=1;strokeWidth=0.5;fillColor=#dae8fc;strokeColor=#6c8ebf;" parent="1" vertex="1">
          <mxGeometry x="227" y="1190" width="10" height="10" as="geometry" />
        </mxCell>
        <mxCell id="DrOKHovd3dyKM4xMpCVP-9" value="" style="rounded=0;whiteSpace=wrap;html=1;strokeWidth=0.5;fillColor=#d5e8d4;strokeColor=#82b366;" parent="1" vertex="1">
          <mxGeometry x="240" y="1190" width="10" height="10" as="geometry" />
        </mxCell>
        <mxCell id="DrOKHovd3dyKM4xMpCVP-10" value="" style="rounded=0;whiteSpace=wrap;html=1;strokeWidth=0.5;fillColor=#ffe6cc;strokeColor=#d79b00;" parent="1" vertex="1">
          <mxGeometry x="253" y="1190" width="10" height="10" as="geometry" />
        </mxCell>
        <mxCell id="DrOKHovd3dyKM4xMpCVP-11" value="" style="rounded=0;whiteSpace=wrap;html=1;strokeWidth=0.5;fillColor=#fff2cc;strokeColor=#d6b656;" parent="1" vertex="1">
          <mxGeometry x="267" y="1190" width="10" height="10" as="geometry" />
        </mxCell>
        <mxCell id="DrOKHovd3dyKM4xMpCVP-12" value="" style="rounded=0;whiteSpace=wrap;html=1;strokeWidth=0.5;fillColor=#f8cecc;strokeColor=#b85450;" parent="1" vertex="1">
          <mxGeometry x="280" y="1190" width="10" height="10" as="geometry" />
        </mxCell>
        <mxCell id="DrOKHovd3dyKM4xMpCVP-13" value="&lt;div&gt;Fill style&lt;/div&gt;" style="text;html=1;align=left;verticalAlign=middle;resizable=1;points=[];autosize=1;strokeColor=none;fillColor=none;fontFamily=CaskaydiaCove NFM Light;fontSize=6;fontStyle=0;labelBackgroundColor=default;spacing=0;fillOpacity=50;strokeWidth=0;" parent="1" vertex="1">
          <mxGeometry x="200" y="1200" width="50" height="20" as="geometry" />
        </mxCell>
        <mxCell id="DrOKHovd3dyKM4xMpCVP-15" value="" style="rounded=0;whiteSpace=wrap;html=1;strokeWidth=2;fillColor=#B3B3B3;fontColor=#333333;strokeColor=#666666;fillStyle=solid;sketch=1;curveFitting=1;jiggle=0;" parent="1" vertex="1">
          <mxGeometry x="200" y="1220" width="10" height="10" as="geometry" />
        </mxCell>
        <mxCell id="DrOKHovd3dyKM4xMpCVP-16" value="" style="rounded=0;whiteSpace=wrap;html=1;strokeWidth=0.5;fillColor=#B3B3B3;strokeColor=#666666;fontColor=#333333;fillStyle=hatch;sketch=1;curveFitting=1;jiggle=0;" parent="1" vertex="1">
          <mxGeometry x="213" y="1220" width="10" height="10" as="geometry" />
        </mxCell>
        <mxCell id="DrOKHovd3dyKM4xMpCVP-17" value="" style="rounded=0;whiteSpace=wrap;html=1;strokeWidth=0.5;fillColor=#B3B3B3;strokeColor=#666666;fillStyle=dots;fontColor=#333333;sketch=1;curveFitting=1;jiggle=0;" parent="1" vertex="1">
          <mxGeometry x="227" y="1220" width="10" height="10" as="geometry" />
        </mxCell>
        <mxCell id="DrOKHovd3dyKM4xMpCVP-18" value="" style="rounded=0;whiteSpace=wrap;html=1;strokeWidth=0.5;fillColor=#B3B3B3;strokeColor=#666666;fillStyle=cross-hatch;fontColor=#333333;sketch=1;curveFitting=1;jiggle=0;" parent="1" vertex="1">
          <mxGeometry x="240" y="1220" width="10" height="10" as="geometry" />
        </mxCell>
        <mxCell id="DrOKHovd3dyKM4xMpCVP-19" value="" style="rounded=0;whiteSpace=wrap;html=1;strokeWidth=0.5;fillColor=#B3B3B3;strokeColor=#666666;fillStyle=dashed;fontColor=#333333;sketch=1;curveFitting=1;jiggle=0;" parent="1" vertex="1">
          <mxGeometry x="253" y="1220" width="10" height="10" as="geometry" />
        </mxCell>
        <mxCell id="DrOKHovd3dyKM4xMpCVP-20" value="" style="rounded=0;whiteSpace=wrap;html=1;strokeWidth=0.5;fillColor=#B3B3B3;strokeColor=#666666;fillStyle=dashed;fontColor=#333333;sketch=1;curveFitting=1;jiggle=0;" parent="1" vertex="1">
          <mxGeometry x="267" y="1220" width="10" height="10" as="geometry" />
        </mxCell>
        <mxCell id="DrOKHovd3dyKM4xMpCVP-21" value="" style="rounded=0;whiteSpace=wrap;html=1;strokeWidth=0.5;fillColor=#B3B3B3;strokeColor=#666666;fillStyle=zigzag-line;fontColor=#333333;sketch=1;curveFitting=1;jiggle=0;" parent="1" vertex="1">
          <mxGeometry x="280" y="1220" width="10" height="10" as="geometry" />
        </mxCell>
        <mxCell id="DrOKHovd3dyKM4xMpCVP-22" value="&lt;div&gt;Stroke style&lt;/div&gt;" style="text;html=1;align=left;verticalAlign=middle;resizable=1;points=[];autosize=1;strokeColor=none;fillColor=none;fontFamily=CaskaydiaCove NFM Light;fontSize=6;fontStyle=0;labelBackgroundColor=default;spacing=0;fillOpacity=50;strokeWidth=0;" parent="1" vertex="1">
          <mxGeometry x="200" y="1230" width="60" height="20" as="geometry" />
        </mxCell>
        <mxCell id="DrOKHovd3dyKM4xMpCVP-23" value="" style="rounded=0;whiteSpace=wrap;html=1;strokeWidth=2;fillColor=none;fontColor=#333333;strokeColor=#666666;fillStyle=solid;sketch=1;curveFitting=1;jiggle=0;" parent="1" vertex="1">
          <mxGeometry x="200" y="1250" width="10" height="10" as="geometry" />
        </mxCell>
        <mxCell id="DrOKHovd3dyKM4xMpCVP-24" value="" style="rounded=0;whiteSpace=wrap;html=1;strokeWidth=0.5;fillColor=none;strokeColor=#666666;fontColor=#333333;fillStyle=hatch;sketch=1;curveFitting=1;jiggle=0;dashed=1;" parent="1" vertex="1">
          <mxGeometry x="213" y="1250" width="10" height="10" as="geometry" />
        </mxCell>
        <mxCell id="DrOKHovd3dyKM4xMpCVP-25" value="" style="rounded=0;whiteSpace=wrap;html=1;strokeWidth=0.5;fillColor=none;strokeColor=#666666;fillStyle=dots;fontColor=#333333;sketch=1;curveFitting=1;jiggle=0;dashed=1;dashPattern=8 8;" parent="1" vertex="1">
          <mxGeometry x="227" y="1250" width="10" height="10" as="geometry" />
        </mxCell>
        <mxCell id="DrOKHovd3dyKM4xMpCVP-26" value="" style="rounded=0;whiteSpace=wrap;html=1;strokeWidth=0.5;fillColor=none;strokeColor=#666666;fillStyle=cross-hatch;fontColor=#333333;sketch=1;curveFitting=1;jiggle=0;dashed=1;dashPattern=12 12;" parent="1" vertex="1">
          <mxGeometry x="240" y="1250" width="10" height="10" as="geometry" />
        </mxCell>
        <mxCell id="DrOKHovd3dyKM4xMpCVP-27" value="" style="rounded=0;whiteSpace=wrap;html=1;strokeWidth=0.5;fillColor=none;strokeColor=#666666;fillStyle=dashed;fontColor=#333333;sketch=1;curveFitting=1;jiggle=0;dashed=1;dashPattern=1 1;" parent="1" vertex="1">
          <mxGeometry x="253" y="1250" width="10" height="10" as="geometry" />
        </mxCell>
        <mxCell id="DrOKHovd3dyKM4xMpCVP-28" value="" style="rounded=0;whiteSpace=wrap;html=1;strokeWidth=0.5;fillColor=none;strokeColor=#666666;fillStyle=dashed;fontColor=#333333;sketch=1;curveFitting=1;jiggle=0;dashed=1;dashPattern=1 2;" parent="1" vertex="1">
          <mxGeometry x="267" y="1250" width="10" height="10" as="geometry" />
        </mxCell>
        <mxCell id="DrOKHovd3dyKM4xMpCVP-29" value="" style="rounded=0;whiteSpace=wrap;html=1;strokeWidth=0.5;fillColor=none;strokeColor=#666666;fillStyle=zigzag-line;fontColor=#333333;sketch=1;curveFitting=1;jiggle=0;dashed=1;dashPattern=1 4;" parent="1" vertex="1">
          <mxGeometry x="280" y="1250" width="10" height="10" as="geometry" />
        </mxCell>
        <mxCell id="RBqscLzgSMPgarrKhITt-117" value="0..*" style="text;html=1;align=center;verticalAlign=middle;resizable=1;points=[];autosize=1;strokeColor=none;fillColor=none;fontFamily=CaskaydiaCove NFM Light;fontSize=8;spacing=0;fillOpacity=50;" parent="1" vertex="1">
          <mxGeometry x="450" y="1280" width="40" height="20" as="geometry" />
        </mxCell>
        <mxCell id="DrOKHovd3dyKM4xMpCVP-31" value="&lt;div&gt;Stroke width&lt;/div&gt;" style="text;html=1;align=left;verticalAlign=middle;resizable=1;points=[];autosize=1;strokeColor=none;fillColor=none;fontFamily=CaskaydiaCove NFM Light;fontSize=6;fontStyle=0;labelBackgroundColor=default;spacing=0;fillOpacity=50;strokeWidth=0;" parent="1" vertex="1">
          <mxGeometry x="200" y="1259" width="60" height="20" as="geometry" />
        </mxCell>
        <mxCell id="DrOKHovd3dyKM4xMpCVP-32" value="" style="rounded=0;whiteSpace=wrap;html=1;strokeWidth=0.5;fillColor=none;fontColor=#333333;strokeColor=#666666;fillStyle=solid;sketch=1;curveFitting=1;jiggle=0;" parent="1" vertex="1">
          <mxGeometry x="200" y="1280" width="10" height="10" as="geometry" />
        </mxCell>
        <mxCell id="DrOKHovd3dyKM4xMpCVP-33" value="" style="rounded=0;whiteSpace=wrap;html=1;strokeWidth=1;fillColor=#f5f5f5;strokeColor=#666666;fontColor=#333333;fillStyle=solid;sketch=1;curveFitting=1;jiggle=0;" parent="1" vertex="1">
          <mxGeometry x="213" y="1280" width="10" height="10" as="geometry" />
        </mxCell>
        <mxCell id="DrOKHovd3dyKM4xMpCVP-34" value="" style="rounded=0;whiteSpace=wrap;html=1;strokeWidth=2;fillColor=none;strokeColor=#666666;fillStyle=dots;fontColor=#333333;sketch=1;curveFitting=1;jiggle=0;" parent="1" vertex="1">
          <mxGeometry x="227" y="1280" width="10" height="10" as="geometry" />
        </mxCell>
        <mxCell id="DrOKHovd3dyKM4xMpCVP-35" value="" style="rounded=0;whiteSpace=wrap;html=1;strokeWidth=3;fillColor=none;strokeColor=#666666;fillStyle=cross-hatch;fontColor=#333333;sketch=1;curveFitting=1;jiggle=0;" parent="1" vertex="1">
          <mxGeometry x="240" y="1280" width="10" height="10" as="geometry" />
        </mxCell>
        <mxCell id="DrOKHovd3dyKM4xMpCVP-43" value="Name" style="text;html=1;align=left;verticalAlign=middle;resizable=1;points=[];autosize=1;strokeColor=none;fillColor=none;fontFamily=CaskaydiaCove NFM Light;fontSize=6;fontStyle=0;labelBackgroundColor=default;spacing=0;fillOpacity=50;strokeWidth=0;" parent="1" vertex="1">
          <mxGeometry x="200" y="1320" width="30" height="10" as="geometry" />
        </mxCell>
        <mxCell id="DrOKHovd3dyKM4xMpCVP-44" value="&amp;nbsp;Class1" style="rounded=0;whiteSpace=wrap;html=1;horizontal=1;fontFamily=CaskaydiaCove NFM Light;align=left;fillColor=none;fontColor=#333333;strokeColor=#666666;glass=0;fontSize=6;strokeWidth=0.5;" parent="1" vertex="1">
          <mxGeometry x="200" y="1336" width="90" height="14" as="geometry" />
        </mxCell>
        <mxCell id="DrOKHovd3dyKM4xMpCVP-45" value="&lt;div&gt;Types&lt;/div&gt;" style="text;html=1;align=center;verticalAlign=middle;resizable=1;points=[];autosize=1;strokeColor=none;fillColor=none;fontFamily=CaskaydiaCove NFM Light;fontSize=10;fontStyle=0;labelBackgroundColor=default;spacing=0;fillOpacity=50;strokeWidth=0;" parent="1" vertex="1">
          <mxGeometry x="740" y="1130" width="50" height="20" as="geometry" />
        </mxCell>
        <mxCell id="DrOKHovd3dyKM4xMpCVP-46" value="+ add attribute" style="text;html=1;align=left;verticalAlign=middle;resizable=1;points=[];autosize=1;strokeColor=none;fillColor=none;fontFamily=CaskaydiaCove NFM Light;fontSize=6;fontStyle=0;labelBackgroundColor=default;spacing=0;fillOpacity=50;strokeWidth=0;" parent="1" vertex="1">
          <mxGeometry x="200" y="1350" width="70" height="20" as="geometry" />
        </mxCell>
        <mxCell id="DrOKHovd3dyKM4xMpCVP-47" value="+ add operation" style="text;html=1;align=left;verticalAlign=middle;resizable=1;points=[];autosize=1;strokeColor=none;fillColor=none;fontFamily=CaskaydiaCove NFM Light;fontSize=6;fontStyle=0;labelBackgroundColor=default;spacing=0;fillOpacity=50;strokeWidth=0;" parent="1" vertex="1">
          <mxGeometry x="200" y="1360" width="70" height="20" as="geometry" />
        </mxCell>
        <mxCell id="DrOKHovd3dyKM4xMpCVP-50" value="" style="shape=image;verticalLabelPosition=bottom;labelBackgroundColor=default;verticalAlign=top;aspect=fixed;imageAspect=0;image=data:image/png,iVBORw0KGgoAAAANSUhEUgAAAGAAAABgCAYAAADimHc4AAALIUlEQVR4Xu2dBcwlRRLHd5HgDocfi9sdTvBjFwiSwx3uCN+hBxzuFhZ3J4FDd/HgDocuHBYcDj9kFw9O0ECQ/y+8hqJ573vTPT3T78tOJZVv3mxPVXVVa1V17+BBDWTVwOCs3BvmgxoDZG4EjQEaA2TWQGb2TQ9oDJBZA5nZNz2gMUBmDWRm3/SAxgCZNZCZfdMDGgN01cCSKjGvcK4W/lF/pxFOLZyh9fW7+vuJ8EPhGOErLXxJfx/vyiFjgV7sAUtJH+sLlxcuJpywpH6+1vePCf8rvFr4REl6ST/vFQNMq1ptJewTzp+0hr8n9j+9GtHCjyvm1ZV8bgPMIgn3Em4rnLirtGkLfCly/xaeIGQIywK5DMD4faTwnwVqzdABvidkjH9fSMv9qPUMiT8ImRfA6YT0qJmEKwiXK8DjdJU5UPh5gbJJi+QwwL9Ug8OEU3WoCZPp5cJrhHcmqu1qorNRCyfvQBPj7ic8LxHPQmTqNMCULaUO6yDZi3p/gPDaQpLHF9pMnx4hnKMDiVv1fmPhF/Esin9ZlwHmk0hUbEgb0d7Su4OEI4uLnaTkTqJyiJAhywcaw1pClrOVQh0GoPtfJZzUq8k3rZZ4ov7ynAMYjg4WshDw4VO9WEd4X5WCVW2APgl/QZsK3Kx3rHyyrT48mebUb3pguwl7c72/rCojVGmA3SX0SZ7gjKt7C8+qqkIl6e6v749qQ2MXvWOllByqMkC7ls+y8S/C55PXIi1Blq7MV5N4ZLfQ74vTshpUSVbEBhLyCuE4RljW7rgW/p+6AhXRW1x0/yNkX+Hgez3gIrkhJc/UPWARCfekJyCT2dJCHGMDCVi5PSRk+ewAv9ISwmS9OKUBJpNgzwiHGIG/1fOKwocHkuaNrMvo+R7hBOYdvZiG9lWKOqU0ACuFTT2h2NBcmUJQQ4N5BPf0bMLZhbgdWE29LqTF4ragpaYCNm6XesTO1W9WcaUhlQFWlyRMXBaO1499Skv4K4Ft9MhOGaV3g4tU4DQhbugUcIqI7OoRYkc/qizxVAZ4zVMMQw7dNwUQdGEjV8Sp5vM7Vi/w76QAjMnk7IDdcmnXeQoDsJPEueaAtf4CwjcT1JqhBoccbutYuE0frhH7sfkO39GzwonMuz317O91gliVNQDuBXw5UxiuO+r5zCAp2hdG+bgBcDVbeEE/zhDiMcUtjUJcuJII2m5C3+1BD8IbWhZwWTC0OsCDSog0es4pa4B9xfwYIxCT4LJla9lSKq3N91gyDjO29wdMyrg/1vQK4Vy7KYFshDQXNXQw+KmxdMsagCDJ9IZ5komp1cp8B9n2en92QEWJ/7JxcvCUp7gAUr8piiHtZuxt/Y4eIssYwF+epZp4Z1aFGNYsxEymTN6+s4+l6xuxmjff0TsXNL+jHXZlDHCXBFjJCLGenq9LUDlIsJ/YQciaH4UxH8S4rImqIZeDLfVwYQIZ+0TDennv0O9VY+jGGoC1OEtPB7gbOoUYY+Ry36B46MbupPFi2vGZfcTRZQRqfUsc4TOPzqz67ffcrqxiDeBPvueI03ZdudVfgICK7ZUEf9oFX2Ik83sXdKEfBLEGwFNouxw7Yd71GvRJIDtUHKrfwxMJ+TfRse5pgkz+yqsrq1gD/OhRJqcnei3cVcr4AiyR6a0ONtEDrvIUMKOIvGMIsQHFIRkEMQbAJXC/4ZJq7R8keMHCKAhFOWBT90HBb4sUe1WF7F4FV3VQLmqMAcgmYCfqIOW4WqTSRcvsrIJ208YmjDV8SmAIYihysLUezg9hEGMAlI8RHDD5Mgn3ErBGZ61ugZ77YGIhSWsZbmgep2c75HVlF2MA1ryrGMo8syfoFWA5eLcQ/5CDYMUUrAxxYruvYMVl9x1dycQYgIiQrRx7gtFdOdVTgDAijYG8UAepdujtakCcmwCQg2B3R4wB2N67gxEwJnCdPc1bMizUavk2kP6y3uEcJCOjCiAeYOPDbE7JMSoMMQZgB2gTXHEHx7gJCgtZoCDKZ2Vml4G4MFA+zrKqAEckDkkHZH9Y52RXvjEG8PcAMTS6ChZQgGUmSz+73EQRTLqV53aKh9UHe6Ggcw4xyus1AzyiSnOOzAHp7Tjx/FVQgE2DipbSR4wBGE85YOGAvBnfMRVUgxKFOVRBqrkF4rZ1nQPDUWjnP3RDQKgwxBhgjKgThnOA/95uyQszT1CQylsvbKpwaFHRWPLa+MJo/S6StfEL/RgD+MGIP4taXd3dKoa0dwLuDkgCsA2jqBLLlPMzAUlMWziEYIwBbhEDm2WQKtYaIjdlOWBnXeDD9RtvZ51AyJPQpwNClbjAC0OMAU4WdQLRDipL3e5Si1H6d9IeHdAany5c8zQFSbVnl+0geMcdYwBONtq0E/LmMULdQGIUETMH7AFqOddleJIkYFMUa3HG+e5o1uC4YesG/C4uc5kzv3+tWwDxe05IEpoD8pL87PB+xYrpAeOJIudp3RUCP7QUUfsZ2wwKtyxZilsXB42AXujvC5IbAIKkC65sKNP6mJzHJiC6Rnaeg+v1sG6oAmJ6ADzILuCkuwOCEIx/YxOQdr+hqXBUhlysAfy0FIYfdoAcyBgbgKGG4Wf8VmUZdsiOC96QxhoAvpwcGWq0nTIxq9eN2CcBbbYFGSFkhgRDGQP40SDy561TLFiYAfIBOuO829xGXtI07XxQuCplDAATP+uAI542Y6KwIBEFCbysLWQ4uFHIEaU6AJ5MuA7QAf6wKChrAD9f/gFJQZiuaiD0SNzXxQBYAnIerY6VGBc+/clUsNQhjbIGoPXhDbRHOTnLVfWVLxzcoLdZIA5ALLjK6Jx/kh5vLJNvdFJaWQOgAF8oEnXnEaZMgPJ7VKfNTvBONKCr4vbA/WGBQ4j2xEwAuZ+LpjAASzEEsxlirJDYqAXtCgOk94NC7tMheiBekRo4J4yLwR7KIwDPUPhdGWYpDAB/lO3fbjVc76pyD3O/0OFexaN2ogWV5zvd+IyzETS0UpDKAAjhp+nxjmxhsoarALo/GXrMQ/jk2YkyGacGbnP057SReteXglFKA5ANgHdwiBGMCRGfPYHzgQjITqLXuEZ4Mi2IevXcVQXI2O6yDlYKHNomSWogAeM9md/2CG5PX9bhlNvuupqBcleQq0O7LDuuq8HbmeKo6y8NMeUQZFt3n374V5WxPCWRNyh/PkOX4WodfDv+9ZbRJyH7q0NVBoAnkyLxYx/I27fnCzLouCPLTjJz/RoXdiSHKg2AsP45KlcBJjaOjFaZtxmiLNJZRgiHtfno73p3SQixkLJVGwBZhgqJ39rJjPdk09Gy2t2qGFKHsmVxnXDhhn++C/kY80eVZdDf93UYAP5kkHE4jvHVh9v1gitlgoLZCZRCIgFuBBqID6x+CDmmuPGlX1HrMoATgjxO8jnbAbtK5gxcy1UCYUR6XqdLRZCRK3hqgboNQKXoBdxoZU/Z2Mri1eR6GQIcuJzLAtkbjO24q8lk63R5Nyd/WOmkumWrkNw5DIBgKIULOIokdN2rchwDYpeN0w/s5HLmrk8cZGyiyNcZKixycxc9j0SDKl3ZbQ2SywBOGHzpewjJ8fQvSi3UgkoUwm/E6U7SCbNdoZzbAE5/JDn9Q9gntNGmEvrt+ClDDc41bj6s6uxYYbl7xQBWYA5YMBbjSSWwkwJQOpM788qjKQimotGLBrB1I/+IrDu8j+5euG63U3FljPtvrDi3QMp4XQH7YLv0ugGCKzTQPmgMkNlijQEaA2TWQGb2TQ9oDJBZA5nZNz2gMUBmDWRm3/SAxgCZNZCZfdMDGgNk1kBm9j8B8Zm+cK8CpbAAAAAASUVORK5CYII=;" parent="1" vertex="1">
          <mxGeometry x="684" y="1454" width="12" height="12" as="geometry" />
        </mxCell>
        <mxCell id="DrOKHovd3dyKM4xMpCVP-54" value="" style="shape=image;verticalLabelPosition=bottom;labelBackgroundColor=default;verticalAlign=top;aspect=fixed;imageAspect=0;image=data:image/png,iVBORw0KGgoAAAANSUhEUgAAAGAAAABgCAYAAADimHc4AAAESElEQVR4Xu2cu4sUQRDG7xDfgiCCiqAigoGZiSC+EBXB91v/Ak2M1UADhQP9KwzEQMX3E9+igRiYmhgoBoIYKIIKCn6lu9DMzu1U7U1trdNfQ3O7vTVVPb+vq6dne/aGh1hCCQyHRmfwIQoQPAgoAAUIJhAcnhlAAYIJBIdnBlCAYALB4ZkBFCCYQHB4ZgAFCCYQHJ4ZQAGCCQSHZwZQgGACweGZARQgmEBweGZAAwXYiXMaQV0cfG5V4d/A4CjqtSpDz889MuAjOjzLs9M1+n4HXwtq9Gd25SHAB/RirrknMQe8R9j5MaH/RfUQ4AD8no88KUPsfbC9YLCv3dRDgNo72WSHFCBYXQpAAYIJBIdnBlCAYALB4ZkBFCCYQHB4ZgAFCCYQHJ4ZQAGCCQSH98gA7gcYRPUQgPsBwQJwPyBYAO4HBAtgCE9Tj2sAqRoIUAADLA9TCuBB1eCTAhhgeZhSAD3V5TA9jboC9SvqWdQjqD/0LjotKYCO3nqY3UCdWDB/jvfyWc8iUIBqAQTwLdTxo5g+QvumXkWgAN0F2IiP71RrNHQfNhsUdh0mFGB0ajKqbxqg3m5lguEQn0cTTR0YUOPNrTnf2r1TOOCE5SBmQCetLWi6boGY2L7F60WWYz0E6Nd+gMfz/VsBbyy/F5DV0ORoAfq5H1Dn8/3bAO6qBV6J7UO0rbP48MiAfu4H1PV8/w5Au1wA9wXvpxtgyuhfhfrKcMx///uAOp7v3w5gVwrQLuH9IdSnqEuUQGXkSwaYikcGmDoQbLwL8QV2Wi7izd5Ww2z8fYk6r0s/ZeTLklVuyMwlZwFk2hHY4xJqIsZ+1N9J2xy8foZatrr5iXa5WXtiJt86IFcB9uD8iz9NkmlIVnBlZSEaZYlZLD1NO6mTHAUoG/my7pfp6FcJZLkQy/SyNPlszCO/7Ss3AQYKvoiQkwAyt59DTef8biN/GmxlFeQy8nPLAIEvP51NB1wV/AewX+Yx7eR2DRhY+DlMQVb4U1oXXPeRn8MU1Av8ewAje77tUttqp2R19bepqRfh3Tg3uclKi3zRJqugsiIjvwj/O9rkDvfxaPDqaG+qAJ8BZ0YCqAr+XdiuTOz7Ar+pGSDgRYB2kZEtXxeUFfnuXrYd1xbgy45YT9/tWLOiiRkwExA+JSDk2Z0zJWAmoU2edkjhu8/5xX7kKsBAwG/qFFSVARNw4vKoSejIb2dCEzOgeA2QO9oXSeqvxus1UXN+DlOQnOM31KmKC2Lf5/xcBDiJEz1eIUA4/KZeA9rcj+HFQdSyf8r3Gu2HC1OTImHqN2niNaB+So4eKYAjXI1rCqCh5GhDARzhalxTAA0lRxsK4AhX45oCaCg52lAAR7ga1xRAQ8nRhgI4wtW4pgAaSo42FMARrsY1BdBQcrShAI5wNa4pgIaSow0FcISrcU0BNJQcbSiAI1yNawqgoeRoQwEc4Wpc/wEnaZ5hyLS+AgAAAABJRU5ErkJggg==;" parent="1" vertex="1">
          <mxGeometry x="788" y="1164" width="12" height="12" as="geometry" />
        </mxCell>
        <mxCell id="DrOKHovd3dyKM4xMpCVP-55" value="" style="shape=image;verticalLabelPosition=bottom;labelBackgroundColor=default;verticalAlign=top;aspect=fixed;imageAspect=0;image=data:image/png,iVBORw0KGgoAAAANSUhEUgAAAGAAAABgCAYAAADimHc4AAADTElEQVR4Xu2cO4sUQRSFdxEWQwNZNlEQDQRh8WesJia+jUz2P5kZ+FgfiYmPn2AkGBkoCJqJIJiIIHgKpqFtupfenrp1zpUzUEzPbHfdW99Xt3t2a7Y3N/ygEtikRnfwDQsgTwILsAAyAXJ4V4AFkAmQw7sCLIBMgBzeFWABZALk8K4ACyATIId3BVgAmQA5vCvAAsgEyOFdARZAJkAO7wqwADIBcnhXgAWQCZDDt6iAkxjjLbSXaJ/I450b/jx23EN7iPZt7kFL9osWcAJJvUc7tUruMp5fLUm04TGXVpOlhPyCtov2Iyp+tIA7SPzBIPkywNdRA1qz3zLrhxPkLt67v2a/k4dHC7iIyO9GoitWQn/m91M+gxefswooeV9FeyYuYQr+NeT9PAp+6Te6Arrci4QDtGO9wfzG9hWB01E57bxA2+rl9gfbN6PhtxTQVYKaBCr81gLUJNDhMwSoSJCAzxLAliADnymAJUEKPltAawly8BUEtJIgCV9FQLQEWfhKAqIkSMNXE1Bbgjx8RQG1JKSArypgXQlp4CsLWCohFXx1AUeVkA5+BgFzJaSEn0VAJ2FsUacspJQH7e/5q/iLn1otyCxOsHfgdWw/GXT0C6+Pj3R+A+89rRE0uo9MAqZOR31GzVayaonJJuAwCengZ7oG9Cfc2Ppy+bkF1CrLQ/qZgt8dkk5CplNQubCWRf05j/KNhuEFe85xzffJImDqu0X+GNpgysz5TpF/EQsSMQd+FzqlBOVT0FHgp5WgKmAJ/JQSFAWsAz+dBDUBNeCnkqAkoCb8NBJUBETATyFBQUAkfHkJbAEt4EtLYApoCV9WAksAA76kBIYAJnw5Ca0FKMCXktBSgBJ8GQmtBCjCl5DQQoAyfLqEaAFnMcKPI2sFmW5VUG408jVovSP8P+X3kfi9QfLZbtZxG/k/zirgNBJ/i7azGoDizB+yHd6u5gJ2+JlVQMl7G63csOkN2oeogVTu9xz6KyIeoX2v3Pc/3UVfAyJz/y/6tgCyRguwADIBcnhXgAWQCZDDuwIsgEyAHN4VYAFkAuTwrgALIBMgh3cFWACZADm8K8ACyATI4V0BFkAmQA7vCrAAMgFyeFeABZAJkMO7AsgC/gJmlAVwXjN78wAAAABJRU5ErkJggg==;" parent="1" vertex="1">
          <mxGeometry x="800" y="1164" width="12" height="12" as="geometry" />
        </mxCell>
        <mxCell id="DrOKHovd3dyKM4xMpCVP-60" value="" style="shape=image;verticalLabelPosition=bottom;labelBackgroundColor=default;verticalAlign=top;aspect=fixed;imageAspect=0;image=data:image/png,iVBORw0KGgoAAAANSUhEUgAAAGAAAABgCAYAAADimHc4AAAESElEQVR4Xu2cu4sUQRDG7xDfgiCCiqAigoGZiSC+EBXB91v/Ak2M1UADhQP9KwzEQMX3E9+igRiYmhgoBoIYKIIKCn6lu9DMzu1U7U1trdNfQ3O7vTVVPb+vq6dne/aGh1hCCQyHRmfwIQoQPAgoAAUIJhAcnhlAAYIJBIdnBlCAYALB4ZkBFCCYQHB4ZgAFCCYQHJ4ZQAGCCQSHZwZQgGACweGZARQgmEBweGZAAwXYiXMaQV0cfG5V4d/A4CjqtSpDz889MuAjOjzLs9M1+n4HXwtq9Gd25SHAB/RirrknMQe8R9j5MaH/RfUQ4AD8no88KUPsfbC9YLCv3dRDgNo72WSHFCBYXQpAAYIJBIdnBlCAYALB4ZkBFCCYQHB4ZgAFCCYQHJ4ZQAGCCQSH98gA7gcYRPUQgPsBwQJwPyBYAO4HBAtgCE9Tj2sAqRoIUAADLA9TCuBB1eCTAhhgeZhSAD3V5TA9jboC9SvqWdQjqD/0LjotKYCO3nqY3UCdWDB/jvfyWc8iUIBqAQTwLdTxo5g+QvumXkWgAN0F2IiP71RrNHQfNhsUdh0mFGB0ajKqbxqg3m5lguEQn0cTTR0YUOPNrTnf2r1TOOCE5SBmQCetLWi6boGY2L7F60WWYz0E6Nd+gMfz/VsBbyy/F5DV0ORoAfq5H1Dn8/3bAO6qBV6J7UO0rbP48MiAfu4H1PV8/w5Au1wA9wXvpxtgyuhfhfrKcMx///uAOp7v3w5gVwrQLuH9IdSnqEuUQGXkSwaYikcGmDoQbLwL8QV2Wi7izd5Ww2z8fYk6r0s/ZeTLklVuyMwlZwFk2hHY4xJqIsZ+1N9J2xy8foZatrr5iXa5WXtiJt86IFcB9uD8iz9NkmlIVnBlZSEaZYlZLD1NO6mTHAUoG/my7pfp6FcJZLkQy/SyNPlszCO/7Ss3AQYKvoiQkwAyt59DTef8biN/GmxlFeQy8nPLAIEvP51NB1wV/AewX+Yx7eR2DRhY+DlMQVb4U1oXXPeRn8MU1Av8ewAje77tUttqp2R19bepqRfh3Tg3uclKi3zRJqugsiIjvwj/O9rkDvfxaPDqaG+qAJ8BZ0YCqAr+XdiuTOz7Ar+pGSDgRYB2kZEtXxeUFfnuXrYd1xbgy45YT9/tWLOiiRkwExA+JSDk2Z0zJWAmoU2edkjhu8/5xX7kKsBAwG/qFFSVARNw4vKoSejIb2dCEzOgeA2QO9oXSeqvxus1UXN+DlOQnOM31KmKC2Lf5/xcBDiJEz1eIUA4/KZeA9rcj+HFQdSyf8r3Gu2HC1OTImHqN2niNaB+So4eKYAjXI1rCqCh5GhDARzhalxTAA0lRxsK4AhX45oCaCg52lAAR7ga1xRAQ8nRhgI4wtW4pgAaSo42FMARrsY1BdBQcrShAI5wNa4pgIaSow0FcISrcU0BNJQcbSiAI1yNawqgoeRoQwEc4Wpc/wEnaZ5hyLS+AgAAAABJRU5ErkJggg==;" parent="1" vertex="1">
          <mxGeometry x="788" y="1224" width="12" height="12" as="geometry" />
        </mxCell>
        <mxCell id="DrOKHovd3dyKM4xMpCVP-61" value="" style="shape=image;verticalLabelPosition=bottom;labelBackgroundColor=default;verticalAlign=top;aspect=fixed;imageAspect=0;image=data:image/png,iVBORw0KGgoAAAANSUhEUgAAAGAAAABgCAYAAADimHc4AAADTElEQVR4Xu2cO4sUQRSFdxEWQwNZNlEQDQRh8WesJia+jUz2P5kZ+FgfiYmPn2AkGBkoCJqJIJiIIHgKpqFtupfenrp1zpUzUEzPbHfdW99Xt3t2a7Y3N/ygEtikRnfwDQsgTwILsAAyAXJ4V4AFkAmQw7sCLIBMgBzeFWABZALk8K4ACyATIId3BVgAmQA5vCvAAsgEyOFdARZAJkAO7wqwADIBcnhXgAWQCZDDt6iAkxjjLbSXaJ/I450b/jx23EN7iPZt7kFL9osWcAJJvUc7tUruMp5fLUm04TGXVpOlhPyCtov2Iyp+tIA7SPzBIPkywNdRA1qz3zLrhxPkLt67v2a/k4dHC7iIyO9GoitWQn/m91M+gxefswooeV9FeyYuYQr+NeT9PAp+6Te6Arrci4QDtGO9wfzG9hWB01E57bxA2+rl9gfbN6PhtxTQVYKaBCr81gLUJNDhMwSoSJCAzxLAliADnymAJUEKPltAawly8BUEtJIgCV9FQLQEWfhKAqIkSMNXE1Bbgjx8RQG1JKSArypgXQlp4CsLWCohFXx1AUeVkA5+BgFzJaSEn0VAJ2FsUacspJQH7e/5q/iLn1otyCxOsHfgdWw/GXT0C6+Pj3R+A+89rRE0uo9MAqZOR31GzVayaonJJuAwCengZ7oG9Cfc2Ppy+bkF1CrLQ/qZgt8dkk5CplNQubCWRf05j/KNhuEFe85xzffJImDqu0X+GNpgysz5TpF/EQsSMQd+FzqlBOVT0FHgp5WgKmAJ/JQSFAWsAz+dBDUBNeCnkqAkoCb8NBJUBETATyFBQUAkfHkJbAEt4EtLYApoCV9WAksAA76kBIYAJnw5Ca0FKMCXktBSgBJ8GQmtBCjCl5DQQoAyfLqEaAFnMcKPI2sFmW5VUG408jVovSP8P+X3kfi9QfLZbtZxG/k/zirgNBJ/i7azGoDizB+yHd6u5gJ2+JlVQMl7G63csOkN2oeogVTu9xz6KyIeoX2v3Pc/3UVfAyJz/y/6tgCyRguwADIBcnhXgAWQCZDDuwIsgEyAHN4VYAFkAuTwrgALIBMgh3cFWACZADm8K8ACyATI4V0BFkAmQA7vCrAAMgFyeFeABZAJkMO7AsgC/gJmlAVwXjN78wAAAABJRU5ErkJggg==;" parent="1" vertex="1">
          <mxGeometry x="800" y="1224" width="12" height="12" as="geometry" />
        </mxCell>
        <mxCell id="DrOKHovd3dyKM4xMpCVP-62" value="" style="shape=image;verticalLabelPosition=bottom;labelBackgroundColor=default;verticalAlign=top;aspect=fixed;imageAspect=0;image=data:image/png,iVBORw0KGgoAAAANSUhEUgAAAGAAAABgCAYAAADimHc4AAAESElEQVR4Xu2cu4sUQRDG7xDfgiCCiqAigoGZiSC+EBXB91v/Ak2M1UADhQP9KwzEQMX3E9+igRiYmhgoBoIYKIIKCn6lu9DMzu1U7U1trdNfQ3O7vTVVPb+vq6dne/aGh1hCCQyHRmfwIQoQPAgoAAUIJhAcnhlAAYIJBIdnBlCAYALB4ZkBFCCYQHB4ZgAFCCYQHJ4ZQAGCCQSHZwZQgGACweGZARQgmEBweGZAAwXYiXMaQV0cfG5V4d/A4CjqtSpDz889MuAjOjzLs9M1+n4HXwtq9Gd25SHAB/RirrknMQe8R9j5MaH/RfUQ4AD8no88KUPsfbC9YLCv3dRDgNo72WSHFCBYXQpAAYIJBIdnBlCAYALB4ZkBFCCYQHB4ZgAFCCYQHJ4ZQAGCCQSH98gA7gcYRPUQgPsBwQJwPyBYAO4HBAtgCE9Tj2sAqRoIUAADLA9TCuBB1eCTAhhgeZhSAD3V5TA9jboC9SvqWdQjqD/0LjotKYCO3nqY3UCdWDB/jvfyWc8iUIBqAQTwLdTxo5g+QvumXkWgAN0F2IiP71RrNHQfNhsUdh0mFGB0ajKqbxqg3m5lguEQn0cTTR0YUOPNrTnf2r1TOOCE5SBmQCetLWi6boGY2L7F60WWYz0E6Nd+gMfz/VsBbyy/F5DV0ORoAfq5H1Dn8/3bAO6qBV6J7UO0rbP48MiAfu4H1PV8/w5Au1wA9wXvpxtgyuhfhfrKcMx///uAOp7v3w5gVwrQLuH9IdSnqEuUQGXkSwaYikcGmDoQbLwL8QV2Wi7izd5Ww2z8fYk6r0s/ZeTLklVuyMwlZwFk2hHY4xJqIsZ+1N9J2xy8foZatrr5iXa5WXtiJt86IFcB9uD8iz9NkmlIVnBlZSEaZYlZLD1NO6mTHAUoG/my7pfp6FcJZLkQy/SyNPlszCO/7Ss3AQYKvoiQkwAyt59DTef8biN/GmxlFeQy8nPLAIEvP51NB1wV/AewX+Yx7eR2DRhY+DlMQVb4U1oXXPeRn8MU1Av8ewAje77tUttqp2R19bepqRfh3Tg3uclKi3zRJqugsiIjvwj/O9rkDvfxaPDqaG+qAJ8BZ0YCqAr+XdiuTOz7Ar+pGSDgRYB2kZEtXxeUFfnuXrYd1xbgy45YT9/tWLOiiRkwExA+JSDk2Z0zJWAmoU2edkjhu8/5xX7kKsBAwG/qFFSVARNw4vKoSejIb2dCEzOgeA2QO9oXSeqvxus1UXN+DlOQnOM31KmKC2Lf5/xcBDiJEz1eIUA4/KZeA9rcj+HFQdSyf8r3Gu2HC1OTImHqN2niNaB+So4eKYAjXI1rCqCh5GhDARzhalxTAA0lRxsK4AhX45oCaCg52lAAR7ga1xRAQ8nRhgI4wtW4pgAaSo42FMARrsY1BdBQcrShAI5wNa4pgIaSow0FcISrcU0BNJQcbSiAI1yNawqgoeRoQwEc4Wpc/wEnaZ5hyLS+AgAAAABJRU5ErkJggg==;" parent="1" vertex="1">
          <mxGeometry x="788" y="1244" width="12" height="12" as="geometry" />
        </mxCell>
        <mxCell id="DrOKHovd3dyKM4xMpCVP-63" value="" style="shape=image;verticalLabelPosition=bottom;labelBackgroundColor=default;verticalAlign=top;aspect=fixed;imageAspect=0;image=data:image/png,iVBORw0KGgoAAAANSUhEUgAAAGAAAABgCAYAAADimHc4AAADTElEQVR4Xu2cO4sUQRSFdxEWQwNZNlEQDQRh8WesJia+jUz2P5kZ+FgfiYmPn2AkGBkoCJqJIJiIIHgKpqFtupfenrp1zpUzUEzPbHfdW99Xt3t2a7Y3N/ygEtikRnfwDQsgTwILsAAyAXJ4V4AFkAmQw7sCLIBMgBzeFWABZALk8K4ACyATIId3BVgAmQA5vCvAAsgEyOFdARZAJkAO7wqwADIBcnhXgAWQCZDDt6iAkxjjLbSXaJ/I450b/jx23EN7iPZt7kFL9osWcAJJvUc7tUruMp5fLUm04TGXVpOlhPyCtov2Iyp+tIA7SPzBIPkywNdRA1qz3zLrhxPkLt67v2a/k4dHC7iIyO9GoitWQn/m91M+gxefswooeV9FeyYuYQr+NeT9PAp+6Te6Arrci4QDtGO9wfzG9hWB01E57bxA2+rl9gfbN6PhtxTQVYKaBCr81gLUJNDhMwSoSJCAzxLAliADnymAJUEKPltAawly8BUEtJIgCV9FQLQEWfhKAqIkSMNXE1Bbgjx8RQG1JKSArypgXQlp4CsLWCohFXx1AUeVkA5+BgFzJaSEn0VAJ2FsUacspJQH7e/5q/iLn1otyCxOsHfgdWw/GXT0C6+Pj3R+A+89rRE0uo9MAqZOR31GzVayaonJJuAwCengZ7oG9Cfc2Ppy+bkF1CrLQ/qZgt8dkk5CplNQubCWRf05j/KNhuEFe85xzffJImDqu0X+GNpgysz5TpF/EQsSMQd+FzqlBOVT0FHgp5WgKmAJ/JQSFAWsAz+dBDUBNeCnkqAkoCb8NBJUBETATyFBQUAkfHkJbAEt4EtLYApoCV9WAksAA76kBIYAJnw5Ca0FKMCXktBSgBJ8GQmtBCjCl5DQQoAyfLqEaAFnMcKPI2sFmW5VUG408jVovSP8P+X3kfi9QfLZbtZxG/k/zirgNBJ/i7azGoDizB+yHd6u5gJ2+JlVQMl7G63csOkN2oeogVTu9xz6KyIeoX2v3Pc/3UVfAyJz/y/6tgCyRguwADIBcnhXgAWQCZDDuwIsgEyAHN4VYAFkAuTwrgALIBMgh3cFWACZADm8K8ACyATI4V0BFkAmQA7vCrAAMgFyeFeABZAJkMO7AsgC/gJmlAVwXjN78wAAAABJRU5ErkJggg==;" parent="1" vertex="1">
          <mxGeometry x="800" y="1244" width="12" height="12" as="geometry" />
        </mxCell>
        <mxCell id="DrOKHovd3dyKM4xMpCVP-64" value="" style="shape=image;verticalLabelPosition=bottom;labelBackgroundColor=default;verticalAlign=top;aspect=fixed;imageAspect=0;image=data:image/png,iVBORw0KGgoAAAANSUhEUgAAAGAAAABgCAYAAADimHc4AAAESElEQVR4Xu2cu4sUQRDG7xDfgiCCiqAigoGZiSC+EBXB91v/Ak2M1UADhQP9KwzEQMX3E9+igRiYmhgoBoIYKIIKCn6lu9DMzu1U7U1trdNfQ3O7vTVVPb+vq6dne/aGh1hCCQyHRmfwIQoQPAgoAAUIJhAcnhlAAYIJBIdnBlCAYALB4ZkBFCCYQHB4ZgAFCCYQHJ4ZQAGCCQSHZwZQgGACweGZARQgmEBweGZAAwXYiXMaQV0cfG5V4d/A4CjqtSpDz889MuAjOjzLs9M1+n4HXwtq9Gd25SHAB/RirrknMQe8R9j5MaH/RfUQ4AD8no88KUPsfbC9YLCv3dRDgNo72WSHFCBYXQpAAYIJBIdnBlCAYALB4ZkBFCCYQHB4ZgAFCCYQHJ4ZQAGCCQSH98gA7gcYRPUQgPsBwQJwPyBYAO4HBAtgCE9Tj2sAqRoIUAADLA9TCuBB1eCTAhhgeZhSAD3V5TA9jboC9SvqWdQjqD/0LjotKYCO3nqY3UCdWDB/jvfyWc8iUIBqAQTwLdTxo5g+QvumXkWgAN0F2IiP71RrNHQfNhsUdh0mFGB0ajKqbxqg3m5lguEQn0cTTR0YUOPNrTnf2r1TOOCE5SBmQCetLWi6boGY2L7F60WWYz0E6Nd+gMfz/VsBbyy/F5DV0ORoAfq5H1Dn8/3bAO6qBV6J7UO0rbP48MiAfu4H1PV8/w5Au1wA9wXvpxtgyuhfhfrKcMx///uAOp7v3w5gVwrQLuH9IdSnqEuUQGXkSwaYikcGmDoQbLwL8QV2Wi7izd5Ww2z8fYk6r0s/ZeTLklVuyMwlZwFk2hHY4xJqIsZ+1N9J2xy8foZatrr5iXa5WXtiJt86IFcB9uD8iz9NkmlIVnBlZSEaZYlZLD1NO6mTHAUoG/my7pfp6FcJZLkQy/SyNPlszCO/7Ss3AQYKvoiQkwAyt59DTef8biN/GmxlFeQy8nPLAIEvP51NB1wV/AewX+Yx7eR2DRhY+DlMQVb4U1oXXPeRn8MU1Av8ewAje77tUttqp2R19bepqRfh3Tg3uclKi3zRJqugsiIjvwj/O9rkDvfxaPDqaG+qAJ8BZ0YCqAr+XdiuTOz7Ar+pGSDgRYB2kZEtXxeUFfnuXrYd1xbgy45YT9/tWLOiiRkwExA+JSDk2Z0zJWAmoU2edkjhu8/5xX7kKsBAwG/qFFSVARNw4vKoSejIb2dCEzOgeA2QO9oXSeqvxus1UXN+DlOQnOM31KmKC2Lf5/xcBDiJEz1eIUA4/KZeA9rcj+HFQdSyf8r3Gu2HC1OTImHqN2niNaB+So4eKYAjXI1rCqCh5GhDARzhalxTAA0lRxsK4AhX45oCaCg52lAAR7ga1xRAQ8nRhgI4wtW4pgAaSo42FMARrsY1BdBQcrShAI5wNa4pgIaSow0FcISrcU0BNJQcbSiAI1yNawqgoeRoQwEc4Wpc/wEnaZ5hyLS+AgAAAABJRU5ErkJggg==;" parent="1" vertex="1">
          <mxGeometry x="788" y="1264" width="12" height="12" as="geometry" />
        </mxCell>
        <mxCell id="DrOKHovd3dyKM4xMpCVP-65" value="" style="shape=image;verticalLabelPosition=bottom;labelBackgroundColor=default;verticalAlign=top;aspect=fixed;imageAspect=0;image=data:image/png,iVBORw0KGgoAAAANSUhEUgAAAGAAAABgCAYAAADimHc4AAADTElEQVR4Xu2cO4sUQRSFdxEWQwNZNlEQDQRh8WesJia+jUz2P5kZ+FgfiYmPn2AkGBkoCJqJIJiIIHgKpqFtupfenrp1zpUzUEzPbHfdW99Xt3t2a7Y3N/ygEtikRnfwDQsgTwILsAAyAXJ4V4AFkAmQw7sCLIBMgBzeFWABZALk8K4ACyATIId3BVgAmQA5vCvAAsgEyOFdARZAJkAO7wqwADIBcnhXgAWQCZDDt6iAkxjjLbSXaJ/I450b/jx23EN7iPZt7kFL9osWcAJJvUc7tUruMp5fLUm04TGXVpOlhPyCtov2Iyp+tIA7SPzBIPkywNdRA1qz3zLrhxPkLt67v2a/k4dHC7iIyO9GoitWQn/m91M+gxefswooeV9FeyYuYQr+NeT9PAp+6Te6Arrci4QDtGO9wfzG9hWB01E57bxA2+rl9gfbN6PhtxTQVYKaBCr81gLUJNDhMwSoSJCAzxLAliADnymAJUEKPltAawly8BUEtJIgCV9FQLQEWfhKAqIkSMNXE1Bbgjx8RQG1JKSArypgXQlp4CsLWCohFXx1AUeVkA5+BgFzJaSEn0VAJ2FsUacspJQH7e/5q/iLn1otyCxOsHfgdWw/GXT0C6+Pj3R+A+89rRE0uo9MAqZOR31GzVayaonJJuAwCengZ7oG9Cfc2Ppy+bkF1CrLQ/qZgt8dkk5CplNQubCWRf05j/KNhuEFe85xzffJImDqu0X+GNpgysz5TpF/EQsSMQd+FzqlBOVT0FHgp5WgKmAJ/JQSFAWsAz+dBDUBNeCnkqAkoCb8NBJUBETATyFBQUAkfHkJbAEt4EtLYApoCV9WAksAA76kBIYAJnw5Ca0FKMCXktBSgBJ8GQmtBCjCl5DQQoAyfLqEaAFnMcKPI2sFmW5VUG408jVovSP8P+X3kfi9QfLZbtZxG/k/zirgNBJ/i7azGoDizB+yHd6u5gJ2+JlVQMl7G63csOkN2oeogVTu9xz6KyIeoX2v3Pc/3UVfAyJz/y/6tgCyRguwADIBcnhXgAWQCZDDuwIsgEyAHN4VYAFkAuTwrgALIBMgh3cFWACZADm8K8ACyATI4V0BFkAmQA7vCrAAMgFyeFeABZAJkMO7AsgC/gJmlAVwXjN78wAAAABJRU5ErkJggg==;" parent="1" vertex="1">
          <mxGeometry x="800" y="1264" width="12" height="12" as="geometry" />
        </mxCell>
        <mxCell id="DrOKHovd3dyKM4xMpCVP-66" value="+ add type" style="text;html=1;align=center;verticalAlign=middle;resizable=1;points=[];autosize=1;strokeColor=none;fillColor=none;fontFamily=CaskaydiaCove NFM Light;fontSize=6;fontStyle=0;labelBackgroundColor=default;spacing=0;fillOpacity=50;strokeWidth=0;" parent="1" vertex="1">
          <mxGeometry x="740" y="1285" width="50" height="20" as="geometry" />
        </mxCell>
        <mxCell id="DrOKHovd3dyKM4xMpCVP-69" value="Note..." style="shape=note;whiteSpace=wrap;html=1;backgroundOutline=1;darkOpacity=0.05;fillColor=#fff2cc;strokeColor=#d6b656;size=10;fontFamily=CaskaydiaCove NFM Light;align=center;" parent="1" vertex="1">
          <mxGeometry x="590" y="1180" width="80" height="40" as="geometry" />
        </mxCell>
      </root>
    </mxGraphModel>
  </diagram>
</mxfile>
